<svg id="Layer_1" data-name="Layer 1" xmlns="http://www.w3.org/2000/svg" viewBox="0 0 31.64 34.56"><title>Artboard 4</title><path d="M30.27,14.8l0-.08h-.61l0,.09a7.73,7.73,0,0,1-1.5,2.07,6.89,6.89,0,0,1-4.94,2.06,5.7,5.7,0,0,1-5.06-2.7,6.86,6.86,0,0,1-.45-6.37l.17.09A5.59,5.59,0,1,0,23.15,6,7,7,0,0,0,18.8,7.44,9.35,9.35,0,0,0,16.08,11a24.33,24.33,0,0,0-1.78,9.81A20.81,20.81,0,0,0,16.13,30a8.78,8.78,0,0,0,2.72,3.29,7.3,7.3,0,0,0,4.29,1.29,7.32,7.32,0,0,0,6.5-3.74,16.39,16.39,0,0,0,2-8.38A18.27,18.27,0,0,0,30.27,14.8Z"/><path d="M13.65,28.72a26.67,26.67,0,0,1-1.07-7.88V0L.08,6.6,0,6.65V7.91H2V25.64a8.62,8.62,0,0,0,8.71,8.71h5.7v-.9l-.06,0A9.28,9.28,0,0,1,13.65,28.72Z"/></svg>