<?xml version="1.0" encoding="utf-8"?>
<!-- Generator: Adobe Illustrator 21.1.0, SVG Export Plug-In . SVG Version: 6.00 Build 0)  -->
<svg version="1.1" id="Layer_1" xmlns="http://www.w3.org/2000/svg" xmlns:xlink="http://www.w3.org/1999/xlink" x="0px" y="0px"
	 viewBox="0 0 1080 720" style="enable-background:new 0 0 1080 720;" xml:space="preserve">
<style type="text/css">
	.st0{fill:#1A1A1A;}
	.st1{fill:#FFFFFF;}
	.st2{fill-rule:evenodd;clip-rule:evenodd;}
	.st3{fill:#231D2B;}
	.st4{fill:#060000;}
	.st5{clip-path:url(#SVGID_2_);}
	.st6{clip-path:url(#SVGID_4_);}
	.st7{clip-path:url(#SVGID_6_);}
	.st8{clip-path:url(#SVGID_8_);}
	.st9{clip-path:url(#SVGID_10_);}
	.st10{clip-path:url(#SVGID_12_);}
	.st11{clip-path:url(#SVGID_14_);}
	.st12{clip-path:url(#SVGID_16_);}
	.st13{clip-path:url(#SVGID_18_);}
	.st14{clip-path:url(#SVGID_20_);}
	.st15{clip-path:url(#SVGID_22_);}
	.st16{clip-path:url(#SVGID_24_);}
	.st17{clip-path:url(#SVGID_26_);}
	.st18{clip-path:url(#SVGID_28_);}
	.st19{clip-path:url(#SVGID_30_);}
	.st20{clip-path:url(#SVGID_32_);}
	.st21{clip-path:url(#SVGID_34_);}
	.st22{clip-path:url(#SVGID_36_);}
	.st23{clip-path:url(#SVGID_38_);}
	.st24{clip-path:url(#SVGID_40_);}
	.st25{clip-path:url(#SVGID_42_);}
	.st26{clip-path:url(#SVGID_44_);}
	.st27{clip-path:url(#SVGID_46_);}
	.st28{clip-path:url(#SVGID_48_);}
	.st29{clip-path:url(#SVGID_50_);}
	.st30{clip-path:url(#SVGID_52_);}
	.st31{clip-path:url(#SVGID_54_);}
	.st32{clip-path:url(#SVGID_56_);}
	.st33{clip-path:url(#SVGID_58_);}
	.st34{clip-path:url(#SVGID_60_);}
	.st35{clip-path:url(#SVGID_62_);}
	.st36{clip-path:url(#SVGID_64_);}
	.st37{clip-path:url(#SVGID_66_);}
	.st38{clip-path:url(#SVGID_68_);}
	.st39{clip-path:url(#SVGID_70_);}
	.st40{clip-path:url(#SVGID_72_);}
	.st41{clip-path:url(#SVGID_74_);}
	.st42{fill-rule:evenodd;clip-rule:evenodd;fill:#2B2D33;}
</style>
<path class="st0" d="M629.6,267.8c7.4-6.4,14.5-10.3,20.9-10.9c0.9-0.1,1.4-1,1-1.8c-3.9-7.9-21.4-40.5-45.1-40.5
	c-10.8,0-23.7,11.5-36.9,29.2c-5.3-0.6-10.8-0.9-16.4-0.9c-60.5,0-124.5,38.6-124.5,96.1c0,23.6,14.2,39.3,37.6,39.3
	c16.4,0,24.8-4.7,27.8-6.8c0.6-0.4,0.6-1.3,0.1-1.8c-2.5-2-8-7.7-8-17.5c0-28,25.2-56.5,55.2-62.5c-26,49-47.3,107.7-47.3,129.5
	c0,11.6,6.3,24.2,15.7,33.4c-2.5,0.3-4.9,0.4-7.4,0.4c-18.8,0-31.8-11.3-31.8-29.8c0-15,8.3-21.2,11.6-23c0.6-0.4,0.7-1.2,0.1-1.7
	c-2.8-2-10-6.4-20.8-6.4c-27.7,0-46.4,19.5-46.4,45.6c0,43.9,38.2,67.7,85.1,67.7c85.1,0,165.1-80.7,165.1-162.1
	C665.1,312.1,651.8,285.7,629.6,267.8z M538.8,443.1c0.2-23.9,27.3-88.8,57.9-135.2c6.3,8.1,9.9,18.4,9.9,30.7
	C606.6,375.8,576.4,422.9,538.8,443.1z"/>
</svg>
