<?xml version="1.0" encoding="utf-8"?>
<!-- Generator: Adobe Illustrator 21.1.0, SVG Export Plug-In . SVG Version: 6.00 Build 0)  -->
<svg version="1.1" xmlns="http://www.w3.org/2000/svg" xmlns:xlink="http://www.w3.org/1999/xlink" x="0px" y="0px"
	 viewBox="0 0 1800 900" style="enable-background:new 0 0 1800 900;" xml:space="preserve">
<style type="text/css">
	.st0{display:none;}
	.st1{display:inline;fill-rule:evenodd;clip-rule:evenodd;}
	.st2{fill:#F3F3F3;}
	.st3{fill:#FFFCF8;}
	.st4{fill:#1A1A1A;}
	.st5{fill:#B9B9B9;}
	.st6{fill-rule:evenodd;clip-rule:evenodd;fill:#1A1A1A;}
	.st7{fill:#E6E7E8;}
	.st8{clip-path:url(#SVGID_2_);}
	.st9{clip-path:url(#SVGID_4_);}
	.st10{clip-path:url(#SVGID_6_);}
	.st11{clip-path:url(#SVGID_8_);}
	.st12{clip-path:url(#SVGID_10_);}
	.st13{clip-path:url(#SVGID_12_);}
	.st14{clip-path:url(#SVGID_14_);}
	.st15{clip-path:url(#SVGID_14_);fill:#1A1A1A;}
	.st16{clip-path:url(#SVGID_16_);}
	.st17{clip-path:url(#SVGID_18_);}
	.st18{clip-path:url(#SVGID_20_);}
	.st19{clip-path:url(#SVGID_22_);}
	.st20{clip-path:url(#SVGID_24_);}
	.st21{clip-path:url(#SVGID_26_);}
	.st22{clip-path:url(#SVGID_28_);}
	.st23{clip-path:url(#SVGID_30_);}
	.st24{clip-path:url(#SVGID_32_);}
	.st25{clip-path:url(#SVGID_34_);}
	.st26{clip-path:url(#SVGID_36_);}
	.st27{clip-path:url(#SVGID_38_);}
	.st28{clip-path:url(#SVGID_40_);}
	.st29{clip-path:url(#SVGID_42_);}
	.st30{clip-path:url(#SVGID_44_);}
	.st31{clip-path:url(#SVGID_46_);}
	.st32{clip-path:url(#SVGID_48_);}
	.st33{clip-path:url(#SVGID_48_);fill:#1A1A1A;}
	.st34{clip-path:url(#SVGID_50_);}
	.st35{clip-path:url(#SVGID_52_);}
	.st36{clip-path:url(#SVGID_54_);}
	.st37{clip-path:url(#SVGID_56_);}
	.st38{clip-path:url(#SVGID_58_);}
	.st39{clip-path:url(#SVGID_60_);}
	.st40{clip-path:url(#SVGID_62_);}
	.st41{clip-path:url(#SVGID_64_);}
	.st42{clip-path:url(#SVGID_66_);}
	.st43{clip-path:url(#SVGID_68_);}
	.st44{clip-path:url(#SVGID_70_);}
	.st45{clip-path:url(#SVGID_72_);}
	.st46{fill:#00A651;}
</style>
<g id="bg" class="st0">
</g>
<g id="Layer_1">
	<rect x="-19.2" y="-14.5" class="st2" width="1838.4" height="928.9"/>
	<path class="st4" d="M1023.7,322.7c10.2-8.8,20-14.2,28.9-15.1c1.2-0.1,1.9-1.4,1.4-2.5c-5.4-10.9-29.6-55.9-62.2-55.9
		c-14.9,0-32.7,15.9-51,40.3c-7.4-0.8-14.9-1.3-22.7-1.3c-83.6,0-171.9,53.3-171.9,132.7c0,32.6,19.6,54.3,51.9,54.3
		c22.7,0,34.3-6.5,38.3-9.3c0.8-0.6,0.9-1.8,0.1-2.5c-3.4-2.8-11-10.6-11-24.2c0-38.7,34.7-78.1,76.2-86.3
		c-35.9,67.6-65.3,148.7-65.3,178.9c0,16,8.7,33.5,21.7,46.1c-3.4,0.4-6.8,0.6-10.3,0.6c-26,0-43.9-15.7-43.9-41.2
		c0-20.7,11.5-29.2,16-31.8c0.9-0.5,0.9-1.7,0.1-2.3c-3.8-2.8-13.8-8.8-28.8-8.8c-38.3,0-64.1,26.9-64.1,62.9
		c0,60.6,52.8,93.5,117.6,93.5c117.4,0,228-111.5,228-223.8C1072.8,383.9,1054.4,347.4,1023.7,322.7z M898.3,564.7
		c0.2-33,37.7-122.6,79.9-186.7c8.7,11.1,13.7,25.5,13.7,42.4C992,471.9,950.3,536.8,898.3,564.7z"/>
</g>
</svg>
