<?xml version="1.0" encoding="utf-8"?>
<!-- Generator: Adobe Illustrator 21.1.0, SVG Export Plug-In . SVG Version: 6.00 Build 0)  -->
<svg version="1.1" id="Layer_1" xmlns="http://www.w3.org/2000/svg" xmlns:xlink="http://www.w3.org/1999/xlink" x="0px" y="0px"
	 viewBox="0 0 1080 720" style="enable-background:new 0 0 1080 720;" xml:space="preserve">
<style type="text/css">
	.st0{fill-rule:evenodd;clip-rule:evenodd;}
	.st1{fill:#1A1A1A;}
	.st2{fill:#FFFFFF;}
	.st3{fill-rule:evenodd;clip-rule:evenodd;fill:#1A1A1A;}
	.st4{fill:#060000;}
	.st5{clip-path:url(#SVGID_2_);}
	.st6{clip-path:url(#SVGID_4_);}
	.st7{clip-path:url(#SVGID_6_);}
	.st8{clip-path:url(#SVGID_8_);}
	.st9{clip-path:url(#SVGID_10_);}
	.st10{clip-path:url(#SVGID_12_);}
	.st11{clip-path:url(#SVGID_14_);}
	.st12{clip-path:url(#SVGID_16_);}
	.st13{clip-path:url(#SVGID_18_);}
	.st14{clip-path:url(#SVGID_20_);}
	.st15{clip-path:url(#SVGID_22_);}
	.st16{clip-path:url(#SVGID_24_);}
	.st17{clip-path:url(#SVGID_26_);}
	.st18{clip-path:url(#SVGID_28_);}
	.st19{clip-path:url(#SVGID_30_);}
	.st20{clip-path:url(#SVGID_32_);}
	.st21{clip-path:url(#SVGID_34_);}
	.st22{clip-path:url(#SVGID_36_);}
	.st23{clip-path:url(#SVGID_38_);}
	.st24{clip-path:url(#SVGID_40_);}
	.st25{clip-path:url(#SVGID_42_);}
	.st26{clip-path:url(#SVGID_44_);}
	.st27{clip-path:url(#SVGID_46_);}
	.st28{clip-path:url(#SVGID_48_);}
	.st29{clip-path:url(#SVGID_50_);}
	.st30{clip-path:url(#SVGID_52_);}
	.st31{clip-path:url(#SVGID_54_);}
	.st32{clip-path:url(#SVGID_56_);}
	.st33{clip-path:url(#SVGID_58_);}
	.st34{clip-path:url(#SVGID_60_);}
	.st35{clip-path:url(#SVGID_62_);}
	.st36{clip-path:url(#SVGID_64_);}
	.st37{clip-path:url(#SVGID_66_);}
	.st38{clip-path:url(#SVGID_68_);}
	.st39{clip-path:url(#SVGID_70_);}
	.st40{clip-path:url(#SVGID_72_);}
	.st41{clip-path:url(#SVGID_74_);}
	.st42{fill-rule:evenodd;clip-rule:evenodd;fill:#FFFFFF;}
	.st43{fill-rule:evenodd;clip-rule:evenodd;fill:#2B2D33;}
	.st44{fill:#E6E7E8;}
</style>
<g>
	<path class="st1" d="M592.1,304.3c6,0,12.5-6.1,12.5-12.1c0-6-4.5-11.3-10.5-11.3c-7,0-12.9,5.5-12.9,12.4
		C581.2,299.4,586.1,304.3,592.1,304.3z"/>
	<path class="st1" d="M691.5,304.3c7,0,12.5-5.1,12.5-12.1c0-6-4.5-11.3-10.5-11.3c-7,0-12.9,6.4-12.9,12.4
		C680.6,299.4,685.4,304.3,691.5,304.3z"/>
	<path class="st1" d="M821.1,418.3c0.4-0.9,0.8-1.9,1.2-2.8c6.2-14.5,28.3-76.6,28.3-91c0-12-16-8.4-21.5-6.8
		c-0.9,0.3-1.5,1.1-1.3,2c0.4,3.2-1.1,10.9-3.6,20.9c-4.8,17.6-15,44.9-30.2,44.9c-4.7,0-6.9-2.6-6.9-7.6c0-11.4,15.6-43.7,15.6-55
		c0-6.1-4.5-9.1-11.7-9.1c-7.2,0-22.5,1.6-37.5,1.5c5.3-15.1,9.7-28.1,9.7-32.9c0-9.4-15.6-8.7-20.8-8.2c-0.9,0.1-1.7,0.8-1.7,1.8
		c-0.5,8.4-4.5,22.2-9.3,37.2c-6.1-1.4-11-3.7-13.9-7.2c-0.6-0.7-1.6-0.7-2.2-0.1c-2.1,2.3-6.1,7.3-6.1,12.7c0,7.9,8,10.2,16.8,10.9
		c-5.3,16.1-10.4,31.9-12.4,42.5c-6.1,7.1-18.7,13.8-27.5,13.8c-4.7,0-6.7-2.4-6.7-7.8c0-12.8,16-42.7,16-53.1
		c0-11.8-15.5-9.4-21.1-8.1c-0.9,0.2-1.5,1.1-1.3,2c1.7,8.5-12.7,41.7-15.7,57.3c-6,5.5-13.3,9.7-19.3,9.7c-5.9,0-7.7-3.6-7.7-9.2
		c0-18.6,27.8-80,27.8-93.8c0-10.4-16.6-8-21.6-7c-0.8,0.2-1.4,0.8-1.5,1.7c-1,20.8-23.1,73-26.7,96.3c-5.1,5.8-15.4,12.1-22.6,12.1
		c-4.7,0-6.7-2.4-6.7-7.8c0-12.5,16.6-43.3,16.6-54c0-10.9-15.6-7.9-21.1-6.5c-0.9,0.2-1.4,1.1-1.3,2c1.5,8.2-13.1,40.6-16.3,56.3
		c-6.4,6.3-13.9,10.9-20.1,10.9c-4.9,0-6.6-3.4-6.6-7.9c0-11.5,15.5-32.8,15.5-45.7c0-11.4-7.7-17.6-19.2-17.6
		c-11,0-19.3,6.9-25.2,14.4c-2.1-8.9-9.4-14.4-18.2-14.4c-10.6,0-18.7,6-24.6,13.2c0.4-1.9,0.6-3.5,0.6-4.8
		c0-10.9-15.1-7.9-20.4-6.6c-0.8,0.2-1.3,1-1.2,1.9c1.6,7.6-11.2,36.9-17,57c-4.9,5.3-12.7,10.7-18.6,10.7c-4.7,0-6.7-2.4-6.7-7.8
		c0-11.8,17-43.6,17-55c0-10.2-16.1-8.1-21.6-7.1c-0.8,0.1-1.3,0.9-1.2,1.7c0.9,4.7-3.6,17.8-8.2,31.1l0,0
		c-4.7,13.3-14,35.2-26.6,35.2c-4.3,0-6.2-2.8-6.2-7.5c0-12.8,16.5-38.5,16.5-51.1c0-12.3-17.1-10.4-22.6-9.5
		c-0.8,0.1-1.2,0.9-0.9,1.6c3.8,10-16.4,51.3-16.4,64.8c0,12.2,7.4,19,19,19c12.6,0,22.1-7.5,29-16.3c1.9,9.8,8.9,16.3,20.1,16.3
		c8.9,0,17.7-4.5,24.6-10.6c0.9,11.5,14.3,11.1,19.7,10.5c0.9-0.1,1.5-1.1,1.2-1.9c-2.1-5.6,2.2-19.6,7.4-34.4
		c4.4-12.3,13.9-33.5,25-33.5c4.3,0,6.3,2.6,6.3,7.3c0,10.1-16.9,39.8-16.9,52.4c0,12,16,10.5,21.8,9.5c0.9-0.1,1.4-1.1,1-1.9
		c-2.3-5.8,2.7-19.9,8.1-33.7c5.2-12.6,12.8-33.4,24.2-33.4c3.6,0,5.9,2.4,5.9,6.1c0,10.1-13.9,30.2-13.9,43.9
		c0,11.4,7.4,19.7,20.3,19.7c10.8,0,21.3-5.3,29.3-13.4c2.6,8.1,9.4,13.4,19.3,13.4c11.3,0,24-7.6,31.6-16.1
		c2.3,10.2,9.9,16.1,21.1,16.1c9.6,0,20.3-5.9,28.3-13.7c2.6,8.3,9.6,13.7,19.7,13.7c12.2,0,26-6.8,35.9-15.7
		c2.4,10,9.9,15.7,21.1,15.7c10,0,21.8-6.5,30.4-14.8c2.1,9.1,9.1,14.8,19.9,14.8c9.6,0,17.8-5,24.4-12.1c-3.1,9.3-6,17.8-8.4,24.2
		c-31.2-3.4-66.3,4.7-66.3,29.5c0,13.8,13.2,21,28.8,21c23,0,38.6-13.1,49.9-31.6c11.2,4.7,19.9,12.3,21,22.5
		c0.1,1.1,1.2,1.8,2.3,1.4c3.8-1.3,12-5.5,12-15.3C848.6,431.2,836.9,423.1,821.1,418.3z M735.3,377.2c0-9,6.5-28.5,13.2-47.7
		c11.4-0.7,22.4-2.4,30.7-4c-2.1,11.7-11,34.2-13.8,48.5c-7,6.6-16.1,12.1-22.6,12.1C736.8,386.1,735.3,382.8,735.3,377.2z
		 M767,449.2c-5.6,0-10.2-3.2-10.2-8.5c0-11.3,19-15.3,38.2-12.5C788.7,439.5,779.1,449.2,767,449.2z"/>
	<path class="st1" d="M296.1,315.1c-11.3,0-20.3,5.3-27.3,11.9c1.4-3.7,2.7-6.9,3.8-9.5c1.9-4.4,3.9-9.3,6.1-14.2
		c31.1,5.3,66.4-0.9,66.4-25.2c0-15.2-15.4-23-31-23c-19.7,0-34.9,10.5-47,27.2c-10.3-5.5-18.1-13.5-18.6-23.8c0-0.6-0.5-1-1.1-0.9
		c-3.4,0.7-15.1,3.7-15.1,14.8c0,10.7,10.7,19.4,25.4,25.1c-3.1,6-6,12.5-8.7,19.4c-6.1,15.9-19.8,51.8-19.8,69.8
		c0,16.6,14.4,17.7,23.7,12.2c0.9-0.5,1.2-1.7,0.7-2.6c-1-1.9-1.6-4.7-1.6-7.3c0-19.7,15.7-58.1,33.8-58.1c4.8,0,7.3,3.2,7.3,8.3
		c0,11.7-17.7,45.4-17.7,59.5c0,10.7,5.7,18.1,16.8,18.1c7.2,0,12.5-3.4,15.3-5.6c0.8-0.6,0.4-1.9-0.6-2.1c-5.6-1.1-8-5.9-8-12.2
		c0-14,18.3-47.3,18.3-61.8C317.5,322.3,309.2,315.1,296.1,315.1z M312.4,269.3c6.3,0,10.8,3,10.8,8.7c0,11.6-18.4,14.8-37,11
		C293,277.9,301.4,269.3,312.4,269.3z"/>
	<g>
		<path class="st1" d="M341.1,431.4c-0.6-0.7-1.4-1.3-2.4-1.7c-0.9-0.4-2-0.6-3.2-0.6c-1.6,0-3.1,0.3-4.5,0.8
			c-1.3,0.6-2.6,1.4-3.8,2.5l-0.2,0.2l0.8,1.4c0.1,0.2,0.3,0.4,0.5,0.6c0.5,0.4,1.3,0.3,2-0.1c0.3-0.2,0.7-0.5,1.1-0.7
			c0.4-0.3,0.9-0.5,1.5-0.7c0.5-0.2,1.2-0.3,2.1-0.3c1.2,0,2.1,0.4,2.7,1.1c0.6,0.7,0.9,1.9,0.9,3.3v1.2c-2.1,0-4,0.2-5.5,0.6
			c-1.6,0.4-3,0.9-4,1.5c-1,0.6-1.8,1.3-2.3,2.1c-0.5,0.8-0.7,1.7-0.7,2.5c0,1,0.2,1.8,0.5,2.6c0.3,0.7,0.8,1.3,1.3,1.8
			c0.5,0.5,1.2,0.8,1.9,1.1c0.7,0.2,1.5,0.4,2.3,0.4c0.8,0,1.5-0.1,2.2-0.2c0.7-0.1,1.3-0.3,1.9-0.6c0.6-0.3,1.2-0.6,1.7-1
			c0.3-0.3,0.7-0.5,1.1-0.9l0.3,1.2c0.1,0.5,0.3,0.8,0.6,1c0.3,0.1,0.6,0.2,1,0.2h2v-13.4c0-1.2-0.2-2.3-0.5-3.3
			C342.2,433,341.7,432.2,341.1,431.4z M338.7,441.6v3.6c-0.4,0.4-0.7,0.7-1.1,1c-0.4,0.3-0.8,0.6-1.3,0.8c-0.4,0.2-0.9,0.4-1.4,0.5
			c-0.8,0.2-2,0.3-2.8,0c-0.3-0.1-0.6-0.3-0.9-0.5c-0.2-0.2-0.4-0.5-0.6-0.8c-0.2-0.3-0.2-0.7-0.2-1.2c0-0.5,0.1-0.9,0.4-1.3
			c0.3-0.4,0.8-0.8,1.4-1.1c0.7-0.3,1.6-0.6,2.7-0.8C336,441.7,337.2,441.6,338.7,441.6z"/>
		<path class="st1" d="M372.2,432c-0.7-0.9-1.6-1.6-2.6-2.1c-1-0.5-2.1-0.7-3.3-0.7c-1.5,0-2.9,0.3-4.1,1c-0.9,0.5-1.7,1.2-2.5,2
			l-0.2-1.6c-0.2-0.7-0.7-1-1.3-1h-2.5v28h4.4v-8.4c0.5,0.5,1.1,0.9,1.8,1.2c0.9,0.4,2.1,0.7,3.4,0.7c1.4,0,2.7-0.3,3.9-0.9
			c1.1-0.6,2.1-1.4,2.9-2.3c0.8-1,1.4-2.1,1.8-3.5c0.4-1.3,0.6-2.8,0.6-4.3c0-1.7-0.2-3.2-0.6-4.6
			C373.5,434.1,372.9,432.9,372.2,432z M369.9,440c0,2.4-0.5,4.3-1.4,5.5c-0.9,1.3-2.3,1.9-4,1.9c-0.9,0-1.7-0.2-2.4-0.5
			c-0.7-0.3-1.3-0.9-1.9-1.6v-9.6c0.7-0.9,1.4-1.6,2.2-2.1c0.8-0.5,1.8-0.7,2.9-0.7c0.8,0,1.4,0.1,2,0.4c0.6,0.3,1.1,0.6,1.5,1.2
			c0.4,0.6,0.7,1.3,0.9,2.2C369.8,437.6,369.9,438.7,369.9,440z"/>
		<path class="st1" d="M389.8,429.4c-0.5-0.1-1-0.2-1.6-0.2c-1.5,0-2.8,0.4-3.8,1.3c-0.8,0.6-1.4,1.4-2,2.3l-0.1-1.9
			c-0.1-0.4-0.2-0.8-0.4-1c-0.2-0.2-0.6-0.3-1.1-0.3h-2.4v21.1h4.4v-13.3c0.5-1.3,1.2-2.3,2-2.9c0.8-0.7,1.7-1,2.9-1
			c0.6,0,1.2,0.1,1.5,0.2c0.4,0.1,0.8,0.2,1,0.2c0.5,0,0.9-0.3,1-0.8l0.5-2.9l-0.2-0.1C390.7,429.7,390.3,429.5,389.8,429.4z"/>
		<path class="st1" d="M409.9,432.2c-0.9-0.9-1.9-1.7-3.2-2.2c-1.2-0.5-2.6-0.8-4.2-0.8c-1.5,0-2.9,0.3-4.2,0.8
			c-1.2,0.5-2.3,1.3-3.2,2.2c-0.9,0.9-1.6,2.1-2,3.4c-0.5,1.3-0.7,2.8-0.7,4.5c0,1.6,0.2,3.1,0.7,4.5c0.5,1.3,1.2,2.5,2,3.4
			c0.9,1,2,1.7,3.2,2.2c1.2,0.5,2.6,0.8,4.2,0.8s2.9-0.3,4.2-0.8c1.2-0.5,2.3-1.2,3.2-2.2c0.9-0.9,1.5-2.1,2-3.4
			c0.5-1.3,0.7-2.8,0.7-4.5c0-1.6-0.2-3.1-0.7-4.5C411.5,434.3,410.8,433.2,409.9,432.2z M408.1,440.1c0,2.3-0.5,4.1-1.4,5.4
			c-0.9,1.2-2.3,1.9-4.2,1.9c-1,0-1.8-0.2-2.5-0.5c-0.7-0.3-1.3-0.8-1.7-1.4c-0.5-0.6-0.8-1.4-1.1-2.3c-0.2-0.9-0.4-2-0.4-3.1
			c0-1.2,0.1-2.2,0.4-3.1c0.2-0.9,0.6-1.7,1.1-2.3c0.5-0.6,1-1.1,1.7-1.4c0.7-0.3,1.5-0.5,2.5-0.5c1.9,0,3.3,0.6,4.2,1.9
			C407.7,436,408.1,437.8,408.1,440.1z"/>
		<path class="st1" d="M430,429.8c-0.2,0.2-0.4,0.4-0.5,0.7l-5.2,13.1c-0.2,0.4-0.3,0.8-0.4,1.2c-0.1-0.4-0.2-0.8-0.4-1.2l-5.2-13.1
			c-0.1-0.3-0.3-0.5-0.5-0.7c-0.3-0.2-0.6-0.3-1-0.3h-3.5l8.6,21.1h3.8l8.6-21.1h-3.4C430.6,429.5,430.2,429.6,430,429.8z"/>
		<rect x="437.4" y="429.5" class="st1" width="4.4" height="21.1"/>
		<path class="st1" d="M441.3,421.5c-0.3-0.3-0.6-0.5-0.9-0.6c-0.7-0.3-1.6-0.3-2.3,0c-0.3,0.2-0.7,0.4-0.9,0.6
			c-0.3,0.3-0.5,0.6-0.6,1c-0.2,0.4-0.2,0.8-0.2,1.1c0,0.4,0.1,0.8,0.2,1.1c0.2,0.3,0.4,0.7,0.6,0.9c0.3,0.3,0.6,0.5,0.9,0.6
			c0.4,0.2,0.7,0.2,1.1,0.2c0.4,0,0.8-0.1,1.1-0.2c0.4-0.2,0.7-0.4,0.9-0.6c0.3-0.3,0.5-0.6,0.6-0.9c0.2-0.4,0.2-0.7,0.2-1.1
			c0-0.4-0.1-0.8-0.2-1.2C441.8,422.1,441.6,421.7,441.3,421.5z"/>
		<path class="st1" d="M459.4,440.2c-0.5-0.4-1.1-0.8-1.8-1.1c-0.6-0.3-1.3-0.5-2-0.7c-0.7-0.2-1.3-0.4-1.9-0.6
			c-0.6-0.2-1.2-0.4-1.6-0.6c-0.4-0.2-0.8-0.5-1.1-0.8c-0.2-0.3-0.4-0.6-0.4-1c0-0.3,0.1-0.7,0.2-1c0.2-0.3,0.4-0.6,0.7-0.8
			c0.3-0.2,0.7-0.4,1.1-0.6c1-0.3,2.3-0.3,3.2,0c0.5,0.1,0.9,0.3,1.3,0.5c0.4,0.2,0.7,0.3,0.9,0.5c0.9,0.5,1.6,0.3,2-0.4l1-1.6
			l-0.2-0.2c-0.8-0.8-1.8-1.4-2.9-1.8c-1.1-0.4-2.4-0.7-3.7-0.7c-1.2,0-2.3,0.2-3.2,0.5c-0.9,0.3-1.7,0.8-2.4,1.4
			c-0.7,0.6-1.2,1.3-1.5,2c-0.3,0.8-0.5,1.6-0.5,2.4c0,0.9,0.2,1.7,0.5,2.4c0.3,0.7,0.8,1.2,1.3,1.7c0.5,0.4,1.1,0.8,1.8,1.1
			c0.6,0.3,1.3,0.5,2,0.7c0.7,0.2,1.3,0.4,2,0.6c0.6,0.2,1.2,0.4,1.6,0.7c0.4,0.2,0.8,0.5,1.1,0.8c0.2,0.3,0.4,0.7,0.4,1.1
			c0,0.4-0.1,0.8-0.2,1.1c-0.1,0.3-0.4,0.6-0.7,0.9c-0.3,0.3-0.7,0.5-1.2,0.7c-0.5,0.2-1,0.2-1.7,0.2c-0.8,0-1.4-0.1-1.9-0.3
			c-0.5-0.2-1-0.4-1.3-0.6c-0.4-0.2-0.7-0.4-0.9-0.6c-0.7-0.5-1.4-0.4-1.8-0.2c-0.2,0.1-0.4,0.3-0.5,0.5l-1,1.6l0.2,0.2
			c0.8,0.7,1.9,1.4,3,1.9c1.2,0.5,2.5,0.7,4,0.7c1.3,0,2.4-0.2,3.4-0.5c1-0.4,1.9-0.8,2.5-1.5c0.7-0.6,1.2-1.4,1.6-2.2
			c0.4-0.8,0.5-1.8,0.5-2.8c0-0.9-0.2-1.6-0.5-2.3C460.3,441.1,459.9,440.6,459.4,440.2z"/>
		<rect x="465.8" y="429.5" class="st1" width="4.4" height="21.1"/>
		<path class="st1" d="M469.7,421.5c-0.3-0.3-0.6-0.5-0.9-0.6c-0.7-0.3-1.6-0.3-2.3,0c-0.3,0.2-0.7,0.4-0.9,0.6
			c-0.3,0.3-0.5,0.6-0.6,1c-0.2,0.4-0.2,0.8-0.2,1.1c0,0.4,0.1,0.8,0.2,1.1c0.2,0.3,0.4,0.7,0.6,0.9c0.3,0.3,0.6,0.5,0.9,0.6
			c0.4,0.2,0.7,0.2,1.1,0.2c0.4,0,0.8-0.1,1.1-0.2c0.4-0.2,0.7-0.4,0.9-0.6c0.3-0.3,0.5-0.6,0.6-0.9c0.2-0.4,0.2-0.7,0.2-1.1
			c0-0.4-0.1-0.8-0.2-1.2C470.2,422.1,470,421.7,469.7,421.5z"/>
		<path class="st1" d="M492,432.2c-0.9-0.9-1.9-1.7-3.2-2.2c-1.2-0.5-2.6-0.8-4.2-0.8c-1.5,0-2.9,0.3-4.2,0.8
			c-1.2,0.5-2.3,1.3-3.2,2.2c-0.9,0.9-1.6,2.1-2,3.4c-0.5,1.3-0.7,2.8-0.7,4.5c0,1.6,0.2,3.1,0.7,4.5c0.5,1.3,1.2,2.5,2,3.4
			c0.9,1,2,1.7,3.2,2.2c1.2,0.5,2.6,0.8,4.2,0.8c1.5,0,2.9-0.3,4.2-0.8c1.2-0.5,2.3-1.2,3.2-2.2c0.9-0.9,1.5-2.1,2-3.4
			c0.5-1.3,0.7-2.8,0.7-4.5c0-1.6-0.2-3.1-0.7-4.5C493.5,434.3,492.8,433.2,492,432.2z M490.2,440.1c0,2.3-0.5,4.1-1.4,5.4
			c-0.9,1.2-2.3,1.9-4.2,1.9c-1,0-1.8-0.2-2.5-0.5c-0.7-0.3-1.3-0.8-1.7-1.4c-0.5-0.6-0.8-1.4-1.1-2.3c-0.2-0.9-0.4-2-0.4-3.1
			c0-1.2,0.1-2.2,0.4-3.1c0.2-0.9,0.6-1.7,1.1-2.3c0.5-0.6,1-1.1,1.7-1.4c0.7-0.3,1.5-0.5,2.5-0.5c1.9,0,3.3,0.6,4.2,1.9
			C489.7,436,490.2,437.8,490.2,440.1z"/>
		<path class="st1" d="M514.5,431.5c-0.6-0.7-1.4-1.3-2.3-1.7c-0.9-0.4-1.9-0.6-3.1-0.6c-1.5,0-2.8,0.3-4,1
			c-0.9,0.5-1.7,1.1-2.5,1.8l-0.2-1.4c-0.2-0.7-0.7-1-1.3-1h-2.5v21.1h4.4v-15.2c0.7-0.8,1.5-1.4,2.3-1.9c0.9-0.5,1.8-0.7,2.8-0.7
			c1.3,0,2.3,0.4,2.9,1.1c0.6,0.8,1,1.9,1,3.3v13.3h4.4v-13.3c0-1.2-0.2-2.3-0.5-3.3C515.6,433.1,515.1,432.2,514.5,431.5z"/>
		<path class="st1" d="M533.1,440.2c-0.5-0.4-1.1-0.8-1.8-1.1c-0.6-0.3-1.3-0.5-2-0.7c-0.7-0.2-1.3-0.4-1.9-0.6
			c-0.6-0.2-1.2-0.4-1.6-0.6c-0.4-0.2-0.8-0.5-1.1-0.8c-0.2-0.3-0.4-0.6-0.4-1c0-0.3,0.1-0.7,0.2-1c0.2-0.3,0.4-0.6,0.7-0.8
			c0.3-0.2,0.7-0.4,1.1-0.6c1-0.3,2.3-0.3,3.2,0c0.5,0.1,0.9,0.3,1.3,0.5c0.4,0.2,0.7,0.3,0.9,0.5c0.9,0.5,1.6,0.3,2-0.4l1-1.6
			l-0.2-0.2c-0.8-0.8-1.8-1.4-2.9-1.8c-1.1-0.4-2.4-0.7-3.7-0.7c-1.2,0-2.3,0.2-3.2,0.5c-0.9,0.3-1.7,0.8-2.4,1.4
			c-0.7,0.6-1.2,1.3-1.5,2c-0.3,0.8-0.5,1.6-0.5,2.4c0,0.9,0.2,1.7,0.5,2.4c0.3,0.7,0.8,1.2,1.3,1.7c0.5,0.4,1.1,0.8,1.8,1.1
			c0.6,0.3,1.3,0.5,2,0.7c0.7,0.2,1.3,0.4,2,0.6c0.6,0.2,1.2,0.4,1.6,0.7c0.4,0.2,0.8,0.5,1.1,0.8c0.2,0.3,0.4,0.7,0.4,1.1
			c0,0.4-0.1,0.8-0.2,1.1c-0.1,0.3-0.4,0.6-0.7,0.9c-0.3,0.3-0.7,0.5-1.2,0.7c-0.5,0.2-1,0.2-1.7,0.2c-0.8,0-1.4-0.1-1.9-0.3
			c-0.5-0.2-1-0.4-1.3-0.6c-0.4-0.2-0.7-0.4-0.9-0.6c-0.7-0.5-1.4-0.4-1.8-0.2c-0.2,0.1-0.4,0.3-0.5,0.5l-1,1.6l0.2,0.2
			c0.8,0.7,1.9,1.4,3,1.9c1.2,0.5,2.5,0.7,4,0.7c1.3,0,2.4-0.2,3.4-0.5c1-0.4,1.9-0.8,2.5-1.5c0.7-0.6,1.2-1.4,1.6-2.2
			c0.4-0.8,0.5-1.8,0.5-2.8c0-0.9-0.2-1.6-0.5-2.3C534.1,441.1,533.6,440.6,533.1,440.2z"/>
		<path class="st1" d="M560.6,445.4c-0.3,0-0.7,0.1-1,0.4c-0.2,0.2-0.5,0.4-0.9,0.7c-0.3,0.2-0.8,0.5-1.3,0.6
			c-0.5,0.2-1.2,0.3-2,0.3c-0.8,0-1.6-0.2-2.3-0.5c-0.7-0.3-1.2-0.8-1.7-1.4c-0.5-0.6-0.8-1.4-1.1-2.3c-0.3-0.9-0.4-2-0.4-3.2
			c0-1.1,0.1-2.2,0.4-3.1c0.2-0.9,0.6-1.7,1.1-2.3c0.5-0.6,1.1-1.1,1.8-1.4c0.7-0.3,1.5-0.5,2.5-0.5c0.7,0,1.3,0.1,1.8,0.2
			c0.5,0.2,0.9,0.3,1.2,0.5c0.3,0.2,0.6,0.4,0.9,0.5c0.6,0.4,1.2,0.4,1.6,0.1c0.1-0.1,0.3-0.2,0.4-0.4l1.1-1.6l-0.2-0.2
			c-0.9-0.9-1.9-1.6-3-2c-1.1-0.5-2.5-0.7-3.9-0.7c-1.6,0-3,0.3-4.3,0.8c-1.2,0.5-2.3,1.3-3.1,2.3c-0.8,1-1.5,2.1-1.9,3.5
			c-0.4,1.3-0.7,2.8-0.7,4.3c0,1.7,0.2,3.2,0.7,4.6c0.5,1.3,1.1,2.5,2,3.4c0.8,0.9,1.8,1.6,3,2.1c1.1,0.5,2.4,0.7,3.7,0.7
			c1.5,0,3-0.3,4.3-0.8c1.4-0.5,2.6-1.4,3.5-2.5l0.2-0.2l-1.2-1.5C561.4,445.7,561.1,445.4,560.6,445.4z"/>
		<path class="st1" d="M581.9,432.2c-0.9-0.9-1.9-1.7-3.2-2.2c-1.2-0.5-2.6-0.8-4.2-0.8c-1.5,0-2.9,0.3-4.2,0.8
			c-1.2,0.5-2.3,1.3-3.2,2.2c-0.9,0.9-1.6,2.1-2,3.4c-0.5,1.3-0.7,2.8-0.7,4.5c0,1.6,0.2,3.1,0.7,4.5c0.5,1.3,1.2,2.5,2,3.4
			c0.9,1,2,1.7,3.2,2.2c1.2,0.5,2.6,0.8,4.2,0.8c1.5,0,2.9-0.3,4.2-0.8c1.2-0.5,2.3-1.2,3.2-2.2c0.9-0.9,1.5-2.1,2-3.4
			c0.5-1.3,0.7-2.8,0.7-4.5c0-1.6-0.2-3.1-0.7-4.5C583.4,434.3,582.8,433.2,581.9,432.2z M580.1,440.1c0,2.3-0.5,4.1-1.4,5.4
			c-0.9,1.2-2.3,1.9-4.2,1.9c-1,0-1.8-0.2-2.5-0.5c-0.7-0.3-1.3-0.8-1.7-1.4c-0.5-0.6-0.8-1.4-1.1-2.3c-0.2-0.9-0.4-2-0.4-3.1
			c0-1.2,0.1-2.2,0.4-3.1c0.2-0.9,0.6-1.7,1.1-2.3c0.5-0.6,1-1.1,1.7-1.4c0.7-0.3,1.5-0.5,2.5-0.5c1.9,0,3.3,0.6,4.2,1.9
			C579.6,436,580.1,437.8,580.1,440.1z"/>
		<path class="st1" d="M615,431.4c-0.6-0.7-1.4-1.2-2.3-1.6c-1.4-0.6-3.3-0.7-5.1-0.3c-0.7,0.2-1.3,0.4-1.9,0.8
			c-0.6,0.4-1.2,0.8-1.7,1.4c-0.3,0.3-0.5,0.7-0.8,1.1c-0.4-0.9-0.9-1.7-1.6-2.3c-0.9-0.8-2.1-1.2-3.6-1.2c-1.3,0-2.5,0.3-3.5,0.9
			c-0.7,0.5-1.4,1-2,1.7l-0.2-1.3c-0.2-0.7-0.7-1-1.3-1h-2.5v21.1h4.4v-15.4c0.6-0.7,1.2-1.3,1.9-1.7c0.7-0.4,1.4-0.6,2.2-0.6
			c1.1,0,2,0.3,2.6,1.1c0.6,0.7,0.9,1.9,0.9,3.4v13.3h4.4v-13.3c0-0.7,0.1-1.4,0.3-2c0.2-0.5,0.5-1,0.9-1.4c0.4-0.4,0.8-0.6,1.3-0.8
			c0.5-0.2,1-0.3,1.5-0.3c1.2,0,2.1,0.4,2.7,1.1c0.6,0.7,0.9,1.9,0.9,3.4v13.3h4.4v-13.3c0-1.3-0.2-2.4-0.5-3.4
			C616.1,432.9,615.6,432.1,615,431.4z"/>
		<path class="st1" d="M638.4,432c-0.7-0.9-1.6-1.6-2.6-2.1c-1-0.5-2.1-0.7-3.3-0.7c-1.5,0-2.9,0.3-4.1,1c-0.9,0.5-1.7,1.2-2.5,2
			l-0.2-1.6c-0.2-0.7-0.7-1-1.3-1h-2.5v28h4.4v-8.4c0.5,0.5,1.1,0.9,1.8,1.2c0.9,0.4,2.1,0.7,3.4,0.7c1.4,0,2.7-0.3,3.9-0.9
			c1.1-0.6,2.1-1.4,2.9-2.3c0.8-1,1.4-2.2,1.8-3.5c0.4-1.3,0.6-2.8,0.6-4.3c0-1.7-0.2-3.3-0.6-4.6
			C639.6,434.1,639.1,432.9,638.4,432z M636.1,440c0,2.4-0.5,4.3-1.4,5.5c-0.9,1.3-2.3,1.9-4,1.9c-0.9,0-1.7-0.2-2.4-0.5
			c-0.7-0.3-1.3-0.9-1.9-1.6v-9.6c0.7-0.9,1.4-1.6,2.2-2.1c0.8-0.5,1.8-0.7,2.9-0.7c0.8,0,1.4,0.1,2,0.4c0.6,0.3,1.1,0.6,1.5,1.2
			c0.4,0.6,0.7,1.3,0.9,2.2C636,437.6,636.1,438.7,636.1,440z"/>
		<path class="st1" d="M658.2,431.4c-0.6-0.7-1.4-1.3-2.4-1.7c-0.9-0.4-2-0.6-3.2-0.6c-1.6,0-3.1,0.3-4.5,0.8
			c-1.3,0.6-2.6,1.4-3.8,2.5l-0.2,0.2l0.8,1.4c0.1,0.2,0.3,0.4,0.5,0.6c0.5,0.4,1.3,0.3,2-0.1c0.3-0.2,0.7-0.5,1.1-0.7
			c0.4-0.3,0.9-0.5,1.5-0.7c0.5-0.2,1.2-0.3,2.1-0.3c1.2,0,2.1,0.4,2.7,1.1c0.6,0.7,0.9,1.9,0.9,3.3v1.2c-2.1,0-4,0.2-5.5,0.6
			c-1.6,0.4-3,0.9-4,1.5c-1,0.6-1.8,1.3-2.3,2.1c-0.5,0.8-0.7,1.7-0.7,2.5c0,1,0.2,1.8,0.5,2.6c0.3,0.7,0.8,1.3,1.3,1.8
			c0.5,0.5,1.2,0.8,1.9,1.1c0.7,0.2,1.5,0.4,2.3,0.4c0.8,0,1.5-0.1,2.2-0.2c0.7-0.1,1.3-0.3,1.9-0.6c0.6-0.3,1.2-0.6,1.7-1
			c0.3-0.3,0.7-0.5,1.1-0.9l0.3,1.2c0.1,0.5,0.3,0.8,0.6,1c0.3,0.1,0.6,0.2,1,0.2h2v-13.4c0-1.2-0.2-2.3-0.5-3.3
			C659.3,433,658.8,432.2,658.2,431.4z M655.8,441.6v3.6c-0.4,0.4-0.7,0.7-1.1,1c-0.4,0.3-0.8,0.6-1.3,0.8c-0.4,0.2-0.9,0.4-1.4,0.5
			c-0.8,0.2-2,0.3-2.8,0c-0.3-0.1-0.6-0.3-0.9-0.5c-0.2-0.2-0.4-0.5-0.6-0.8c-0.2-0.3-0.2-0.7-0.2-1.2c0-0.5,0.1-0.9,0.4-1.3
			c0.3-0.4,0.8-0.8,1.4-1.1c0.7-0.3,1.6-0.6,2.7-0.8C653.1,441.7,654.3,441.6,655.8,441.6z"/>
		<path class="st1" d="M680.9,431.5L680.9,431.5c-0.6-0.7-1.4-1.3-2.3-1.7c-0.9-0.4-1.9-0.6-3.1-0.6c-1.5,0-2.8,0.3-4,1
			c-0.9,0.5-1.7,1.1-2.5,1.8l-0.2-1.4c-0.2-0.7-0.7-1-1.3-1h-2.5v21.1h4.4v-15.2c0.7-0.8,1.5-1.4,2.3-1.9c0.9-0.5,1.8-0.7,2.8-0.7
			c1.3,0,2.3,0.4,2.9,1.1c0.6,0.8,1,1.9,1,3.3v13.3h4.4v-13.3c0-1.2-0.2-2.3-0.5-3.3C682,433.1,681.5,432.2,680.9,431.5z"/>
		<path class="st1" d="M701.9,429.5c-0.3,0-0.6,0.1-0.9,0.3c-0.3,0.2-0.4,0.4-0.5,0.7l-5.3,12.8c-0.1,0.2-0.1,0.4-0.2,0.5
			c-0.1-0.2-0.1-0.4-0.2-0.5l-5.4-12.8c-0.1-0.2-0.3-0.5-0.5-0.7c-0.2-0.2-0.6-0.3-1-0.3h-3.7l8.6,19.5l-3.9,8.5h3.3
			c0.5,0,0.8-0.1,1.1-0.3c0.2-0.2,0.4-0.5,0.6-0.8l11.6-26.9H701.9z"/>
		<path class="st1" d="M709.7,446.9c-0.1-0.4-0.4-0.7-0.6-0.9c-0.3-0.3-0.6-0.5-0.9-0.6c-0.7-0.3-1.6-0.3-2.3,0
			c-0.4,0.2-0.7,0.4-0.9,0.6c-0.3,0.3-0.5,0.6-0.6,0.9c-0.1,0.4-0.2,0.7-0.2,1.1c0,0.4,0.1,0.8,0.2,1.1c0.1,0.3,0.4,0.7,0.6,0.9
			c0.3,0.3,0.6,0.5,0.9,0.6c0.4,0.1,0.7,0.2,1.1,0.2c0.4,0,0.8-0.1,1.1-0.2c0.4-0.1,0.7-0.4,0.9-0.6c0.3-0.3,0.5-0.6,0.6-0.9
			c0.1-0.3,0.2-0.7,0.2-1.1C710,447.7,709.9,447.3,709.7,446.9z"/>
	</g>
</g>
</svg>
