<?xml version="1.0" encoding="utf-8"?>
<!-- Generator: Adobe Illustrator 21.1.0, SVG Export Plug-In . SVG Version: 6.00 Build 0)  -->
<svg version="1.1" id="Layer_1" xmlns="http://www.w3.org/2000/svg" xmlns:xlink="http://www.w3.org/1999/xlink" x="0px" y="0px"
	 viewBox="0 0 1080 720" style="enable-background:new 0 0 1080 720;" xml:space="preserve">
<style type="text/css">
	.st0{fill:#1A1A1A;}
	.st1{fill:#FFFFFF;}
	.st2{fill-rule:evenodd;clip-rule:evenodd;}
	.st3{fill:#231D2B;}
	.st4{fill:#060000;}
	.st5{clip-path:url(#SVGID_2_);}
	.st6{clip-path:url(#SVGID_4_);}
	.st7{clip-path:url(#SVGID_6_);}
	.st8{clip-path:url(#SVGID_8_);}
	.st9{clip-path:url(#SVGID_10_);}
	.st10{clip-path:url(#SVGID_12_);}
	.st11{clip-path:url(#SVGID_14_);}
	.st12{clip-path:url(#SVGID_16_);}
	.st13{clip-path:url(#SVGID_18_);}
	.st14{clip-path:url(#SVGID_20_);}
	.st15{clip-path:url(#SVGID_22_);}
	.st16{clip-path:url(#SVGID_24_);}
	.st17{clip-path:url(#SVGID_26_);}
	.st18{clip-path:url(#SVGID_28_);}
	.st19{clip-path:url(#SVGID_30_);}
	.st20{clip-path:url(#SVGID_32_);}
	.st21{clip-path:url(#SVGID_34_);}
	.st22{clip-path:url(#SVGID_36_);}
	.st23{clip-path:url(#SVGID_38_);}
	.st24{clip-path:url(#SVGID_40_);}
	.st25{clip-path:url(#SVGID_42_);}
	.st26{clip-path:url(#SVGID_44_);}
	.st27{clip-path:url(#SVGID_46_);}
	.st28{clip-path:url(#SVGID_48_);}
	.st29{clip-path:url(#SVGID_50_);}
	.st30{clip-path:url(#SVGID_52_);}
	.st31{clip-path:url(#SVGID_54_);}
	.st32{clip-path:url(#SVGID_56_);}
	.st33{clip-path:url(#SVGID_58_);}
	.st34{clip-path:url(#SVGID_60_);}
	.st35{clip-path:url(#SVGID_62_);}
	.st36{clip-path:url(#SVGID_64_);}
	.st37{clip-path:url(#SVGID_66_);}
	.st38{clip-path:url(#SVGID_68_);}
	.st39{clip-path:url(#SVGID_70_);}
	.st40{clip-path:url(#SVGID_72_);}
	.st41{clip-path:url(#SVGID_74_);}
	.st42{fill-rule:evenodd;clip-rule:evenodd;fill:#2B2D33;}
</style>
<g>
	<g>
		<path class="st0" d="M460.9,392c0-12.6,16.9-42.3,16.9-52.4c0-4.7-1.9-7.3-6.3-7.3c-11.1,0-20.6,21.2-25,33.5l-0.6-11.7
			c0,0,10.4-38.8,37.5-38.8c10.5,0,18.8,7.8,18.8,20c0,11-22.9,53.1-18.5,64.3c0.3,0.9-0.1,1.8-1,1.9
			C476.9,402.5,460.9,404,460.9,392z"/>
		<path class="st0" d="M391,316.9c-0.8,0.1-1.3,0.9-1.2,1.7c1.8,9-16.8,49.7-16.8,62c0,12.6,7.5,21.6,20.6,21.6
			c12.5,0,25-8.9,31.9-18.8l-2.2-10.3c-4.5,6.1-14,13.6-21.1,13.6c-4.7,0-6.7-2.4-6.7-7.8c0-11.8,17-43.6,17-55
			C412.6,313.8,396.5,315.9,391,316.9z"/>
		<path class="st0" d="M508,382.5c0,11.4,7.4,19.7,20.3,19.7c19.4,0,38.2-17.2,42.4-37.2l-1.2-8.8c-3.9,13.5-20.7,30.3-32.6,30.3
			c-4.8,0-6.6-3.4-6.6-7.9c0-11.5,15.5-32.8,15.5-45.7c0-11.4-7.7-17.6-19.2-17.6c-24.2,0-35.6,33.4-35.6,33.4l0.8,17.3
			c5.2-12.6,12.8-33.4,24.2-33.4c3.6,0,5.9,2.4,5.9,6.1C522,348.7,508,368.9,508,382.5z"/>
		<path class="st0" d="M437.9,402.1c0.9-0.1,1.5-1.1,1.2-1.9c-4.5-12.1,20.3-62.4,20.3-76.4c0-10.9-15.1-7.9-20.4-6.6
			c-0.8,0.2-1.3,1-1.2,1.9c2,9.8-19.8,55.7-19.8,71.4C418.1,403.2,432.3,402.7,437.9,402.1z"/>
		<path class="st0" d="M365.4,326.2c0,12.6-16.5,38.4-16.5,51.1c0,4.7,1.8,7.5,6.2,7.5c12.5,0,21.9-21.8,26.6-35.2l5.9,8.8
			c0,0-12.7,43.7-43,43.7c-11.6,0-19-6.8-19-19c0-13.5,20.2-54.8,16.4-64.8c-0.3-0.7,0.1-1.5,0.9-1.6
			C348.4,315.8,365.4,313.9,365.4,326.2z"/>
		<path class="st0" d="M636.5,275.7c-0.8,0.2-1.4,0.8-1.5,1.7c-1.1,22.7-27.2,82.5-27.2,101.8c0,14.5,8.3,23,21.9,23
			c17.5,0,38.7-19.6,40.3-34.8l-2.1-6.9c-2.1,10-18.6,25.2-30,25.2c-5.9,0-7.7-3.6-7.7-9.2c0-18.6,27.8-80,27.8-93.8
			C658.1,272.3,641.5,274.7,636.5,275.7z"/>
		<path class="st0" d="M742.2,274.2c-0.9,0.1-1.7,0.8-1.7,1.8c-1.3,22.5-27.7,83.9-27.7,103.2c0,14.5,8.3,23,21.9,23
			c17.4,0,40.5-19.9,42-34.2l-1.3-8.6c-2.1,10-21.3,26.6-32.6,26.6c-5.9,0-7.4-3.3-7.4-8.9c0-18.6,27.8-82.6,27.8-94.9
			C763,273,747.4,273.7,742.2,274.2z"/>
		<path class="st0" d="M604.6,292.2c0,6-6.5,12.1-12.5,12.1c-6,0-10.9-4.9-10.9-10.9c0-7,5.9-12.4,12.9-12.4
			C600.1,281,604.6,286.2,604.6,292.2z"/>
		<path class="st0" d="M703.9,292.2c0,7-5.5,12.1-12.5,12.1c-6,0-10.9-4.9-10.9-10.9c0-6,5.9-12.4,12.9-12.4
			C699.4,281,703.9,286.2,703.9,292.2z"/>
		<path class="st0" d="M574.6,317.5c-0.9,0.2-1.4,1.1-1.3,2c1.6,9.2-16.9,48.9-16.9,61.2c0,12.6,7.5,21.6,20.6,21.6
			c12.9,0,27.5-9.8,34.5-19.7l-1.8-10.5c-4.5,6.1-16,13.8-24,13.8c-4.7,0-6.7-2.4-6.7-7.8c0-12.5,16.6-43.3,16.6-54
			C595.7,313.1,580.1,316.1,574.6,317.5z"/>
		<path class="st0" d="M674.3,316.8c-0.9,0.2-1.5,1.1-1.3,2c1.9,9.5-16.2,49.5-16.2,61.8c0,12.6,7.9,21.6,20.9,21.6
			c15.4,0,33.2-10.7,42.6-22.8l-4.2-10.9c-4.3,8.2-19.7,17.3-30,17.3c-4.7,0-6.7-2.4-6.7-7.8c0-12.8,16-42.7,16-53.1
			C695.4,313.1,679.9,315.5,674.3,316.8z"/>
		<path class="st0" d="M790.9,313.8c7.2,0,11.7,3,11.7,9.1c0,11.3-15.6,43.6-15.6,55c0,5,2.2,7.6,6.9,7.6
			c15.5,0,25.8-28.4,30.5-45.9l0.5,23c-5.6,17.5-19.8,39.6-39.9,39.6c-13,0-20.6-8.3-20.6-20.9c0-15.4,19-57.5,14.5-62.9l15,3.7
			c0,0-28.1,7.6-55.4,7.6c-11.9,0-29.3,0.5-29.3-11.2c0-5.4,4-10.4,6.1-12.7c0.6-0.7,1.6-0.6,2.2,0.1
			C729,320.4,776.5,313.8,790.9,313.8z"/>
		<path class="st0" d="M850.5,324.5c0-12-16-8.4-21.5-6.7c-0.9,0.3-1.5,1.1-1.3,2c1.4,11.4-21.3,81.8-29.3,101.2
			c-5.8,14.1-16.8,28.3-31.4,28.3c-5.6,0-10.2-3.2-10.2-8.5c0-22.4,74.3-16.1,77.5,15.1c0.1,1.1,1.2,1.8,2.3,1.4
			c3.8-1.3,12-5.5,12-15.3c0-33.2-113.9-42.7-113.9,2c0,13.8,13.2,21,28.8,21c29.9,0,47.2-22,58.8-49.3
			C828.4,401,850.5,338.9,850.5,324.5z"/>
		<path class="st0" d="M252.3,389.1c0-19.7,15.7-58,33.8-58c4.8,0,7.3,3.2,7.3,8.3c0,11.7-17.7,45.4-17.7,59.5
			c0,10.7,5.7,18.1,16.8,18.1c7.2,0,12.5-3.4,15.3-5.6c0.8-0.6,0.4-1.9-0.6-2.1c-5.6-1.1-8-5.9-8-12.2c0-14,18.3-47.3,18.3-61.8
			c0-13-8.3-20.1-21.4-20.1c-30.7,0-45.1,39-45.1,39L252.3,389.1z"/>
		<path class="st0" d="M232.4,272.5c0,34.7,112.7,49,112.7,5.6c0-15.2-15.4-23-31-23c-31.2,0-51.2,26.2-64.9,61.9
			c-6.1,15.9-19.8,51.8-19.8,69.8c0,16.6,14.4,17.7,23.7,12.2c0.9-0.5,1.2-1.7,0.7-2.6c-1-1.9-1.6-4.7-1.6-7.3
			c0-19.3,13.9-56.3,20.4-71.6c8.3-19.8,19.8-48.2,39.8-48.2c6.3,0,10.8,3,10.8,8.7c0,23.1-73,12.8-74.7-19.5c0-0.6-0.5-1-1.1-0.9
			C244.1,258.4,232.4,261.4,232.4,272.5z"/>
	</g>
</g>
</svg>
