<?xml version="1.0" encoding="utf-8"?>
<!-- Generator: Adobe Illustrator 21.1.0, SVG Export Plug-In . SVG Version: 6.00 Build 0)  -->
<svg version="1.1" xmlns="http://www.w3.org/2000/svg" xmlns:xlink="http://www.w3.org/1999/xlink" x="0px" y="0px"
	 viewBox="0 0 1800 900" style="enable-background:new 0 0 1800 900;" xml:space="preserve">
<style type="text/css">
	.st0{display:none;}
	.st1{display:inline;fill-rule:evenodd;clip-rule:evenodd;}
	.st2{fill:#F3F3F3;}
	.st3{fill:#FFFCF8;}
	.st4{fill:#1A1A1A;}
	.st5{fill:#B9B9B9;}
	.st6{fill-rule:evenodd;clip-rule:evenodd;fill:#1A1A1A;}
	.st7{fill:#E6E7E8;}
	.st8{clip-path:url(#SVGID_2_);}
	.st9{clip-path:url(#SVGID_4_);}
	.st10{clip-path:url(#SVGID_6_);}
	.st11{clip-path:url(#SVGID_8_);}
	.st12{clip-path:url(#SVGID_10_);}
	.st13{clip-path:url(#SVGID_12_);}
	.st14{clip-path:url(#SVGID_14_);}
	.st15{clip-path:url(#SVGID_14_);fill:#1A1A1A;}
	.st16{clip-path:url(#SVGID_16_);}
	.st17{clip-path:url(#SVGID_18_);}
	.st18{clip-path:url(#SVGID_20_);}
	.st19{clip-path:url(#SVGID_22_);}
	.st20{clip-path:url(#SVGID_24_);}
	.st21{clip-path:url(#SVGID_26_);}
	.st22{clip-path:url(#SVGID_28_);}
	.st23{clip-path:url(#SVGID_30_);}
	.st24{clip-path:url(#SVGID_32_);}
	.st25{clip-path:url(#SVGID_34_);}
	.st26{clip-path:url(#SVGID_36_);}
	.st27{clip-path:url(#SVGID_38_);}
	.st28{clip-path:url(#SVGID_40_);}
	.st29{clip-path:url(#SVGID_42_);}
	.st30{clip-path:url(#SVGID_44_);}
	.st31{clip-path:url(#SVGID_46_);}
	.st32{clip-path:url(#SVGID_48_);}
	.st33{clip-path:url(#SVGID_48_);fill:#1A1A1A;}
	.st34{clip-path:url(#SVGID_50_);}
	.st35{clip-path:url(#SVGID_52_);}
	.st36{clip-path:url(#SVGID_54_);}
	.st37{clip-path:url(#SVGID_56_);}
	.st38{clip-path:url(#SVGID_58_);}
	.st39{clip-path:url(#SVGID_60_);}
	.st40{clip-path:url(#SVGID_62_);}
	.st41{clip-path:url(#SVGID_64_);}
	.st42{clip-path:url(#SVGID_66_);}
	.st43{clip-path:url(#SVGID_68_);}
	.st44{clip-path:url(#SVGID_70_);}
	.st45{clip-path:url(#SVGID_72_);}
	.st46{fill:#00A651;}
</style>
<g id="bg" class="st0">
</g>
<g id="Layer_1">
	<rect x="-19.2" y="-14.5" class="st2" width="1838.4" height="928.9"/>
	<g>
		<path class="st4" d="M996.1,340.2c11.1,0,23-11.2,23-22.3c0-11.1-8.3-20.7-19.4-20.7c-12.8,0-23.7,10.1-23.7,22.9
			C976,331.2,985,340.2,996.1,340.2z"/>
		<path class="st4" d="M1179,340.2c12.8,0,23-9.4,23-22.3c0-11.1-8.3-20.7-19.4-20.7c-12.8,0-23.7,11.8-23.7,22.9
			C1159,331.2,1167.9,340.2,1179,340.2z"/>
		<path class="st4" d="M1417.9,550.2c0.8-1.7,1.5-3.4,2.2-5.1c11.3-26.7,52.1-141.2,52.1-167.7c0-22.1-29.5-15.4-39.7-12.4
			c-1.6,0.5-2.7,2-2.5,3.6c0.7,5.8-2,20.1-6.6,38.5c-8.9,32.4-27.5,82.7-55.6,82.7c-8.6,0-12.7-4.8-12.7-14
			c0-21,28.8-80.5,28.8-101.3c0-11.2-8.2-16.7-21.5-16.7c-13.2,0-41.4,3-69.1,2.8c9.7-27.8,17.8-51.7,17.8-60.7
			c0-17.4-28.8-16-38.3-15c-1.7,0.2-3,1.5-3.1,3.3c-0.9,15.4-8.2,40.9-17.1,68.6c-11.2-2.6-20.4-6.7-25.6-13.2c-1-1.3-2.9-1.4-4-0.2
			c-3.9,4.2-11.2,13.5-11.2,23.4c0,14.5,14.7,18.8,31,20.1c-9.8,29.7-19.2,58.7-22.8,78.2c-11.3,13.1-34.4,25.4-50.7,25.4
			c-8.6,0-12.3-4.5-12.3-14.3c0-23.6,29.5-78.7,29.5-97.9c0-21.8-28.6-17.3-39-15c-1.7,0.4-2.7,2-2.4,3.7
			c3.1,15.7-23.4,76.8-28.9,105.5c-11,10.1-24.6,17.9-35.6,17.9c-10.9,0-14.2-6.7-14.2-17c0-34.3,51.2-147.3,51.2-172.9
			c0-19.2-30.5-14.7-39.8-12.9c-1.5,0.3-2.6,1.5-2.7,3c-1.8,38.4-42.6,134.4-49.2,177.5c-9.5,10.6-28.3,22.3-41.7,22.3
			c-8.6,0-12.3-4.5-12.3-14.3c0-23,30.6-79.7,30.6-99.6c0-20-28.7-14.6-38.9-12c-1.6,0.4-2.6,2-2.3,3.6
			c2.7,15.1-24.1,74.8-29.9,103.7c-11.7,11.6-25.6,20-37.1,20c-8.9,0-12.2-6.3-12.2-14.6c0-21.1,28.6-60.4,28.6-84.2
			c0-21.1-14.1-32.5-35.3-32.5c-20.2,0-35.6,12.7-46.3,26.5c-3.9-16.5-17.3-26.5-33.5-26.5c-19.6,0-34.4,11-45.2,24.4
			c0.7-3.5,1.1-6.5,1.1-8.9c0-20-27.8-14.6-37.5-12.1c-1.5,0.4-2.5,1.9-2.1,3.5c2.9,14-20.6,68-31.3,105
			c-9.1,9.9-23.4,19.7-34.3,19.7c-8.6,0-12.3-4.5-12.3-14.3c0-21.8,31.3-80.3,31.3-101.3c0-18.7-29.7-14.9-39.8-13
			c-1.5,0.3-2.4,1.7-2.1,3.1c1.7,8.6-6.6,32.8-15.1,57.3l0,0c-8.7,24.6-25.9,64.8-49,64.8c-8,0-11.4-5.2-11.4-13.9
			c0-23.5,30.4-71,30.4-94.2c0-22.6-31.4-19.2-41.6-17.5c-1.4,0.2-2.2,1.7-1.6,3c7,18.4-30.3,94.6-30.3,119.5
			c0,22.5,13.7,35.1,35.1,35.1c23.2,0,40.8-13.8,53.4-30c3.4,18,16.5,30,37,30c16.3,0,32.7-8.3,45.4-19.6
			c1.6,21.2,26.4,20.5,36.3,19.3c1.7-0.2,2.8-1.9,2.2-3.5c-3.9-10.4,4-36.2,13.6-63.3c8.1-22.6,25.6-61.7,46-61.7
			c8,0,11.6,4.8,11.6,13.4c0,18.6-31.1,73.3-31.1,96.5c0,22.1,29.5,19.3,40.2,17.6c1.7-0.3,2.5-2,1.9-3.6c-4.2-10.7,5.1-36.7,15-62
			c9.6-23.3,23.6-61.5,44.6-61.5c6.7,0,10.9,4.5,10.9,11.2c0,18.6-25.7,55.7-25.7,80.8c0,20.9,13.6,36.3,37.5,36.3
			c19.8,0,39.3-9.7,54-24.6c4.8,15,17.2,24.6,35.6,24.6c20.9,0,44.1-13.9,58.2-29.6c4.2,18.8,18.2,29.6,38.9,29.6
			c17.7,0,37.4-10.8,52.1-25.3c4.9,15.3,17.7,25.3,36.3,25.3c22.6,0,48-12.6,66.1-29c4.4,18.4,18.3,29,38.8,29
			c18.4,0,40.2-12,56-27.3c3.8,16.8,16.8,27.3,36.6,27.3c17.7,0,32.8-9.2,45-22.3c-5.6,17.1-11.1,32.8-15.4,44.5
			c-57.5-6.2-122.2,8.7-122.2,54.4c0,25.4,24.2,38.7,53,38.7c42.5,0,71.2-24.1,91.9-58.2c20.7,8.7,36.7,22.6,38.6,41.5
			c0.2,2.1,2.3,3.3,4.2,2.7c6.9-2.4,22.1-10.2,22.1-28.2C1468.5,574.1,1447.1,559,1417.9,550.2z M1259.8,474.5
			c0-16.5,11.9-52.5,24.3-87.9c21.1-1.3,41.3-4.4,56.6-7.4c-3.9,21.5-20.2,63-25.5,89.4c-12.8,12.1-29.6,22.3-41.7,22.3
			C1262.5,491,1259.8,484.9,1259.8,474.5z M1318.3,607.1c-10.4,0-18.9-5.9-18.9-15.7c0-20.9,35-28.2,70.3-23
			C1358.3,589.3,1340.6,607.1,1318.3,607.1z"/>
		<path class="st4" d="M450.7,360.1c-20.8,0-37.5,9.7-50.3,21.9c2.6-6.8,5-12.8,7.1-17.6c3.4-8.2,7.1-17.1,11.3-26.1
			C476,348.2,541,336.8,541,292c0-28-28.4-42.3-57.2-42.3c-36.3,0-64.4,19.3-86.5,50c-19-10.1-33.4-24.9-34.3-43.9
			c-0.1-1-1-1.8-2-1.6c-6.3,1.3-27.7,6.9-27.7,27.3c0,19.7,19.7,35.8,46.9,46.3c-5.8,11.1-11.1,23.1-16,35.8
			c-11.3,29.3-36.4,95.4-36.4,128.5c0,30.7,26.5,32.5,43.7,22.5c1.7-1,2.2-3.1,1.3-4.9c-1.9-3.6-2.9-8.7-2.9-13.4
			c0-36.4,28.9-107,62.4-107c8.9,0,13.4,5.8,13.4,15.3c0,21.6-32.7,83.7-32.7,109.6c0,19.8,10.5,33.3,31,33.3
			c13.2,0,23.1-6.3,28.2-10.3c1.5-1.2,0.8-3.5-1-3.8c-10.4-2-14.8-10.8-14.8-22.5c0-25.8,33.7-87.2,33.7-113.9
			C490,373.3,474.8,360.1,450.7,360.1z M480.7,275.6c11.5,0,19.9,5.5,19.9,16.1c0,21.4-34,27.3-68.2,20.3
			C444.9,291.6,460.4,275.6,480.7,275.6z"/>
		<g>
			<path class="st4" d="M533.5,574.4c-1.2-1.3-2.6-2.3-4.4-3.1c-1.7-0.7-3.7-1.1-5.9-1.1c-3,0-5.8,0.5-8.2,1.5
				c-2.5,1-4.8,2.6-6.9,4.6l-0.4,0.4l1.5,2.6c0.2,0.4,0.6,0.8,1,1.1c1,0.7,2.5,0.6,3.7-0.3c0.6-0.4,1.3-0.9,2-1.3
				c0.8-0.5,1.7-0.9,2.7-1.3c1-0.4,2.3-0.6,3.8-0.6c2.2,0,3.9,0.6,5,2c1.1,1.4,1.7,3.4,1.7,6.2v2.2c-4,0-7.4,0.4-10.2,1
				c-3,0.7-5.5,1.6-7.3,2.7c-1.9,1.1-3.3,2.4-4.2,3.9c-0.9,1.5-1.3,3-1.3,4.7c0,1.8,0.3,3.4,0.9,4.7c0.6,1.3,1.4,2.5,2.4,3.4
				c1,0.9,2.2,1.5,3.6,2c1.3,0.4,2.8,0.6,4.3,0.6c1.5,0,2.8-0.1,4-0.4c1.2-0.3,2.4-0.6,3.5-1.1c1.1-0.5,2.1-1.1,3.1-1.9
				c0.6-0.5,1.3-1,2-1.6l0.5,2.2c0.2,0.9,0.6,1.5,1.2,1.8c0.5,0.3,1.1,0.4,1.9,0.4h3.7v-24.7c0-2.2-0.3-4.2-0.9-6
				C535.6,577.3,534.7,575.7,533.5,574.4z M529.1,593.1v6.7c-0.6,0.7-1.3,1.3-2,1.8c-0.7,0.6-1.5,1.1-2.3,1.5
				c-0.8,0.4-1.7,0.7-2.6,0.9c-1.5,0.4-3.6,0.5-5.2,0c-0.6-0.2-1.2-0.5-1.6-0.9c-0.5-0.4-0.8-0.9-1.1-1.5c-0.3-0.6-0.4-1.4-0.4-2.3
				c0-0.9,0.3-1.7,0.8-2.4c0.5-0.7,1.4-1.4,2.6-2c1.3-0.6,3-1.1,5-1.4C524.1,593.3,526.4,593.1,529.1,593.1z"/>
			<path class="st4" d="M590.9,575.5c-1.3-1.7-2.9-3-4.7-3.9c-1.8-0.9-3.9-1.3-6.2-1.3c-2.8,0-5.3,0.6-7.5,1.9
				c-1.7,1-3.2,2.2-4.6,3.6l-0.4-2.9c-0.3-1.2-1.2-1.9-2.5-1.9h-4.7v51.6h8.1V607c1,0.9,2.1,1.6,3.3,2.2c1.7,0.8,3.8,1.2,6.2,1.2
				c2.6,0,5-0.5,7.1-1.6c2.1-1,3.9-2.5,5.3-4.3c1.4-1.8,2.5-4,3.3-6.4c0.8-2.4,1.1-5.1,1.1-7.9c0-3.1-0.3-6-1-8.4
				C593.2,579.2,592.2,577.1,590.9,575.5z M586.7,590.1c0,4.4-0.9,7.9-2.7,10.2c-1.7,2.3-4.2,3.4-7.4,3.4c-1.7,0-3.2-0.3-4.5-0.9
				c-1.3-0.6-2.5-1.6-3.5-3v-17.6c1.3-1.6,2.6-2.9,4.1-3.8c1.5-0.9,3.3-1.4,5.3-1.4c1.4,0,2.6,0.2,3.7,0.7c1.1,0.5,2,1.2,2.7,2.2
				c0.8,1,1.3,2.4,1.7,4C586.5,585.7,586.7,587.8,586.7,590.1z"/>
			<path class="st4" d="M623.3,570.6c-0.9-0.3-1.9-0.4-3-0.4c-2.7,0-5.1,0.8-7.1,2.4c-1.4,1.1-2.7,2.5-3.7,4.2l-0.3-3.5
				c-0.1-0.8-0.4-1.4-0.8-1.8c-0.4-0.4-1.1-0.6-2-0.6h-4.5v38.9h8.1v-24.4c1-2.4,2.2-4.2,3.6-5.4c1.4-1.2,3.1-1.8,5.3-1.8
				c1.2,0,2.1,0.1,2.8,0.3c0.8,0.3,1.4,0.4,1.8,0.4c0.9,0,1.6-0.5,1.9-1.5l0.9-5.4l-0.4-0.3C625,571.2,624.2,570.9,623.3,570.6z"/>
			<path class="st4" d="M660.3,575.8c-1.6-1.7-3.6-3.1-5.9-4.1c-2.3-0.9-4.9-1.4-7.7-1.4c-2.8,0-5.4,0.5-7.7,1.4
				c-2.3,0.9-4.3,2.3-5.9,4.1c-1.6,1.7-2.9,3.9-3.7,6.3c-0.9,2.5-1.3,5.2-1.3,8.2c0,3,0.4,5.8,1.3,8.2c0.9,2.4,2.1,4.6,3.7,6.3
				c1.6,1.8,3.6,3.1,5.9,4c2.3,0.9,4.9,1.4,7.7,1.4s5.4-0.5,7.7-1.4c2.3-0.9,4.3-2.3,5.9-4c1.6-1.7,2.8-3.9,3.7-6.3
				c0.8-2.4,1.3-5.2,1.3-8.2c0-3-0.4-5.8-1.3-8.2C663.2,579.7,661.9,577.6,660.3,575.8z M657,590.4c0,4.3-0.9,7.6-2.6,9.9
				c-1.7,2.3-4.2,3.4-7.7,3.4c-1.8,0-3.3-0.3-4.6-0.9c-1.3-0.6-2.3-1.4-3.2-2.5c-0.9-1.1-1.5-2.5-1.9-4.1c-0.4-1.7-0.7-3.6-0.7-5.8
				c0-2.1,0.2-4.1,0.7-5.8c0.4-1.7,1.1-3.1,1.9-4.2c0.9-1.1,1.9-2,3.2-2.6c1.3-0.6,2.8-0.9,4.6-0.9c3.5,0,6,1.1,7.7,3.4
				C656.2,582.8,657,586.1,657,590.4z"/>
			<path class="st4" d="M697.3,571.5c-0.4,0.3-0.8,0.8-1,1.3l-9.6,24.1c-0.3,0.8-0.5,1.5-0.7,2.3c-0.2-0.8-0.4-1.5-0.7-2.3
				l-9.5-24.1c-0.2-0.5-0.5-0.9-1-1.3c-0.5-0.4-1.1-0.6-1.8-0.6h-6.5l15.9,38.9h6.9l15.9-38.9H699
				C698.4,570.9,697.8,571.1,697.3,571.5z"/>
			<rect x="710.9" y="570.9" class="st4" width="8.1" height="38.9"/>
			<path class="st4" d="M718.1,556.1c-0.5-0.5-1.1-0.9-1.7-1.2c-1.3-0.6-2.9-0.6-4.2,0c-0.6,0.3-1.2,0.7-1.7,1.2
				c-0.5,0.5-0.9,1.1-1.2,1.8c-0.3,0.7-0.4,1.4-0.4,2.1c0,0.7,0.1,1.4,0.4,2.1c0.3,0.6,0.7,1.2,1.2,1.7c0.5,0.5,1.1,0.9,1.7,1.2
				c0.6,0.3,1.4,0.4,2.1,0.4c0.7,0,1.4-0.1,2.1-0.4c0.7-0.3,1.2-0.7,1.7-1.2c0.5-0.5,0.9-1.1,1.2-1.7c0.3-0.7,0.5-1.4,0.5-2.1
				c0-0.7-0.2-1.5-0.5-2.1C719,557.1,718.6,556.5,718.1,556.1z"/>
			<path class="st4" d="M751.5,590.5c-1-0.8-2.1-1.4-3.3-2c-1.2-0.5-2.4-1-3.6-1.4c-1.2-0.4-2.4-0.8-3.6-1.2c-1.1-0.3-2.1-0.7-3-1.2
				c-0.8-0.4-1.5-0.9-2-1.5c-0.4-0.5-0.7-1.1-0.7-1.9c0-0.6,0.1-1.2,0.4-1.8c0.3-0.6,0.7-1,1.2-1.5c0.5-0.4,1.2-0.8,2-1
				c1.8-0.6,4.3-0.5,5.9,0c0.9,0.3,1.7,0.6,2.3,0.9c0.7,0.3,1.2,0.6,1.7,0.9c1.6,0.9,3,0.5,3.6-0.7l1.8-2.9l-0.4-0.4
				c-1.5-1.4-3.3-2.5-5.3-3.3c-2-0.8-4.4-1.2-6.9-1.2c-2.2,0-4.2,0.3-5.9,0.9c-1.7,0.6-3.2,1.5-4.4,2.5c-1.2,1.1-2.1,2.3-2.8,3.7
				c-0.6,1.4-1,2.9-1,4.4c0,1.7,0.3,3.2,0.9,4.4c0.6,1.2,1.4,2.2,2.4,3.1c1,0.8,2.1,1.5,3.3,2c1.2,0.5,2.4,1,3.7,1.4
				c1.2,0.4,2.4,0.8,3.6,1.1c1.1,0.3,2.1,0.7,3,1.2c0.8,0.4,1.5,1,2,1.6c0.4,0.5,0.7,1.2,0.7,2.1c0,0.7-0.1,1.4-0.4,2.1
				c-0.3,0.6-0.7,1.2-1.2,1.7c-0.6,0.5-1.3,0.9-2.2,1.2c-0.9,0.3-1.9,0.5-3.1,0.5c-1.4,0-2.6-0.2-3.5-0.5c-1-0.3-1.8-0.7-2.4-1.1
				c-0.7-0.4-1.3-0.8-1.7-1.1c-1.2-0.9-2.5-0.8-3.3-0.3c-0.4,0.2-0.7,0.6-0.9,1l-1.9,3l0.5,0.4c1.5,1.4,3.4,2.5,5.6,3.4
				c2.2,0.9,4.7,1.3,7.4,1.3c2.4,0,4.5-0.3,6.3-1c1.8-0.6,3.4-1.5,4.7-2.7c1.3-1.1,2.3-2.5,2.9-4.1c0.6-1.5,1-3.3,1-5.1
				c0-1.6-0.3-3-0.9-4.2C753.2,592.3,752.4,591.3,751.5,590.5z"/>
			<rect x="763.2" y="570.9" class="st4" width="8.1" height="38.9"/>
			<path class="st4" d="M770.5,556.1c-0.5-0.5-1.1-0.9-1.7-1.2c-1.3-0.6-2.9-0.6-4.2,0c-0.6,0.3-1.2,0.7-1.7,1.2
				c-0.5,0.5-0.9,1.1-1.2,1.8c-0.3,0.7-0.4,1.4-0.4,2.1c0,0.7,0.1,1.4,0.4,2.1c0.3,0.6,0.7,1.2,1.2,1.7c0.5,0.5,1.1,0.9,1.7,1.2
				c0.6,0.3,1.4,0.4,2.1,0.4c0.7,0,1.4-0.1,2.1-0.4c0.7-0.3,1.2-0.7,1.7-1.2c0.5-0.5,0.9-1.1,1.2-1.7c0.3-0.7,0.5-1.4,0.5-2.1
				c0-0.7-0.2-1.5-0.5-2.1C771.3,557.1,770.9,556.5,770.5,556.1z"/>
			<path class="st4" d="M811.5,575.8c-1.6-1.7-3.6-3.1-5.9-4.1c-2.3-0.9-4.9-1.4-7.7-1.4c-2.8,0-5.4,0.5-7.7,1.4
				c-2.3,0.9-4.3,2.3-5.9,4.1c-1.6,1.7-2.9,3.9-3.7,6.3c-0.9,2.5-1.3,5.2-1.3,8.2c0,3,0.4,5.8,1.3,8.2c0.9,2.4,2.1,4.6,3.7,6.3
				c1.6,1.8,3.6,3.1,5.9,4c2.3,0.9,4.9,1.4,7.7,1.4c2.8,0,5.4-0.5,7.7-1.4c2.3-0.9,4.3-2.3,5.9-4c1.6-1.7,2.8-3.9,3.7-6.3
				c0.8-2.4,1.3-5.2,1.3-8.2c0-3-0.4-5.8-1.3-8.2C814.4,579.7,813.1,577.6,811.5,575.8z M808.2,590.4c0,4.3-0.9,7.6-2.6,9.9
				c-1.7,2.3-4.2,3.4-7.7,3.4c-1.8,0-3.3-0.3-4.6-0.9c-1.3-0.6-2.3-1.4-3.2-2.5c-0.9-1.1-1.5-2.5-1.9-4.1c-0.4-1.7-0.7-3.6-0.7-5.8
				c0-2.1,0.2-4.1,0.7-5.8c0.4-1.7,1.1-3.1,1.9-4.2c0.8-1.1,1.9-2,3.2-2.5c1.3-0.6,2.8-0.9,4.6-0.9c3.5,0,6,1.1,7.7,3.4
				C807.4,582.8,808.2,586.1,808.2,590.4z"/>
			<path class="st4" d="M853.1,574.5c-1.1-1.3-2.5-2.4-4.2-3.1c-1.7-0.7-3.6-1.1-5.7-1.1c-2.7,0-5.2,0.6-7.3,1.8
				c-1.6,0.9-3.2,2-4.6,3.4l-0.3-2.6c-0.3-1.2-1.2-1.9-2.5-1.9h-4.7v38.9h8.1v-28c1.3-1.4,2.8-2.6,4.3-3.4c1.6-0.9,3.3-1.3,5.1-1.3
				c2.5,0,4.2,0.7,5.4,2.1c1.2,1.4,1.8,3.5,1.8,6.1v24.6h8.1v-24.6c0-2.2-0.3-4.2-0.8-6C855,577.4,854.2,575.8,853.1,574.5z"/>
			<path class="st4" d="M887.3,590.5c-1-0.8-2.1-1.4-3.3-2c-1.2-0.5-2.4-1-3.6-1.4c-1.2-0.4-2.4-0.8-3.6-1.2c-1.1-0.3-2.1-0.7-3-1.2
				c-0.8-0.4-1.5-0.9-2-1.5c-0.4-0.5-0.7-1.1-0.7-1.9c0-0.6,0.1-1.2,0.4-1.8c0.3-0.6,0.7-1,1.2-1.5c0.5-0.4,1.2-0.8,2-1
				c1.8-0.6,4.3-0.5,5.9,0c0.9,0.3,1.7,0.6,2.3,0.9c0.7,0.3,1.2,0.6,1.7,0.9c1.6,0.9,3,0.5,3.6-0.7l1.8-2.9l-0.4-0.4
				c-1.5-1.4-3.3-2.5-5.3-3.3c-2-0.8-4.4-1.2-6.9-1.2c-2.2,0-4.2,0.3-5.9,0.9c-1.7,0.6-3.2,1.5-4.4,2.5c-1.2,1.1-2.1,2.3-2.8,3.7
				c-0.6,1.4-1,2.9-1,4.4c0,1.7,0.3,3.2,0.9,4.4c0.6,1.2,1.4,2.2,2.4,3.1c1,0.8,2.1,1.5,3.3,2c1.2,0.5,2.4,1,3.7,1.4
				c1.2,0.4,2.4,0.8,3.6,1.1c1.1,0.3,2.1,0.7,3,1.2c0.8,0.4,1.5,1,2,1.6c0.4,0.5,0.7,1.2,0.7,2.1c0,0.7-0.1,1.4-0.4,2.1
				c-0.3,0.6-0.7,1.2-1.2,1.7c-0.6,0.5-1.3,0.9-2.2,1.2c-0.9,0.3-1.9,0.5-3.1,0.5c-1.4,0-2.6-0.2-3.5-0.5c-1-0.3-1.8-0.7-2.4-1.1
				c-0.7-0.4-1.3-0.8-1.7-1.1c-1.2-0.9-2.5-0.8-3.3-0.3c-0.4,0.2-0.7,0.6-0.9,1l-1.9,3l0.5,0.4c1.5,1.4,3.4,2.5,5.6,3.4
				c2.2,0.9,4.7,1.3,7.4,1.3c2.4,0,4.5-0.3,6.3-1c1.8-0.6,3.4-1.5,4.7-2.7c1.3-1.1,2.3-2.5,2.9-4.1c0.6-1.5,1-3.3,1-5.1
				c0-1.6-0.3-3-0.9-4.2C889.1,592.3,888.3,591.3,887.3,590.5z"/>
			<path class="st4" d="M937.9,600.1c-0.6,0-1.2,0.3-1.8,0.8c-0.4,0.4-0.9,0.8-1.6,1.2c-0.6,0.4-1.5,0.8-2.4,1.2
				c-0.9,0.4-2.2,0.5-3.7,0.5c-1.6,0-3-0.3-4.2-0.9c-1.2-0.6-2.3-1.4-3.2-2.5c-0.9-1.1-1.6-2.5-2-4.2c-0.5-1.7-0.7-3.6-0.7-5.8
				c0-2.1,0.2-4,0.7-5.7c0.4-1.6,1.1-3.1,2-4.2c0.9-1.1,2-2,3.3-2.6c1.3-0.6,2.8-0.9,4.5-0.9c1.3,0,2.4,0.1,3.3,0.4
				c0.9,0.3,1.7,0.6,2.3,1c0.6,0.4,1.2,0.7,1.6,1c1.1,0.8,2.3,0.7,2.9,0.2c0.3-0.2,0.5-0.4,0.7-0.8l2.1-2.9l-0.4-0.4
				c-1.6-1.6-3.5-2.9-5.6-3.8c-2.1-0.9-4.5-1.3-7.2-1.3c-2.9,0-5.6,0.5-7.8,1.5c-2.3,1-4.2,2.4-5.8,4.2c-1.5,1.8-2.7,3.9-3.5,6.4
				c-0.8,2.4-1.2,5.1-1.2,8c0,3.1,0.4,6,1.3,8.4c0.9,2.5,2.1,4.6,3.6,6.3c1.5,1.7,3.4,3,5.5,3.9c2.1,0.9,4.4,1.4,6.8,1.4
				c2.8,0,5.5-0.5,8-1.4c2.5-1,4.7-2.5,6.4-4.6l0.4-0.5l-2.2-2.8C939.5,600.6,938.9,600.1,937.9,600.1z"/>
			<path class="st4" d="M977.2,575.8c-1.6-1.7-3.6-3.1-5.9-4.1c-2.3-0.9-4.9-1.4-7.7-1.4c-2.8,0-5.4,0.5-7.7,1.4
				c-2.3,0.9-4.3,2.3-5.9,4.1c-1.6,1.7-2.9,3.9-3.7,6.3c-0.9,2.5-1.3,5.2-1.3,8.2c0,3,0.4,5.8,1.3,8.2c0.9,2.4,2.1,4.6,3.7,6.3
				c1.6,1.8,3.6,3.1,5.9,4c2.3,0.9,4.9,1.4,7.7,1.4c2.8,0,5.4-0.5,7.7-1.4c2.3-0.9,4.3-2.3,5.9-4c1.6-1.7,2.8-3.9,3.7-6.3
				c0.8-2.4,1.3-5.2,1.3-8.2c0-3-0.4-5.8-1.3-8.2C980,579.7,978.8,577.6,977.2,575.8z M973.9,590.4c0,4.3-0.9,7.6-2.6,9.9
				c-1.7,2.3-4.2,3.4-7.7,3.4c-1.8,0-3.3-0.3-4.6-0.9c-1.3-0.6-2.3-1.4-3.2-2.5c-0.9-1.1-1.5-2.5-1.9-4.1c-0.4-1.7-0.7-3.6-0.7-5.8
				c0-2.1,0.2-4.1,0.7-5.8c0.4-1.7,1.1-3.1,1.9-4.2c0.8-1.1,1.9-2,3.2-2.5c1.3-0.6,2.8-0.9,4.6-0.9c3.5,0,6,1.1,7.7,3.4
				C973,582.8,973.9,586.1,973.9,590.4z"/>
			<path class="st4" d="M1038.2,574.3c-1.1-1.3-2.5-2.3-4.2-2.9c-2.6-1.1-6.1-1.3-9.4-0.5c-1.3,0.3-2.5,0.8-3.6,1.5
				c-1.1,0.7-2.1,1.6-3,2.6c-0.5,0.6-1,1.3-1.4,2c-0.7-1.7-1.7-3.2-3-4.3c-1.7-1.5-3.9-2.3-6.6-2.3c-2.4,0-4.5,0.6-6.4,1.7
				c-1.3,0.8-2.6,1.9-3.7,3.1l-0.3-2.3c-0.3-1.2-1.2-1.9-2.5-1.9h-4.7v38.9h8.1v-28.4c1.1-1.3,2.2-2.4,3.5-3.2
				c1.3-0.8,2.7-1.2,4.1-1.2c2.1,0,3.6,0.6,4.7,1.9c1.1,1.3,1.6,3.4,1.6,6.3v24.6h8.1v-24.6c0-1.4,0.2-2.6,0.6-3.6
				c0.4-1,0.9-1.9,1.6-2.5c0.7-0.7,1.4-1.2,2.3-1.5c0.9-0.3,1.8-0.5,2.8-0.5c2.2,0,3.9,0.7,5,2c1.2,1.4,1.7,3.5,1.7,6.2v24.6h8.1
				v-24.6c0-2.3-0.3-4.4-0.9-6.3C1040.2,577.1,1039.3,575.6,1038.2,574.3z"/>
			<path class="st4" d="M1081.3,575.5c-1.3-1.7-2.9-3-4.7-3.9c-1.8-0.9-3.9-1.3-6.2-1.3c-2.8,0-5.3,0.6-7.5,1.9
				c-1.7,1-3.2,2.2-4.6,3.6l-0.4-2.9c-0.3-1.2-1.2-1.9-2.5-1.9h-4.7v51.6h8.1V607c1,0.9,2.1,1.6,3.3,2.2c1.7,0.8,3.8,1.2,6.2,1.2
				c2.6,0,5-0.5,7.1-1.6c2.1-1,3.9-2.5,5.3-4.3c1.4-1.8,2.5-4,3.3-6.4c0.8-2.4,1.1-5.1,1.1-7.9c0-3.1-0.3-6-1-8.4
				C1083.6,579.2,1082.6,577.1,1081.3,575.5z M1077,590.1c0,4.4-0.9,7.9-2.7,10.2c-1.7,2.3-4.2,3.4-7.4,3.4c-1.7,0-3.2-0.3-4.5-0.9
				c-1.3-0.6-2.5-1.6-3.5-3v-17.6c1.3-1.6,2.6-2.9,4.1-3.8c1.5-0.9,3.3-1.4,5.3-1.4c1.4,0,2.6,0.2,3.7,0.7c1.1,0.5,2,1.2,2.7,2.2
				c0.8,1,1.3,2.4,1.7,4C1076.8,585.7,1077,587.8,1077,590.1z"/>
			<path class="st4" d="M1117.7,574.4c-1.2-1.3-2.6-2.3-4.4-3.1c-1.7-0.7-3.7-1.1-5.9-1.1c-3,0-5.8,0.5-8.2,1.5
				c-2.5,1-4.8,2.6-6.9,4.6l-0.4,0.4l1.5,2.6c0.2,0.4,0.6,0.8,1,1.1c1,0.7,2.5,0.6,3.7-0.3c0.6-0.4,1.3-0.9,2-1.3
				c0.8-0.5,1.7-0.9,2.7-1.3c1-0.4,2.3-0.6,3.8-0.6c2.2,0,3.9,0.6,5,2c1.1,1.4,1.7,3.4,1.7,6.2v2.2c-4,0-7.4,0.4-10.2,1
				c-3,0.7-5.5,1.6-7.3,2.7c-1.9,1.1-3.3,2.4-4.2,3.9c-0.9,1.5-1.3,3-1.3,4.7c0,1.8,0.3,3.4,0.9,4.7c0.6,1.3,1.4,2.5,2.4,3.4
				c1,0.9,2.2,1.5,3.6,2c1.3,0.4,2.8,0.6,4.3,0.6c1.5,0,2.8-0.1,4-0.4c1.2-0.3,2.4-0.6,3.5-1.1c1.1-0.5,2.1-1.1,3.1-1.9
				c0.6-0.5,1.3-1,2-1.6l0.5,2.2c0.2,0.9,0.6,1.5,1.2,1.8c0.5,0.3,1.1,0.4,1.9,0.4h3.7v-24.7c0-2.2-0.3-4.2-0.9-6
				C1119.7,577.3,1118.9,575.7,1117.7,574.4z M1113.3,593.1v6.7c-0.6,0.7-1.3,1.3-2,1.8c-0.7,0.6-1.5,1.1-2.3,1.5
				c-0.8,0.4-1.7,0.7-2.6,0.9c-1.5,0.4-3.6,0.5-5.2,0c-0.6-0.2-1.2-0.5-1.6-0.9c-0.5-0.4-0.8-0.9-1.1-1.5c-0.3-0.6-0.4-1.4-0.4-2.3
				c0-0.9,0.3-1.7,0.8-2.4c0.5-0.7,1.4-1.4,2.6-2c1.3-0.6,2.9-1.1,5-1.4C1108.3,593.3,1110.6,593.1,1113.3,593.1z"/>
			<path class="st4" d="M1159.6,574.5L1159.6,574.5c-1.1-1.3-2.5-2.4-4.2-3.1c-1.7-0.7-3.6-1.1-5.7-1.1c-2.7,0-5.2,0.6-7.3,1.8
				c-1.6,0.9-3.2,2-4.6,3.4l-0.3-2.6c-0.3-1.2-1.2-1.9-2.5-1.9h-4.7v38.9h8.1v-28c1.3-1.4,2.8-2.6,4.3-3.4c1.6-0.9,3.3-1.3,5.1-1.3
				c2.5,0,4.2,0.7,5.4,2.1c1.2,1.4,1.8,3.5,1.8,6.1v24.6h8.1v-24.6c0-2.2-0.3-4.2-0.8-6C1161.6,577.4,1160.8,575.8,1159.6,574.5z"/>
			<path class="st4" d="M1198.3,570.9c-0.6,0-1.1,0.2-1.6,0.5c-0.5,0.3-0.8,0.8-1,1.3l-9.7,23.6c-0.1,0.3-0.3,0.7-0.4,1
				c-0.1-0.3-0.2-0.7-0.4-1l-10-23.6c-0.2-0.4-0.5-0.9-0.9-1.2c-0.5-0.4-1.1-0.6-1.8-0.6h-6.8l15.8,36l-7.2,15.6h6
				c0.9,0,1.6-0.2,2-0.6c0.4-0.4,0.7-0.8,1-1.4l21.3-49.5H1198.3z"/>
			<path class="st4" d="M1212.7,602.9c-0.3-0.7-0.7-1.2-1.1-1.7c-0.5-0.5-1.1-0.9-1.7-1.2c-1.3-0.6-2.9-0.6-4.2,0
				c-0.7,0.3-1.2,0.7-1.7,1.2c-0.5,0.5-0.8,1.1-1.1,1.7c-0.3,0.7-0.4,1.4-0.4,2.1c0,0.8,0.1,1.5,0.4,2.1c0.3,0.6,0.6,1.2,1.1,1.7
				c0.5,0.5,1.1,0.9,1.7,1.1c0.7,0.3,1.4,0.4,2.1,0.4c0.7,0,1.4-0.1,2.1-0.4c0.6-0.3,1.2-0.7,1.7-1.1c0.5-0.5,0.9-1,1.1-1.7
				c0.3-0.6,0.4-1.4,0.4-2.1C1213.1,604.3,1213,603.6,1212.7,602.9z"/>
		</g>
	</g>
</g>
</svg>
