<?xml version="1.0" encoding="utf-8"?>
<!-- Generator: Adobe Illustrator 21.1.0, SVG Export Plug-In . SVG Version: 6.00 Build 0)  -->
<svg version="1.1" id="Layer_1" xmlns="http://www.w3.org/2000/svg" xmlns:xlink="http://www.w3.org/1999/xlink" x="0px" y="0px"
	 viewBox="0 0 1080 720" style="enable-background:new 0 0 1080 720;" xml:space="preserve">
<style type="text/css">
	.st0{fill:#1A1A1A;}
	.st1{fill:#FFFFFF;}
	.st2{fill-rule:evenodd;clip-rule:evenodd;}
	.st3{fill:#231D2B;}
	.st4{fill:#060000;}
	.st5{clip-path:url(#SVGID_2_);}
	.st6{clip-path:url(#SVGID_4_);}
	.st7{clip-path:url(#SVGID_6_);}
	.st8{clip-path:url(#SVGID_8_);}
	.st9{clip-path:url(#SVGID_10_);}
	.st10{clip-path:url(#SVGID_12_);}
	.st11{clip-path:url(#SVGID_14_);}
	.st12{clip-path:url(#SVGID_16_);}
	.st13{clip-path:url(#SVGID_18_);}
	.st14{clip-path:url(#SVGID_20_);}
	.st15{clip-path:url(#SVGID_22_);}
	.st16{clip-path:url(#SVGID_24_);}
	.st17{clip-path:url(#SVGID_26_);}
	.st18{clip-path:url(#SVGID_28_);}
	.st19{clip-path:url(#SVGID_30_);}
	.st20{clip-path:url(#SVGID_32_);}
	.st21{clip-path:url(#SVGID_34_);}
	.st22{clip-path:url(#SVGID_36_);}
	.st23{clip-path:url(#SVGID_38_);}
	.st24{clip-path:url(#SVGID_40_);}
	.st25{clip-path:url(#SVGID_42_);}
	.st26{clip-path:url(#SVGID_44_);}
	.st27{clip-path:url(#SVGID_46_);}
	.st28{clip-path:url(#SVGID_48_);}
	.st29{clip-path:url(#SVGID_50_);}
	.st30{clip-path:url(#SVGID_52_);}
	.st31{clip-path:url(#SVGID_54_);}
	.st32{clip-path:url(#SVGID_56_);}
	.st33{clip-path:url(#SVGID_58_);}
	.st34{clip-path:url(#SVGID_60_);}
	.st35{clip-path:url(#SVGID_62_);}
	.st36{clip-path:url(#SVGID_64_);}
	.st37{clip-path:url(#SVGID_66_);}
	.st38{clip-path:url(#SVGID_68_);}
	.st39{clip-path:url(#SVGID_70_);}
	.st40{clip-path:url(#SVGID_72_);}
	.st41{clip-path:url(#SVGID_74_);}
	.st42{fill-rule:evenodd;clip-rule:evenodd;fill:#2B2D33;}
</style>
<path class="st0" d="M765.7,366.6c-0.4,17.5-29.7,58.3-48.9,63.5c-0.1,0-0.2,0-0.3-0.1c-2.5-5.5-4.3-12.9-4.3-22.5
	c0-4.3,0.4-10.7,1.2-18.5c0-0.2,0.2-0.3,0.4-0.2c3.8,2,8.8,3.5,13.7,3.5c24,0,42.1-52.1,42.1-80.5c0-17.3-27.8-31-43.5-31
	c-18.7,0-29.3,30.7-34.9,62.6l0,0c-2.4,14.1-10.5,32.4-21.4,46.7c-0.2,0.2-0.5,0-0.4-0.2c7-26.3,9.8-58.2,9.8-73
	c0-13.3-23.1-28-36.5-28c-20,0-36.5,61.7-41.2,94.2c0,0.3-0.5,0.3-0.5,0c-0.3-14.4-0.1-28.9,0.5-42.5c0,0,0-0.1,0-0.1
	c8.9-21.4,22-54.6,22-63.5c0-6.9-16.9-18-24-18c-14.6,0-22,45.6-23.7,95.1c0,0,0,0.1,0,0.1c-3.5,6.6-8.4,14.8-14.1,23.7
	c-0.1,0.2-0.5,0.1-0.5-0.1c1.5-30.7,1.2-58.6,1.2-68.9c0-13.6-19.3-20.3-30.5-19.8c0,0,0,0,0,0c0,14.9-20.9,106.1-35.8,119.2
	c-0.1,0.1-0.4,0-0.4-0.1c-0.5-2.4-0.7-5.1-0.7-8.2c0-15.2,10.4-98.1,10.4-108.7c0-9-18.4-10.1-27.8-10.1c-0.1,0-0.2,0.1-0.2,0.2
	c0,3.2-0.5,11.3-1.3,21.7c0,0.1-0.1,0.2-0.2,0.2c-4.5,0.2-12.7,0.6-22.4,1.6c-0.2,0-0.3-0.1-0.3-0.3c3.1-19.3,5.5-35.6,5.5-42.6
	c0-12.1-16.7-16.8-26.8-17c-0.1,0-0.3,0.1-0.3,0.2c-0.1,6.7-3.2,33.6-6.7,63.5c0,0.1-0.1,0.2-0.2,0.2c-15.9,3.1-30.9,7.8-38.1,15
	c-4.8,4.8-0.6,17.5,2.4,23.7c0.1,0.2,0.3,0.2,0.4,0.1c7.3-7.2,19.5-12.8,32.6-17.2c0.2-0.1,0.4,0.1,0.3,0.3
	c-0.3,2.6-0.6,5.3-0.9,7.9l0,0c-1.6,14.9-16.1,64.8-31.7,76c-0.1,0.1-0.3,0-0.4-0.1c-7.8-13.9-14.2-48.9-15.6-58.9
	c-0.2-1.3-0.9-2.4-2.7-2.4c-2.1,0-5.4,0.6-9.1,1.5c-0.2,0-0.4-0.2-0.3-0.3c13.8-33.1,30.9-62.4,44.9-63.2c0.2,0,0.3-0.3,0.2-0.4
	c-2.4-2.6-15.9-16.8-24.6-16.8c-17.7,0-43.1,73.9-51.2,115.5c-0.1,0.3-0.5,0.2-0.5-0.1c3.8-41.3,17.6-111.2,17.6-131.3
	c0-13.8-18.2-15.9-28.6-16.3c-0.1,0-0.3,0.1-0.3,0.2c-0.1,18.2-12.7,132.1-12.7,164.2c0,16.2,13.4,32.8,30.1,35.3
	c0.2,0,0.3-0.1,0.3-0.2c0.1-10.7,5.3-32.5,13.3-56.2c0.1-0.2,0.4-0.2,0.5,0c4.6,13.6,10.4,26.7,14.8,31.1
	c7.4,7.4,22.5,11.9,33.8,11.9c6.5,0,12.4-8.4,17.3-19.4c0.1-0.2,0.4-0.2,0.5,0c4.4,14.4,20.2,26.1,33.1,26.1l0,0c0.3,0,0.5,0,0.8,0
	c9,0,16-16.7,21-35c0.1-0.2,0.4-0.3,0.5,0c5.9,12.4,24.2,26.1,35.4,26.1c11.2,0,22.3-39.4,29.8-73.7c0.1-0.3,0.5-0.3,0.5,0
	c0.6,20.6,0.4,43.1-0.9,63.2c0,0,0,0.1,0,0.1c-14.6,22.5-27.2,43.1-27.2,50.8c0,7.9,14.7,19.1,22.7,19.1c14.7,0,22.2-33.5,25.9-71.6
	c0,0,0-0.1,0-0.1c6-10.1,11.7-20.2,16.3-29.2c0.1-0.2,0.5-0.1,0.5,0.1c0.5,43.4,5.3,83.2,13.2,91.1c10.3,10.3,26.5,4.9,29,4
	c0.2-0.1,0.2-0.3,0.1-0.4c-0.4-0.4-0.7-0.8-1.1-1.3c-21.3-27.5,7.9-156.9,34.5-174.9c0.1-0.1,0.3,0,0.4,0.2c0.4,1.9,0.7,3.9,0.7,6.2
	c0,23.7-9.6,101.7-31.9,102.4c-0.2,0-0.3,0.1-0.2,0.3c0.5,2.4,4.5,19.1,21,19.1c0.2,0,0.5,0,0.7,0c19.5-0.5,35.6-23.5,43.5-37.5
	c0.1-0.2,0.5-0.1,0.5,0.1c-0.1,3.3-0.2,6.2-0.2,8.8c0,19.7,23.8,42.6,44.1,42.6c22.4,0,50.5-39.8,50.5-60.5
	c0-10.3-12.1-17.1-14.3-18.2C765.9,366.3,765.7,366.4,765.7,366.6z M440.6,418.9c-0.1,0.1-0.4,0-0.4-0.1c-1.1-3.8-1.3-8.7-1.3-14
	c0-14.1,5.9-49.3,11.3-81.6c0-0.1,0.1-0.2,0.2-0.2c10-2.2,18.8-3.6,24.4-4.4c0.2,0,0.3,0.1,0.3,0.3c-0.3,4.5-0.7,9.2-1,13.9l0,0
	C473.1,346.6,458.1,404.5,440.6,418.9z M741,296.5c0.1-0.1,0.3-0.1,0.4,0.1c1.1,2.9,1.9,6.3,1.9,10.2c0,20.7-11.3,65-28.5,74.8
	c-0.2,0.1-0.4,0-0.4-0.3C718.1,351.2,727.1,308.5,741,296.5z"/>
</svg>
