<?xml version="1.0" encoding="utf-8"?>
<!-- Generator: Adobe Illustrator 21.1.0, SVG Export Plug-In . SVG Version: 6.00 Build 0)  -->
<svg version="1.1" xmlns="http://www.w3.org/2000/svg" xmlns:xlink="http://www.w3.org/1999/xlink" x="0px" y="0px"
	 viewBox="0 0 1800 900" style="enable-background:new 0 0 1800 900;" xml:space="preserve">
<style type="text/css">
	.st0{display:none;}
	.st1{display:inline;fill-rule:evenodd;clip-rule:evenodd;}
	.st2{fill:#F3F3F3;}
	.st3{fill:#FFFCF8;}
	.st4{fill:#1A1A1A;}
	.st5{fill:#B9B9B9;}
	.st6{fill-rule:evenodd;clip-rule:evenodd;fill:#1A1A1A;}
	.st7{fill:#E6E7E8;}
	.st8{clip-path:url(#SVGID_2_);}
	.st9{clip-path:url(#SVGID_4_);}
	.st10{clip-path:url(#SVGID_6_);}
	.st11{clip-path:url(#SVGID_8_);}
	.st12{clip-path:url(#SVGID_10_);}
	.st13{clip-path:url(#SVGID_12_);}
	.st14{clip-path:url(#SVGID_14_);}
	.st15{clip-path:url(#SVGID_14_);fill:#1A1A1A;}
	.st16{clip-path:url(#SVGID_16_);}
	.st17{clip-path:url(#SVGID_18_);}
	.st18{clip-path:url(#SVGID_20_);}
	.st19{clip-path:url(#SVGID_22_);}
	.st20{clip-path:url(#SVGID_24_);}
	.st21{clip-path:url(#SVGID_26_);}
	.st22{clip-path:url(#SVGID_28_);}
	.st23{clip-path:url(#SVGID_30_);}
	.st24{clip-path:url(#SVGID_32_);}
	.st25{clip-path:url(#SVGID_34_);}
	.st26{clip-path:url(#SVGID_36_);}
	.st27{clip-path:url(#SVGID_38_);}
	.st28{clip-path:url(#SVGID_40_);}
	.st29{clip-path:url(#SVGID_42_);}
	.st30{clip-path:url(#SVGID_44_);}
	.st31{clip-path:url(#SVGID_46_);}
	.st32{clip-path:url(#SVGID_48_);}
	.st33{clip-path:url(#SVGID_48_);fill:#1A1A1A;}
	.st34{clip-path:url(#SVGID_50_);}
	.st35{clip-path:url(#SVGID_52_);}
	.st36{clip-path:url(#SVGID_54_);}
	.st37{clip-path:url(#SVGID_56_);}
	.st38{clip-path:url(#SVGID_58_);}
	.st39{clip-path:url(#SVGID_60_);}
	.st40{clip-path:url(#SVGID_62_);}
	.st41{clip-path:url(#SVGID_64_);}
	.st42{clip-path:url(#SVGID_66_);}
	.st43{clip-path:url(#SVGID_68_);}
	.st44{clip-path:url(#SVGID_70_);}
	.st45{clip-path:url(#SVGID_72_);}
	.st46{fill:#00A651;}
</style>
<g id="bg" class="st0">
</g>
<g id="Layer_1">
	<rect x="-19.2" y="-14.5" class="st2" width="1838.4" height="928.9"/>
	<path class="st4" d="M1299.8,466.2c-0.8,31.2-53,104-87.2,113.3c-0.2,0.1-0.4,0-0.5-0.3c-4.4-9.8-7.6-22.9-7.6-40.2
		c0-7.6,0.7-19.2,2.2-32.9c0-0.3,0.4-0.5,0.7-0.4c6.8,3.6,15.6,6.2,24.4,6.2c42.9,0,75.1-92.9,75.1-143.6
		c0-30.8-49.6-55.3-77.6-55.3c-33.3,0-52.2,54.8-62.2,111.6l0,0c-4.2,25.1-18.7,57.8-38.1,83.3c-0.3,0.4-0.9,0.1-0.8-0.4
		c12.4-47,17.4-103.7,17.4-130.2c0-23.7-41.2-49.9-65.1-49.9c-35.7,0-65.1,110.1-73.5,168c-0.1,0.5-0.9,0.5-0.9-0.1
		c-0.5-25.7-0.2-51.6,0.9-75.8c0-0.1,0-0.1,0-0.2c15.8-38.2,39.2-97.4,39.2-113.3c0-12.4-30.1-32-42.7-32
		c-26,0-39.2,81.3-42.2,169.6c0,0.1,0,0.1-0.1,0.2c-6.2,11.8-15,26.4-25.1,42.3c-0.2,0.4-0.9,0.2-0.8-0.3
		c2.6-54.7,2.2-104.5,2.2-122.8c0-24.3-34.5-36.1-54.3-35.3c0,0,0,0,0,0c-0.1,26.6-37.3,189.2-63.9,212.6c-0.3,0.2-0.7,0.1-0.7-0.3
		c-0.8-4.3-1.3-9.2-1.3-14.7c0-27.1,18.6-175,18.6-193.9c0-16-32.9-18-49.7-18c-0.2,0-0.4,0.2-0.4,0.4c0,5.8-1,20.1-2.3,38.8
		c0,0.2-0.2,0.4-0.4,0.4c-8,0.3-22.6,1.1-40,2.8c-0.3,0-0.5-0.2-0.5-0.5c5.6-34.4,9.9-63.4,9.9-76c0-21.6-29.8-30-47.7-30.3
		c-0.3,0-0.4,0.2-0.5,0.4c-0.1,12-5.8,59.9-11.9,113.2c0,0.2-0.2,0.4-0.4,0.4c-28.4,5.5-55.1,13.9-68,26.8
		c-8.6,8.6-1.1,31.2,4.3,42.3c0.1,0.3,0.5,0.3,0.7,0.1c13-12.8,34.8-22.9,58.2-30.7c0.3-0.1,0.6,0.2,0.6,0.5
		c-0.5,4.7-1.1,9.4-1.6,14.1l0,0c-2.8,26.6-28.7,115.6-56.5,135.5c-0.2,0.2-0.5,0.1-0.7-0.1c-13.9-24.8-25.3-87.2-27.7-105.1
		c-0.3-2.2-1.7-4.3-4.8-4.3c-3.8,0-9.7,1.1-16.2,2.7c-0.4,0.1-0.7-0.3-0.5-0.6c24.6-59,55.2-111.3,80.1-112.6c0.4,0,0.6-0.5,0.3-0.7
		c-4.3-4.6-28.4-30-43.9-30c-31.6,0-76.9,131.8-91.4,205.9c-0.1,0.6-0.9,0.4-0.9-0.1c6.8-73.6,31.4-198.3,31.4-234.1
		c0-24.7-32.5-28.3-51-29c-0.3,0-0.5,0.2-0.5,0.4c-0.2,32.4-22.7,235.6-22.7,292.9c0,29,23.9,58.6,53.6,63c0.3,0,0.5-0.2,0.5-0.4
		c0.2-19.1,9.5-57.9,23.7-100.2c0.1-0.4,0.7-0.4,0.9,0c8.1,24.2,18.5,47.5,26.5,55.5c13.2,13.2,40.2,21.2,60.3,21.2
		c11.6,0,22.1-15,30.8-34.6c0.2-0.4,0.7-0.3,0.8,0c7.9,25.7,36,46.6,59.1,46.6l0-0.1c0.5,0,0.9,0.1,1.4,0.1
		c16.1,0,28.5-29.8,37.4-62.5c0.1-0.4,0.7-0.5,0.8-0.1c10.5,22.1,43.2,46.5,63.1,46.5c20,0,39.8-70.3,53.1-131.5
		c0.1-0.5,0.9-0.4,0.9,0.1c1,36.7,0.7,76.9-1.7,112.7c0,0.1,0,0.2-0.1,0.2c-26,40.1-48.5,76.8-48.5,90.6c0,14.2,26.2,34,40.6,34
		c26.3,0,39.6-59.7,46.3-127.8c0-0.1,0-0.1,0.1-0.2c10.6-18,20.8-36.1,29-52.2c0.2-0.4,0.8-0.3,0.8,0.2
		c0.9,77.4,9.4,148.4,23.5,162.5c18.4,18.4,47.2,8.8,51.8,7.1c0.3-0.1,0.4-0.5,0.2-0.7c-0.6-0.7-1.3-1.4-1.9-2.2
		c-38-49,14.2-279.8,61.6-312c0.3-0.2,0.6,0,0.7,0.3c0.8,3.3,1.2,7,1.2,11c0,42.3-17.1,181.4-56.9,182.6c-0.3,0-0.5,0.3-0.4,0.5
		c0.9,4.3,8.1,34.1,37.5,34.1c0.4,0,0.8,0,1.2,0c34.8-0.9,63.5-41.9,77.7-66.9c0.2-0.4,0.9-0.2,0.8,0.2c-0.2,5.8-0.3,11.1-0.3,15.6
		c0,35.2,42.5,76,78.7,76c40,0,90.1-70.9,90.1-107.9c0-18.4-21.5-30.4-25.6-32.5C1300.2,465.7,1299.8,465.9,1299.8,466.2z
		 M719.9,559.5c-0.2,0.2-0.6,0.1-0.7-0.2c-2-6.8-2.3-15.6-2.3-25c0-25.1,10.6-87.9,20.2-145.6c0-0.2,0.2-0.3,0.4-0.4
		c17.9-3.9,33.6-6.4,43.5-7.9c0.3,0,0.5,0.2,0.5,0.5c-0.6,8-1.2,16.4-1.8,24.8l0,0C777.9,430.5,751,533.7,719.9,559.5z
		 M1255.7,341.1c0.2-0.2,0.6-0.1,0.7,0.2c2,5.2,3.3,11.3,3.3,18.3c0,36.8-20.2,115.9-50.9,133.5c-0.3,0.2-0.7-0.1-0.7-0.5
		C1214.9,438.7,1230.9,362.6,1255.7,341.1z"/>
</g>
</svg>
