<?xml version="1.0" encoding="utf-8"?>
<!-- Generator: Adobe Illustrator 21.1.0, SVG Export Plug-In . SVG Version: 6.00 Build 0)  -->
<svg version="1.1" id="Layer_1" xmlns="http://www.w3.org/2000/svg" xmlns:xlink="http://www.w3.org/1999/xlink" x="0px" y="0px"
	 viewBox="0 0 1080 720" style="enable-background:new 0 0 1080 720;" xml:space="preserve">
<style type="text/css">
	.st0{fill:#E8E8E8;}
	.st1{fill:#1A1A1A;}
</style>
<g>
	<circle class="st0" cx="551.4" cy="360" r="122.1"/>
	<g>
		<path class="st1" d="M583.3,425.7c0-69.8,44.1-146.5,58.4-146.5l7.9,1.9c-52.2,0-100,143.3-89.2,162.6c0,0-7.8,7.7-21.9,7.7
			c-19.7,0-32.7-15.1-32.7-39.8c0-55.2,53.7-157.2,60.9-157.2l13.5,3.5c-35.7,0-80.8,84.6-91.7,132.4l-0.9-37
			c12.6-41.7,43.9-109.4,77.2-109.4c21,0,28.9,19,28.9,19c-26.3,26.3-70.6,149.3-43,174.5l-3.4,10.7
			C528.5,429.2,573.9,266,633.7,266c19.8,0,26.5,22.8,26.5,22.8c-35.5,35.5-53.2,163.1-4.9,163.1c0,0-12.4,25.8-38,25.8
			C593.3,477.7,583.3,451.1,583.3,425.7z"/>
		<path class="st1" d="M422.9,265.1c0,0-16.4,11.5-16.4,31.1c0,19.1,14.4,30.2,34.4,30.2c30.1,0,56.9-26.3,56.9-26.3l-13-0.9
			c0,31.8-45.9,105.1-45.9,140.7c0,18.4,9.1,31.3,27.9,31.3c14.9,0,26.6-10.7,26.6-10.7c-26.3-26.3,9.7-110.9,9.7-153.2
			c0-9-5.8-16.8-15.6-16.8C462.4,290.6,426.2,290,422.9,265.1z"/>
	</g>
</g>
</svg>
