<?xml version="1.0" encoding="utf-8"?>
<!-- Generator: Adobe Illustrator 21.1.0, SVG Export Plug-In . SVG Version: 6.00 Build 0)  -->
<svg version="1.1" xmlns="http://www.w3.org/2000/svg" xmlns:xlink="http://www.w3.org/1999/xlink" x="0px" y="0px"
	 viewBox="0 0 1800 900" style="enable-background:new 0 0 1800 900;" xml:space="preserve">
<style type="text/css">
	.st0{display:none;}
	.st1{display:inline;fill-rule:evenodd;clip-rule:evenodd;}
	.st2{fill:#F3F3F3;}
	.st3{fill:#FFFCF8;}
	.st4{fill:#1A1A1A;}
	.st5{fill:#B9B9B9;}
	.st6{fill-rule:evenodd;clip-rule:evenodd;fill:#1A1A1A;}
	.st7{fill:#E6E7E8;}
	.st8{clip-path:url(#SVGID_2_);}
	.st9{clip-path:url(#SVGID_4_);}
	.st10{clip-path:url(#SVGID_6_);}
	.st11{clip-path:url(#SVGID_8_);}
	.st12{clip-path:url(#SVGID_10_);}
	.st13{clip-path:url(#SVGID_12_);}
	.st14{clip-path:url(#SVGID_14_);}
	.st15{clip-path:url(#SVGID_14_);fill:#1A1A1A;}
	.st16{clip-path:url(#SVGID_16_);}
	.st17{clip-path:url(#SVGID_18_);}
	.st18{clip-path:url(#SVGID_20_);}
	.st19{clip-path:url(#SVGID_22_);}
	.st20{clip-path:url(#SVGID_24_);}
	.st21{clip-path:url(#SVGID_26_);}
	.st22{clip-path:url(#SVGID_28_);}
	.st23{clip-path:url(#SVGID_30_);}
	.st24{clip-path:url(#SVGID_32_);}
	.st25{clip-path:url(#SVGID_34_);}
	.st26{clip-path:url(#SVGID_36_);}
	.st27{clip-path:url(#SVGID_38_);}
	.st28{clip-path:url(#SVGID_40_);}
	.st29{clip-path:url(#SVGID_42_);}
	.st30{clip-path:url(#SVGID_44_);}
	.st31{clip-path:url(#SVGID_46_);}
	.st32{clip-path:url(#SVGID_48_);}
	.st33{clip-path:url(#SVGID_48_);fill:#1A1A1A;}
	.st34{clip-path:url(#SVGID_50_);}
	.st35{clip-path:url(#SVGID_52_);}
	.st36{clip-path:url(#SVGID_54_);}
	.st37{clip-path:url(#SVGID_56_);}
	.st38{clip-path:url(#SVGID_58_);}
	.st39{clip-path:url(#SVGID_60_);}
	.st40{clip-path:url(#SVGID_62_);}
	.st41{clip-path:url(#SVGID_64_);}
	.st42{clip-path:url(#SVGID_66_);}
	.st43{clip-path:url(#SVGID_68_);}
	.st44{clip-path:url(#SVGID_70_);}
	.st45{clip-path:url(#SVGID_72_);}
	.st46{fill:#00A651;}
</style>
<g id="bg" class="st0">
</g>
<g id="Layer_1">
	<rect x="-19.2" y="-14.5" class="st2" width="1838.4" height="928.9"/>
	<g>
		<circle class="st7" cx="917.3" cy="450" r="185.6"/>
		<g>
			<path class="st4" d="M965.9,549.8c0-106.2,67.1-222.7,88.7-222.7l11.9,2.8c-79.3,0-152,217.9-135.6,247.1
				c0,0-11.9,11.7-33.3,11.7c-30,0-49.7-23-49.7-60.6c0-83.8,81.6-239,92.6-239l20.6,5.3c-54.2,0-122.9,128.5-139.5,201.2l-1.4-56.2
				c19.2-63.4,66.7-166.3,117.4-166.3c31.9,0,43.9,28.8,43.9,28.8c-40,40-107.3,226.9-65.4,265.2l-5.1,16.3
				c-28.5-28.5,40.4-276.6,131.4-276.6c30,0,40.2,34.6,40.2,34.6c-54,54-80.8,247.9-7.4,247.9c0,0-18.8,39.3-57.8,39.3
				C981,628.9,965.9,588.5,965.9,549.8z"/>
			<path class="st4" d="M722,305.8c0,0-24.9,17.5-24.9,47.2c0,29,21.9,46,52.3,46c45.7,0,86.5-40.1,86.5-40.1l-19.8-1.3
				c0,48.3-69.7,159.8-69.7,213.9c0,28,13.9,47.6,42.5,47.6c22.6,0,40.5-16.3,40.5-16.3c-40-40,14.8-168.6,14.8-232.8
				c0-13.7-8.7-25.5-23.7-25.5C782.1,344.5,727,343.6,722,305.8z"/>
		</g>
	</g>
</g>
</svg>
