<?xml version="1.0" encoding="utf-8"?>
<!-- Generator: Adobe Illustrator 21.1.0, SVG Export Plug-In . SVG Version: 6.00 Build 0)  -->
<svg version="1.1" xmlns="http://www.w3.org/2000/svg" xmlns:xlink="http://www.w3.org/1999/xlink" x="0px" y="0px" width="1800px"
	 height="900px" viewBox="0 0 1800 900" style="enable-background:new 0 0 1800 900;" xml:space="preserve">
<style type="text/css">
	.st0{display:none;}
	.st1{display:inline;fill-rule:evenodd;clip-rule:evenodd;}
	.st2{fill:#F3F3F3;}
	.st3{fill:#FFFCF8;}
	.st4{fill:#1A1A1A;}
	.st5{fill:#B9B9B9;}
	.st6{fill-rule:evenodd;clip-rule:evenodd;fill:#1A1A1A;}
	.st7{fill:#E6E7E8;}
	.st8{clip-path:url(#SVGID_2_);}
	.st9{clip-path:url(#SVGID_4_);}
	.st10{clip-path:url(#SVGID_6_);}
	.st11{clip-path:url(#SVGID_8_);}
	.st12{clip-path:url(#SVGID_10_);}
	.st13{clip-path:url(#SVGID_12_);}
	.st14{clip-path:url(#SVGID_14_);}
	.st15{clip-path:url(#SVGID_14_);fill:#1A1A1A;}
	.st16{clip-path:url(#SVGID_16_);}
	.st17{clip-path:url(#SVGID_18_);}
	.st18{clip-path:url(#SVGID_20_);}
	.st19{clip-path:url(#SVGID_22_);}
	.st20{clip-path:url(#SVGID_24_);}
	.st21{clip-path:url(#SVGID_26_);}
	.st22{clip-path:url(#SVGID_28_);}
	.st23{clip-path:url(#SVGID_30_);}
	.st24{clip-path:url(#SVGID_32_);}
	.st25{clip-path:url(#SVGID_34_);}
	.st26{clip-path:url(#SVGID_36_);}
	.st27{clip-path:url(#SVGID_38_);}
	.st28{clip-path:url(#SVGID_40_);}
	.st29{clip-path:url(#SVGID_42_);}
	.st30{clip-path:url(#SVGID_44_);}
	.st31{clip-path:url(#SVGID_46_);}
	.st32{clip-path:url(#SVGID_48_);}
	.st33{clip-path:url(#SVGID_48_);fill:#1A1A1A;}
	.st34{clip-path:url(#SVGID_50_);}
	.st35{clip-path:url(#SVGID_52_);}
	.st36{clip-path:url(#SVGID_54_);}
	.st37{clip-path:url(#SVGID_56_);}
	.st38{clip-path:url(#SVGID_58_);}
	.st39{clip-path:url(#SVGID_60_);}
	.st40{clip-path:url(#SVGID_62_);}
	.st41{clip-path:url(#SVGID_64_);}
	.st42{clip-path:url(#SVGID_66_);}
	.st43{clip-path:url(#SVGID_68_);}
	.st44{clip-path:url(#SVGID_70_);}
	.st45{clip-path:url(#SVGID_72_);}
	.st46{fill:#00A651;}
	.st47{fill:#1A1A1A;stroke:#1A1A1A;stroke-width:2.9304;stroke-linecap:round;stroke-linejoin:round;stroke-miterlimit:10;}
</style>
<g id="bg" class="st0">
</g>
<g id="Layer_1">
	<rect x="-19.2" y="-14.5" class="st2" width="1838.4" height="928.9"/>
	<g>
		<path class="st47" d="M1116.5,608.7c0,0-1.5,20.4-24.3,20.4c-14.1,0-23-10.9-23-23.2c0-23.7,20-39.5,46.9-39.5
			c38.7,0,64,20.7,64,54.2c0,52.9-37.6,88.7-94.3,88.7c-98.1,0-176.8-75.8-268.7-75.8c-70,0-136.5,26.8-136.5,86.8
			c0,45.7,45.1,70.1,92.8,70.1c76,0,130.3-42.2,130.3-113.8c0-52-42.7-113.5-42.7-168.9c0-35.1,20.2-78.7,60.4-78.7
			c10.6,0,18.9,5.4,18.9,14.6c0,10.2-9.8,16.2-22.6,16.2c-26.9,0-73.6-14.7-104.5-14.7c-37,0-52,29.3-52,29.3s24.4-49.3,59.9-49.3
			c29.1,0,66,34.7,96.6,34.7c12.9,0,22.6-6,22.6-16.2c0-9.2-8.2-14.6-18.9-14.6c-31.4,0-44,23.8-44,54.6
			c0,49.2,44.7,118.7,44.7,165.8c0,83.6-60.7,141-148.7,141c-47.7,0-92.8-24.4-92.8-70.1c0-59.9,66.5-86.8,136.5-86.8
			c84.7,0,160.9,59.8,254.1,59.8c56.6,0,108.8-21.4,108.8-72.7c0-33.5-25.2-54.2-64-54.2c-37.2,0-68.7,18.1-68.7,50.4
			c0,20.6,12.8,37.2,36,37.2C1124.7,654.1,1116.5,608.7,1116.5,608.7z"/>
		<path class="st47" d="M826.1,491.1c-3.8,11.3-34.1,71.9-34.1,98.3c0,9.4,3.5,17.3,13.3,17.3c42,0,58.4-118.3,58.4-118.3
			s-16.3,118.3-58.4,118.3c-18.8,0-28.3-10.5-28.3-28.9c0-17,11.4-56.5,18.5-72.2c3.2-6.9,4.8-7.1,15-7.1
			C821.9,498.6,826.1,491.1,826.1,491.1z"/>
		<path class="st47" d="M722.9,495.5c17,0,29.6,10.5,29.6,26.6c0,28-36.3,59.6-36.3,84.9c0,8.7,3.6,14.4,13.2,14.4
			c36.5,0,61.4-103.2,61.4-103.2s-24.9,103.2-61.4,103.2c-17,0-27-11.8-27-26.5c0-29.7,31.6-59.9,31.6-85.3
			C734,502.4,731.3,495.5,722.9,495.5c-12.5,0-15.1,12.1-15.1,12.1S710.4,495.5,722.9,495.5z"/>
		<path class="st47" d="M1172.8,467.6c0,0-24.6,78.3-57.3,78.3c-7,0-11.4-4.4-11.4-10.5c0-23.1,41.3-54.1,41.3-78.8
			c0-13.8-10.7-22.3-25.8-22.3c-37.5,0-58.7,86.9-58.7,86.9s21.2-86.9,58.7-86.9c6.7,0,9.8,4.8,9.8,10.7c0,22.4-38,47.5-38,75.7
			c0,13.8,9.6,25.2,24,25.2C1148.2,545.9,1172.8,467.6,1172.8,467.6z"/>
		<path class="st47" d="M1001.1,515.3c-7.8,21.2-20.2,62.3-43.9,62.3c-17.3,0-26.5-10.3-26.5-27.1c0-20.9,10-54.4,18.3-74.8
			c2.5-6.2,7.3-6.2,14.9-6.2c12.4,0,15.8-7.4,15.8-7.4c-7.3,19.5-33.7,69.4-33.7,99.4c0,9.4,2.9,16.3,11.2,16.3
			C980.9,577.6,993.3,536.5,1001.1,515.3c9.1-24.7,20.1-65,43.7-65c15.5,0,25.2,15,25.2,28.7c0,15.5-14.1,61.7-18.6,73.3
			c-1.7,4.2-6.5,5-13.1,5c-12,0-16.7,12.2-16.7,12.2c6.3-20.5,33.8-82.9,33.8-106.3c0-7.7-2.6-12.9-10.6-12.9
			C1021.2,450.3,1010.2,490.6,1001.1,515.3z"/>
		<path class="st47" d="M1062.6,166.5c0,36.5-30.1,139.7-66.9,139.7c-18.8,0-28.8-11.6-28.8-30c0-17,11.4-55.4,18.5-71.1
			c3.2-6.9,4.8-7.1,15-7.1c11.3,0,15.5-7.5,15.5-7.5c-3.8,11.3-34.1,70.8-34.1,97.2c0,9.4,4.1,18.5,13.9,18.5
			C1032.6,306.2,1062.6,203,1062.6,166.5c0-16.1-8.4-26-22.9-26c-9.9,0-17,5.8-17,15.5c0,35.7,75.6,1.3,75.6,40.1
			c0,39.7-36.5,70-36.5,110.2c0,51.6,37.3,77.9,91.7,77.9c57.1,0,116.5-39.9,116.5-94.9c0-25.2-17.4-40.8-43.1-40.8
			c-77.1,0-100.5,182.6-229.5,182.6c-26.1,0-43.3-15-43.3-38.7c0-16.2,9.2-30.2,27.3-30.2c14.5,0,22,10.9,22,23.6
			c0,11.2-6.9,16.4-6.9,16.4s26.6-1.4,26.6-29.5c0-21.2-19-35.2-40.1-35.2c-27,0-45,19.7-45,44.8c0,31.2,26,48.8,59.5,48.8
			c109.7,0,118.7-182.6,229.5-182.6c25.8,0,43.1,15.6,43.1,40.8c0,55-59.5,94.9-116.5,94.9c-40.7,0-83.6-15.6-83.6-61.3
			c0-40.3,49.8-78.8,49.8-118.3c0-53.4-97-9-97-48.5c0-9.7,7.1-15.5,17-15.5C1054.2,140.4,1062.6,150.4,1062.6,166.5z"/>
		<path class="st47" d="M913.8,195c17,0,28.5,10.5,28.5,26.6c0,28-36.3,59.6-36.3,84.9c0,8.7,3.6,14.4,13.2,14.4
			c38,0,61.4-103.2,61.4-103.2s-23.4,103.2-61.4,103.2c-17,0-27-11.8-27-26.5c0-29.1,31.6-59.9,31.6-85.8
			C923.8,201.2,921.5,195,913.8,195c-11,0-16.3,11-16.3,11S902.8,195,913.8,195z"/>
		<path class="st47" d="M452.1,667.9c9.4-26.9,57.1-159.2,57.1-201.8c0-34.3-12.1-61.1-45.8-61.1c-60.7,0-98.6,74.4-98.6,129.2
			c0,27.3,13.6,58.7,42.2,58.7c20.1,0,32.1-21.8,32.1-41.1c0-28-20.4-36.5-20.4-36.5s20.4,8.6,20.4,36.5c0,19.3-12,41.1-32.1,41.1
			c-22.7,0-24-28.2-24-49.5c0-47.2,28.7-138.4,80.3-138.4c20.1,0,28.4,11.9,28.4,32.6c0,68.2-79.2,260.5-79.2,260.5
			s5.8-20.8,24.9-20.8C445.7,677.3,449.8,674.6,452.1,667.9z"/>
		<path class="st47" d="M490.7,546.4c0,0,29.2-131.1,81.3-131.1c13.9,0,16.9,10.9,16.9,25.8c0,48.2-68.8,213-78.9,252
			c0,0,4.9-20.1,24.8-20.1c6.1,0,9.6,1.2,11.3-4c14.7-45.9,60.3-167.1,60.3-206.1c0-24-9.8-47.6-34.4-47.6
			C520,415.3,490.7,546.4,490.7,546.4z"/>
		<path class="st47" d="M733.4,698.1c0,0-33,0.6-33-29.8c0-20.5,18.6-34.2,40.4-34.2c26.2,0,42.8,16.9,42.8,42.6
			c0,38.1-39.9,61.4-81.5,61.4c-53.1,0-92.9-37.6-92.9-92.8c0-56.5,68.9-128.5,68.9-183.2c0-12.7-5.4-26.2-19.8-26.2
			c-57.5,0-90.2,165-90.2,165s32.7-165,90.2-165c23.5,0,36.1,19.7,36.1,44.5c0,59.3-66.9,131.5-66.9,189.9
			c0,43.2,32.1,67.7,74.7,67.7c40,0,69.1-19.1,69.1-55.7c0-14.1-8.6-27.8-24.3-27.8c-13.7,0-22.4,10-22.4,24.5
			C724.6,693.1,733.4,698.1,733.4,698.1z"/>
		<path class="st47" d="M723.8,151.9c10-23.3,33.9-42.3,63.9-42.3c52.4,0,62.2,43.6,62.2,93.4c0,69.5-37.1,198.9-110.1,198.9
			c-45.4,0-58.4-43.1-58.4-86.6c0-55.2,25.4-159.5,83.8-159.5c33.3,0,51.5,25.3,51.5,57.8c0,54-36.7,119.4-82.6,119.4
			c-28,0-30.3-29.4-30.3-29.4s2.3,29.4,30.3,29.4c40.4,0,65.9-87.5,65.9-135.7c0-23.5-7.7-41.6-34.7-41.6
			c-67.5,0-108.5,82.1-108.5,145.2c0,55.6,30.6,100.8,83.2,100.8c82.8,0,133.1-102.9,133.1-183.4c0-54.7-26.3-109-85.2-109
			C757.7,109.6,733.8,128.6,723.8,151.9"/>
		<path class="st47" d="M1283.4,470.5c41.6,0,34.5-89.8,82.6-89.8C1318,380.7,1325,470.5,1283.4,470.5L1283.4,470.5z"/>
		<path class="st47" d="M1257.4,431.1c0,0-3.1-18.3-22.9-18.3c-29.1,0-47.2,68.6-47.2,94c0,10.5,2.9,22.3,14.8,22.3
			c38.2,0,52.9-88.9,52.9-88.9s-14.7,88.9-52.9,88.9c-20.9,0-33.6-13.5-33.6-34.5c0-35.8,25.2-81.9,66-81.9
			C1254.3,412.8,1257.4,431.1,1257.4,431.1z"/>
		<path class="st47" d="M1259.3,442.5c0,0,35.1-12.1,35.1-33.9c0-6-3.6-10.6-9.9-10.6c-46.1,0-33.9,134.7-50.1,213.8
			c-17.3,84.4-52.2,142.6-144.5,142.6c-59.4,0-111.9-32.2-111.9-86.3c0-53.3,43.6-80.1,102.2-80.1c73.7,0,173.3,50.9,244.7,50.9
			c66.7,0,110.4-39.3,110.4-96.7c0-47.6-31.9-80.3-79.8-80.3c-35,0-67.7,22.7-67.7,55.3c0,19.9,14.2,32.4,34.6,32.4
			c28.2,0,39.1-21.5,39.1-48c0-35.7-26.3-51-26.3-84.3c0-18.2,11.9-36.4,31.1-36.4c20.1,0,16,31.4,32.4,31.4
			c15.5,0,18.8-25.4,18.8-25.4s-1.6,10.2-16,10.2c-15.6,0-17-16.2-35.1-16.2c-13.6,0-18.6,10-18.6,22.3c0,32.1,34.6,53.2,34.6,86.8
			c0,32.5-22.7,59.7-59.9,59.7c-20.4,0-34.6-12.6-34.6-32.4c0-32.6,32.7-55.3,67.7-55.3c47.9,0,79.8,32.7,79.8,80.3
			c0,57.4-43.7,96.7-110.4,96.7c-71.3,0-169.6-50.9-244.7-50.9c-58.5,0-102.2,26.8-102.2,80.1c0,54.1,52.6,86.3,111.9,86.3
			c92,0,150.3-48.1,167.4-132.5c16.9-83-19-223.9,27.2-223.9c6.4,0,9.9,4.7,9.9,10.6C1294.4,430.4,1259.3,442.5,1259.3,442.5z"/>
	</g>
</g>
</svg>
