<?xml version="1.0" encoding="utf-8"?>
<!-- Generator: Adobe Illustrator 21.1.0, SVG Export Plug-In . SVG Version: 6.00 Build 0)  -->
<svg version="1.1" id="Layer_1" xmlns="http://www.w3.org/2000/svg" xmlns:xlink="http://www.w3.org/1999/xlink" x="0px" y="0px"
	 width="1800px" height="900px" viewBox="0 0 1800 900" style="enable-background:new 0 0 1800 900;" xml:space="preserve">
<style type="text/css">
	.st0{display:none;}
	.st1{fill:#F3F3F3;}
	.st2{stroke:#000000;stroke-width:0.7998;stroke-miterlimit:10;}
	.st3{stroke:#000000;stroke-width:0.8272;stroke-miterlimit:10;}
</style>
<g id="bg" class="st0">
</g>
<rect x="-19.2" y="-14.5" class="st1" width="1838.4" height="928.9"/>
<g>
	<path class="st2" d="M1121.6,612.5c0,0-1.5,20.9-24.8,20.9c-14.5,0-23.6-11.1-23.6-23.7c0-24.3,20.5-40.5,48-40.5
		c39.6,0,65.5,21.2,65.5,55.5c0,54.1-38.5,90.8-96.5,90.8c-100.4,0-181-77.6-275.1-77.6c-71.7,0-139.8,27.5-139.8,88.8
		c0,46.8,46.1,71.7,95,71.7c77.8,0,133.4-43.2,133.4-116.5c0-53.2-43.7-116.2-43.7-172.9c0-35.9,20.7-80.6,61.8-80.6
		c10.9,0,19.3,5.5,19.3,14.9c0,10.4-10,16.6-23.2,16.6c-27.5,0-75.3-15.1-107-15.1c-37.9,0-53.3,30-53.3,30s25-50.4,61.3-50.4
		c29.8,0,67.6,35.5,98.9,35.5c13.2,0,23.2-6.2,23.2-16.6c0-9.4-8.4-14.9-19.3-14.9c-32.2,0-45,24.4-45,55.9
		c0,50.3,45.8,121.6,45.8,169.8c0,85.6-62.1,144.3-152.2,144.3c-48.8,0-95-25-95-71.7c0-61.4,68.1-88.8,139.8-88.8
		c86.7,0,164.7,61.2,260.1,61.2c57.9,0,111.4-21.9,111.4-74.4c0-34.3-25.8-55.5-65.5-55.5c-38.1,0-70.3,18.5-70.3,51.6
		c0,21.1,13.2,38.1,36.9,38.1C1130,658.9,1121.6,612.5,1121.6,612.5z"/>
	<path class="st2" d="M824.3,492.1c-3.9,11.6-34.9,73.6-34.9,100.6c0,9.6,3.6,17.8,13.6,17.8c43,0,59.7-121.2,59.7-121.2
		s-16.7,121.2-59.7,121.2c-19.3,0-28.9-10.8-28.9-29.6c0-17.4,11.6-57.8,19-73.9c3.2-7.1,4.9-7.2,15.3-7.2
		C820.1,499.8,824.3,492.1,824.3,492.1z"/>
	<path class="st2" d="M718.7,496.6c17.4,0,30.3,10.7,30.3,27.2c0,28.6-37.2,61-37.2,87c0,8.9,3.7,14.8,13.5,14.8
		c37.4,0,62.9-105.6,62.9-105.6s-25.5,105.6-62.9,105.6c-17.4,0-27.6-12.1-27.6-27.1c0-30.4,32.4-61.4,32.4-87.3
		C730.1,503.6,727.3,496.6,718.7,496.6c-12.8,0-15.5,12.4-15.5,12.4S705.9,496.6,718.7,496.6z"/>
	<path class="st2" d="M1179.3,468c0,0-25.1,80.1-58.7,80.1c-7.1,0-11.7-4.5-11.7-10.8c0-23.6,42.3-55.4,42.3-80.6
		c0-14.1-10.9-22.9-26.4-22.9c-38.4,0-60,89-60,89s21.7-89,60-89c6.8,0,10.1,4.9,10.1,11c0,22.9-38.9,48.6-38.9,77.5
		c0,14.1,9.8,25.8,24.6,25.8C1154.1,548.2,1179.3,468,1179.3,468z"/>
	<path class="st2" d="M1003.5,516.8c-8,21.7-20.6,63.8-44.9,63.8c-17.7,0-27.1-10.5-27.1-27.8c0-21.4,10.2-55.7,18.7-76.6
		c2.6-6.3,7.4-6.4,15.3-6.4c12.7,0,16.2-7.6,16.2-7.6C974.1,482.2,947,533.3,947,564c0,9.6,3,16.7,11.5,16.7
		C982.8,580.6,995.5,538.5,1003.5,516.8c9.3-25.3,20.6-66.6,44.7-66.6c15.8,0,25.8,15.3,25.8,29.4c0,15.9-14.4,63.2-19.1,75
		c-1.7,4.3-6.7,5.1-13.4,5.1c-12.3,0-17.1,12.5-17.1,12.5c6.5-21,34.6-84.8,34.6-108.8c0-7.9-2.6-13.2-10.8-13.2
		C1024.1,450.3,1012.8,491.6,1003.5,516.8z"/>
	<path class="st2" d="M1066.5,159.8c0,37.4-30.8,143-68.5,143c-19.3,0-29.5-11.9-29.5-30.7c0-17.4,11.6-56.7,19-72.8
		c3.2-7.1,4.9-7.2,15.3-7.2c11.6,0,15.9-7.7,15.9-7.7c-3.9,11.6-34.9,72.5-34.9,99.5c0,9.6,4.1,18.9,14.2,18.9
		C1035.7,302.7,1066.5,197.2,1066.5,159.8c0-16.5-8.6-26.7-23.5-26.7c-10.1,0-17.4,6-17.4,15.9c0,36.5,77.4,1.3,77.4,41
		c0,40.7-37.3,71.7-37.3,112.8c0,52.9,38.2,79.8,93.9,79.8c58.4,0,119.3-40.9,119.3-97.2c0-25.8-17.8-41.8-44.2-41.8
		c-78.9,0-102.9,186.9-235,186.9c-26.7,0-44.4-15.4-44.4-39.6c0-16.6,9.4-30.9,28-30.9c14.9,0,22.5,11.2,22.5,24.2
		c0,11.5-7.1,16.7-7.1,16.7s27.2-1.4,27.2-30.2c0-21.7-19.5-36-41.1-36c-27.6,0-46.1,20.1-46.1,45.9c0,31.9,26.6,50,60.9,50
		c112.3,0,121.5-186.9,235-186.9c26.4,0,44.2,16,44.2,41.8c0,56.3-60.9,97.2-119.3,97.2c-41.7,0-85.6-15.9-85.6-62.8
		c0-41.3,50.9-80.7,50.9-121.1c0-54.6-99.3-9.2-99.3-49.7c0-10,7.3-15.9,17.4-15.9C1057.9,133.1,1066.5,143.3,1066.5,159.8z"/>
	<path class="st2" d="M914.2,188.9c17.4,0,29.2,10.7,29.2,27.2c0,28.6-37.2,61-37.2,87c0,8.9,3.7,14.8,13.5,14.8
		c38.9,0,62.9-105.6,62.9-105.6s-23.9,105.6-62.9,105.6c-17.4,0-27.6-12.1-27.6-27.1c0-29.8,32.4-61.4,32.4-87.9
		C924.3,195.3,922,188.9,914.2,188.9c-11.3,0-16.7,11.2-16.7,11.2S902.9,188.9,914.2,188.9z"/>
	<path class="st2" d="M441.5,673.1c9.7-27.6,58.5-163,58.5-206.6c0-35.1-12.4-62.6-46.9-62.6c-62.2,0-101,76.1-101,132.2
		c0,27.9,13.9,60.1,43.2,60.1c20.6,0,32.8-22.3,32.8-42.1c0-28.6-20.8-37.4-20.8-37.4s20.8,8.8,20.8,37.4
		c0,19.8-12.3,42.1-32.8,42.1c-23.2,0-24.5-28.9-24.5-50.7c0-48.3,29.4-141.7,82.3-141.7c20.6,0,29.1,12.2,29.1,33.4
		c0,69.9-81.1,266.7-81.1,266.7s6-21.3,25.5-21.3C434.9,682.7,439.1,679.9,441.5,673.1z"/>
	<path class="st2" d="M481,548.7c0,0,29.9-134.3,83.3-134.3c14.3,0,17.3,11.2,17.3,26.4c0,49.3-70.4,218.1-80.7,258
		c0,0,5-20.6,25.4-20.6c6.2,0,9.9,1.2,11.6-4.1c15.1-47,61.8-171.1,61.8-211c0-24.6-10-48.7-35.2-48.7
		C511,414.5,481,548.7,481,548.7z"/>
	<path class="st2" d="M729.5,704c0,0-33.8,0.6-33.8-30.5c0-21,19-35,41.3-35c26.8,0,43.8,17.3,43.8,43.6c0,39.1-40.9,62.8-83.4,62.8
		c-54.4,0-95.1-38.4-95.1-95c0-57.9,70.5-131.6,70.5-187.6c0-13-5.5-26.8-20.3-26.8c-58.9,0-92.3,169-92.3,169s33.4-169,92.3-169
		c24.1,0,36.9,20.2,36.9,45.6c0,60.7-68.5,134.6-68.5,194.4c0,44.2,32.8,69.3,76.4,69.3c41,0,70.7-19.5,70.7-57
		c0-14.4-8.8-28.5-24.8-28.5c-14,0-22.9,10.3-22.9,25.1C720.5,698.8,729.5,704,729.5,704z"/>
	<path class="st3" d="M719.6,144.8c10.3-23.9,34.7-43.3,65.4-43.3c53.6,0,63.7,44.6,63.7,95.6c0,71.1-38,203.7-112.7,203.7
		c-46.4,0-59.8-44.1-59.8-88.6c0-56.5,26-163.2,85.8-163.2c34.1,0,52.7,25.9,52.7,59.2c0,55.3-37.6,122.3-84.6,122.3
		c-28.6,0-31-30.1-31-30.1s2.4,30.1,31,30.1c41.3,0,67.4-89.6,67.4-138.9c0-24.1-7.9-42.6-35.6-42.6c-69.1,0-111.1,84.1-111.1,148.7
		c0,57,31.4,103.2,85.1,103.2c84.8,0,136.2-105.3,136.2-187.7c0-56-26.9-111.5-87.2-111.5C754.3,101.5,729.9,121,719.6,144.8"/>
	<path class="st2" d="M1292.5,471c42.6,0,35.4-91.9,84.6-91.9C1327.9,379.1,1335.1,471,1292.5,471L1292.5,471z"/>
	<path class="st2" d="M1265.8,430.7c0,0-3.1-18.7-23.5-18.7c-29.8,0-48.3,70.2-48.3,96.3c0,10.7,2.9,22.9,15.2,22.9
		c39.1,0,54.1-91,54.1-91s-15,91-54.1,91c-21.4,0-34.4-13.9-34.4-35.3c0-36.7,25.8-83.8,67.5-83.8
		C1262.7,411.9,1265.8,430.7,1265.8,430.7z"/>
	<path class="st2" d="M1267.8,442.3c0,0,35.9-12.4,35.9-34.7c0-6.1-3.6-10.9-10.2-10.9c-47.2,0-34.7,137.9-51.2,218.9
		c-17.7,86.4-53.4,146-148,146c-60.8,0-114.6-33-114.6-88.4c0-54.5,44.7-82,104.6-82c75.4,0,177.4,52.1,250.5,52.1
		c68.3,0,113-40.3,113-99c0-48.8-32.7-82.2-81.7-82.2c-35.8,0-69.3,23.3-69.3,56.6c0,20.3,14.5,33.2,35.4,33.2c28.8,0,40-22,40-49.2
		c0-36.6-27-52.2-27-86.3c0-18.6,12.2-37.3,31.9-37.3c20.6,0,16.3,32.1,33.1,32.1c15.9,0,19.3-26,19.3-26s-1.7,10.4-16.4,10.4
		c-15.9,0-17.4-16.6-36-16.6c-13.9,0-19,10.3-19,22.8c0,32.9,35.4,54.5,35.4,88.8c0,33.3-23.2,61.1-61.3,61.1
		c-20.9,0-35.4-12.9-35.4-33.2c0-33.3,33.5-56.6,69.3-56.6c49.1,0,81.7,33.5,81.7,82.2c0,58.7-44.7,99-113,99
		c-73,0-173.6-52.1-250.5-52.1c-59.9,0-104.6,27.5-104.6,82c0,55.4,53.8,88.4,114.6,88.4c94.2,0,153.8-49.2,171.4-135.6
		c17.3-85-19.4-229.2,27.8-229.2c6.5,0,10.2,4.8,10.2,10.9C1303.7,429.9,1267.8,442.3,1267.8,442.3z"/>
</g>
</svg>
