<?xml version="1.0" encoding="utf-8"?>
<!-- Generator: Adobe Illustrator 21.1.0, SVG Export Plug-In . SVG Version: 6.00 Build 0)  -->
<svg version="1.1" xmlns="http://www.w3.org/2000/svg" xmlns:xlink="http://www.w3.org/1999/xlink" x="0px" y="0px"
	 viewBox="0 0 1800 900" style="enable-background:new 0 0 1800 900;" xml:space="preserve">
<style type="text/css">
	.st0{display:none;}
	.st1{display:inline;fill-rule:evenodd;clip-rule:evenodd;}
	.st2{fill:#F3F3F3;}
	.st3{fill:#FFFCF8;}
	.st4{fill:#1A1A1A;}
	.st5{fill:#B9B9B9;}
	.st6{fill-rule:evenodd;clip-rule:evenodd;fill:#1A1A1A;}
	.st7{fill:#E6E7E8;}
	.st8{clip-path:url(#SVGID_2_);}
	.st9{clip-path:url(#SVGID_4_);}
	.st10{clip-path:url(#SVGID_6_);}
	.st11{clip-path:url(#SVGID_8_);}
	.st12{clip-path:url(#SVGID_10_);}
	.st13{clip-path:url(#SVGID_12_);}
	.st14{clip-path:url(#SVGID_14_);}
	.st15{clip-path:url(#SVGID_14_);fill:#1A1A1A;}
	.st16{clip-path:url(#SVGID_16_);}
	.st17{clip-path:url(#SVGID_18_);}
	.st18{clip-path:url(#SVGID_20_);}
	.st19{clip-path:url(#SVGID_22_);}
	.st20{clip-path:url(#SVGID_24_);}
	.st21{clip-path:url(#SVGID_26_);}
	.st22{clip-path:url(#SVGID_28_);}
	.st23{clip-path:url(#SVGID_30_);}
	.st24{clip-path:url(#SVGID_32_);}
	.st25{clip-path:url(#SVGID_34_);}
	.st26{clip-path:url(#SVGID_36_);}
	.st27{clip-path:url(#SVGID_38_);}
	.st28{clip-path:url(#SVGID_40_);}
	.st29{clip-path:url(#SVGID_42_);}
	.st30{clip-path:url(#SVGID_44_);}
	.st31{clip-path:url(#SVGID_46_);}
	.st32{clip-path:url(#SVGID_48_);}
	.st33{clip-path:url(#SVGID_48_);fill:#1A1A1A;}
	.st34{clip-path:url(#SVGID_50_);}
	.st35{clip-path:url(#SVGID_52_);}
	.st36{clip-path:url(#SVGID_54_);}
	.st37{clip-path:url(#SVGID_56_);}
	.st38{clip-path:url(#SVGID_58_);}
	.st39{clip-path:url(#SVGID_60_);}
	.st40{clip-path:url(#SVGID_62_);}
	.st41{clip-path:url(#SVGID_64_);}
	.st42{clip-path:url(#SVGID_66_);}
	.st43{clip-path:url(#SVGID_68_);}
	.st44{clip-path:url(#SVGID_70_);}
	.st45{clip-path:url(#SVGID_72_);}
	.st46{fill:#00A651;}
</style>
<g id="bg" class="st0">
</g>
<g id="Layer_1">
	<rect x="-19.2" y="-14.5" class="st2" width="1838.4" height="928.9"/>
	<path class="st6" d="M883.2,518.9c0-12.3,0-24.5,0-36.8c0-2.1-0.1-4.2-0.2-6.3c-0.2-4.4-2.4-7.4-6.6-8.6c-3.1-0.9-6.3-1.6-9.5-2.4
		c-19.8-5-37.4-14.3-52.6-27.9c-20.2-18.2-33.1-40.6-38.7-67.2c-2-9.4-2.8-18.8-2.5-28.4c0.1-2.7,0.6-5.4,1.2-8
		c0.9-3.5,3.4-5.8,6.8-6.9c1.9-0.6,3.9-1,5.9-1.1c17.6-0.8,34.7,2,51.2,8.3c1.5,0.6,3.1,1.1,4.7,1.4c3.5,0.7,5.6-0.6,6.5-4.1
		c0.5-1.9,0.8-3.9,0.9-5.9c0.8-12.7,3.7-24.9,8.4-36.7c5.5-14,13.4-26.5,23.6-37.6c2.9-3.2,6-6.3,9.3-9.1c6.1-5.3,11.3-5.3,17.5-0.1
		c8,6.8,14.7,14.8,20.6,23.5c10,14.8,16.4,31,19.4,48.6c0.6,3.8,0.9,7.7,1.4,11.6c0.2,1.7,0.3,3.4,0.7,5.1c0.9,4,3.3,5.4,7.3,4.4
		c1.8-0.4,3.5-1,5.2-1.6c8.1-3.1,16.4-5.2,24.9-6.6c8.6-1.4,17.3-1.6,26.1-1.2c1.3,0.1,2.5,0.3,3.7,0.6c4.3,1.1,7.1,3.9,8.2,8.2
		c0.3,1.3,0.6,2.7,0.6,4c0,5.3,0.2,10.5-0.1,15.8c-0.5,7.8-1.9,15.5-4,23c-4.1,14.9-10.6,28.5-19.8,40.9
		c-10.3,13.9-22.9,25.2-37.9,33.9c-11.1,6.5-23,11.1-35.6,13.7c-2,0.4-4.1,1-6,1.6c-4.2,1.3-6.3,4.3-6.6,8.7
		c-0.1,2.1-0.2,4.2-0.2,6.3c0,24.4,0,48.9,0,73.3c0,2.1,0,4.2,0.2,6.3c0.1,1.1,0.3,2.2,0.6,3.2c1,2.8,3.2,4.2,6.2,3.7
		c2-0.4,3.9-0.8,5.7-1.6c16.2-6.7,28.8-17.7,37.7-32.9c4.9-8.4,7.9-17.5,9.5-27c0.3-1.5,0.7-3,1-4.5c1.3-5.1,4.4-8.3,9.6-9.1
		c4.8-0.7,9.6-0.8,14.3,0.1c5.5,1.1,8.3,4.7,8.5,10.4c0.2,7.1-1.2,13.9-3.1,20.6c-7.5,26.6-22.7,47.6-45.6,63
		c-10.4,7-21.8,11.9-33.8,15.2c-1.7,0.4-3.3,1-4.9,1.6c-3.5,1.4-5.5,4.2-5.8,7.9c-0.2,2.4-0.2,4.9,0,7.3c0.3,3.6,2.5,6.7,7.3,6.4
		c2.2-0.1,4.3-0.4,6.4-0.9c27.3-6.6,50.3-20.3,69.1-41.1c15.3-17.1,25.6-36.9,30.6-59.3c1.3-5.9,1.9-12,2.9-18
		c0.2-1.2,0.3-2.3,0.6-3.5c1.3-6.1,4.2-9.1,10.3-10c4.5-0.6,9-0.6,13.6,0.2c4.7,0.9,8.1,4.2,8.6,9.2c0.2,2,0.4,4,0.3,6
		c-0.6,7-1.5,14.1-3,21c-6.6,30.7-20.7,57.5-42.3,80.3c-15.4,16.3-33.5,28.9-53.9,38c-13.7,6.1-28.1,10.2-43,12.4
		c-10.7,1.6-21.5,2.2-32.3,1.6c-16.3-0.9-32.2-3.9-47.6-9.4c-18.1-6.4-34.5-15.5-49.4-27.6c-20-16.2-35.5-35.9-46.6-59.2
		c-6.6-13.9-11.1-28.6-13.5-43.8c-0.8-5.2-1.2-10.4-1.7-15.7c-0.1-1.4,0.1-2.9,0.4-4.3c0.8-4.7,3.6-7.7,8.3-8.6c5-1,10.1-0.9,15.1,0
		c4.4,0.8,7.3,3.5,8.4,7.9c0.7,2.7,1.2,5.5,1.5,8.3c1.1,9.4,3,18.6,6,27.6c8.6,25.5,23.5,46.5,44.6,63.1c12.5,9.9,26.4,17.2,41.6,22
		c4.1,1.3,8.4,2.3,12.6,3.3c1.7,0.4,3.4,0.4,5.1,0.3c2.5-0.1,4.3-1.5,5.2-3.8c0.5-1.1,0.7-2.5,0.7-3.7c0-2.7-0.1-5.4-0.5-8.1
		c-0.3-2.5-1.9-4.3-4.2-5.4c-2-0.9-4-1.7-6.1-2.3c-11.4-3.2-22.3-7.7-32.2-14.2c-14.3-9.3-26-21.2-34.9-35.7
		c-7.3-11.9-12.1-24.7-14.5-38.4c-0.7-3.7-1-7.4-0.8-11.1c0.2-4.9,3-8.4,7.8-9.6c1.4-0.4,2.9-0.6,4.3-0.6c3.8,0,7.6-0.4,11.4,0.5
		c4.6,1,7.5,3.8,8.8,8.3c0.8,2.6,1.2,5.3,1.8,8c5.7,27.1,21.3,46.1,46.7,57.2c1.8,0.8,3.8,1.2,5.7,1.5c2.8,0.5,5.1-0.9,6-3.5
		c0.4-1.1,0.6-2.3,0.7-3.4c0.1-2.3,0.2-4.7,0.2-7.1C883.2,542.7,883.2,530.8,883.2,518.9z M926.2,431.7c2.9-0.1,5.9-1.2,9-2.3
		c15-5.7,27.6-14.7,37.9-27c7.2-8.7,12.6-18.4,16-29.1c0.6-2,1.1-4.1,1.1-6.1c0.1-3.3-1.7-5.1-5-5c-2.2,0.1-4.5,0.5-6.6,1.3
		c-27.4,9.5-45.9,28.1-56.3,54.9c-1,2.5-1.6,5.2-1.9,7.9C920,429.9,922,431.7,926.2,431.7z M880,426.2c-0.2-1.2-0.4-2.5-0.7-3.7
		c-3.7-13-10.4-24.3-19.4-34.2c-10.7-11.8-23.7-20.2-38.9-25.1c-2-0.7-4.3-1-6.4-1c-2.8-0.1-4.3,1.6-4.5,4.4
		c-0.1,2.2,0.3,4.3,0.9,6.4c4.4,13.6,11.7,25.5,21.8,35.6c10.2,10.3,22.2,17.7,36.1,22.1c1.8,0.6,3.7,1,5.6,1
		C878.3,431.8,879.9,430.1,880,426.2z M917.2,333.8c-0.3-3.7-0.5-7.4-0.9-11.1c-1-9.9-3.9-19.3-8.3-28.3c-1.1-2.3-2.6-4.4-4.2-6.3
		c-2.2-2.5-4.7-2.5-7.1-0.1c-1.3,1.3-2.4,3-3.3,4.6c-3.3,6-5.5,12.4-7.3,19c-1.9,7.2-2.6,14.6-2.8,22c-0.1,4.1,0.5,8.1,0.9,12.2
		c1.1,9.5,3.9,18.6,8.2,27.2c1,1.9,2.1,3.9,3.4,5.5c2.7,3.3,5.4,3.3,8.3,0.2c0.6-0.6,1.2-1.3,1.7-2.1c1.2-2.1,2.4-4.2,3.4-6.5
		C914.5,358.7,917.1,346.5,917.2,333.8z"/>
</g>
</svg>
