<?xml version="1.0" encoding="utf-8"?>
<!-- Generator: Adobe Illustrator 21.1.0, SVG Export Plug-In . SVG Version: 6.00 Build 0)  -->
<svg version="1.1" id="Layer_1" xmlns="http://www.w3.org/2000/svg" xmlns:xlink="http://www.w3.org/1999/xlink" x="0px" y="0px"
	 viewBox="0 0 1080 720" style="enable-background:new 0 0 1080 720;" xml:space="preserve">
<style type="text/css">
	.st0{fill:#1A1A1A;}
	.st1{fill:#FFFFFF;}
	.st2{fill-rule:evenodd;clip-rule:evenodd;fill:#1A1A1A;}
	.st3{fill:#231D2B;}
	.st4{fill:#060000;}
	.st5{clip-path:url(#SVGID_2_);}
	.st6{clip-path:url(#SVGID_4_);}
	.st7{clip-path:url(#SVGID_6_);}
	.st8{clip-path:url(#SVGID_8_);}
	.st9{clip-path:url(#SVGID_10_);}
	.st10{clip-path:url(#SVGID_12_);}
	.st11{clip-path:url(#SVGID_14_);}
	.st12{clip-path:url(#SVGID_16_);}
	.st13{clip-path:url(#SVGID_18_);}
	.st14{clip-path:url(#SVGID_20_);}
	.st15{clip-path:url(#SVGID_22_);}
	.st16{clip-path:url(#SVGID_24_);}
	.st17{clip-path:url(#SVGID_26_);}
	.st18{clip-path:url(#SVGID_28_);}
	.st19{clip-path:url(#SVGID_30_);}
	.st20{clip-path:url(#SVGID_32_);}
	.st21{clip-path:url(#SVGID_34_);}
	.st22{clip-path:url(#SVGID_36_);}
	.st23{clip-path:url(#SVGID_38_);}
	.st24{clip-path:url(#SVGID_40_);}
	.st25{clip-path:url(#SVGID_42_);}
	.st26{clip-path:url(#SVGID_44_);}
	.st27{clip-path:url(#SVGID_46_);}
	.st28{clip-path:url(#SVGID_48_);}
	.st29{clip-path:url(#SVGID_50_);}
	.st30{clip-path:url(#SVGID_52_);}
	.st31{clip-path:url(#SVGID_54_);}
	.st32{clip-path:url(#SVGID_56_);}
	.st33{clip-path:url(#SVGID_58_);}
	.st34{clip-path:url(#SVGID_60_);}
	.st35{clip-path:url(#SVGID_62_);}
	.st36{clip-path:url(#SVGID_64_);}
	.st37{clip-path:url(#SVGID_66_);}
	.st38{clip-path:url(#SVGID_68_);}
	.st39{clip-path:url(#SVGID_70_);}
	.st40{clip-path:url(#SVGID_72_);}
	.st41{clip-path:url(#SVGID_74_);}
	.st42{fill-rule:evenodd;clip-rule:evenodd;fill:#2B2D33;}
</style>
<path class="st2" d="M530.2,400.4c0-7.2,0-14.4,0-21.5c0-1.2,0-2.4-0.1-3.7c-0.1-2.6-1.4-4.3-3.9-5.1c-1.8-0.5-3.7-0.9-5.5-1.4
	c-11.6-2.9-21.9-8.3-30.8-16.3c-11.8-10.6-19.4-23.8-22.7-39.3c-1.1-5.5-1.6-11-1.5-16.6c0-1.6,0.3-3.2,0.7-4.7c0.5-2.1,2-3.4,4-4
	c1.1-0.4,2.3-0.6,3.4-0.6c10.3-0.5,20.3,1.1,30,4.8c0.9,0.3,1.8,0.7,2.7,0.8c2,0.4,3.3-0.4,3.8-2.4c0.3-1.1,0.5-2.3,0.5-3.5
	c0.5-7.4,2.2-14.6,4.9-21.5c3.2-8.2,7.8-15.5,13.8-22c1.7-1.9,3.5-3.7,5.5-5.4c3.6-3.1,6.6-3.1,10.2,0c4.7,4,8.6,8.7,12,13.8
	c5.8,8.7,9.6,18.2,11.3,28.5c0.4,2.2,0.5,4.5,0.8,6.8c0.1,1,0.2,2,0.4,3c0.6,2.3,1.9,3.1,4.3,2.6c1-0.3,2-0.6,3-1
	c4.7-1.8,9.6-3,14.6-3.8c5.1-0.8,10.2-0.9,15.3-0.7c0.7,0,1.5,0.2,2.2,0.4c2.5,0.7,4.1,2.3,4.8,4.8c0.2,0.8,0.4,1.6,0.4,2.4
	c0,3.1,0.1,6.2-0.1,9.2c-0.3,4.6-1.1,9.1-2.3,13.5c-2.4,8.7-6.2,16.7-11.6,23.9c-6,8.1-13.4,14.8-22.2,19.8
	c-6.5,3.8-13.5,6.5-20.9,8c-1.2,0.3-2.4,0.6-3.5,0.9c-2.5,0.8-3.7,2.5-3.9,5.1c-0.1,1.2-0.1,2.4-0.1,3.7c0,14.3,0,28.6,0,42.9
	c0,1.2,0,2.4,0.1,3.7c0,0.6,0.2,1.3,0.4,1.9c0.6,1.6,1.9,2.5,3.6,2.1c1.1-0.2,2.3-0.5,3.4-0.9c9.5-3.9,16.8-10.4,22-19.2
	c2.9-4.9,4.6-10.2,5.6-15.8c0.2-0.9,0.4-1.8,0.6-2.6c0.7-3,2.6-4.9,5.6-5.3c2.8-0.4,5.6-0.5,8.4,0.1c3.2,0.7,4.9,2.8,5,6.1
	c0.1,4.1-0.7,8.1-1.8,12.1c-4.4,15.6-13.3,27.8-26.7,36.9c-6.1,4.1-12.7,7-19.8,8.9c-1,0.3-1.9,0.6-2.9,1c-2.1,0.8-3.2,2.4-3.4,4.6
	c-0.1,1.4-0.1,2.9,0,4.3c0.2,2.1,1.4,3.9,4.2,3.7c1.3-0.1,2.5-0.2,3.8-0.5c16-3.8,29.5-11.9,40.4-24.1c9-10,15-21.6,17.9-34.7
	c0.8-3.5,1.1-7,1.7-10.5c0.1-0.7,0.2-1.4,0.3-2c0.8-3.6,2.5-5.3,6-5.8c2.6-0.4,5.3-0.4,7.9,0.1c2.7,0.5,4.8,2.5,5.1,5.4
	c0.1,1.2,0.2,2.3,0.1,3.5c-0.3,4.1-0.9,8.2-1.8,12.3c-3.9,18-12.1,33.7-24.8,47c-9,9.5-19.6,16.9-31.6,22.3c-8,3.6-16.5,6-25.2,7.3
	c-6.3,0.9-12.6,1.3-18.9,1c-9.5-0.5-18.8-2.3-27.9-5.5c-10.6-3.7-20.2-9.1-28.9-16.1c-11.7-9.5-20.8-21-27.3-34.7
	c-3.9-8.2-6.5-16.7-7.9-25.6c-0.5-3-0.7-6.1-1-9.2c-0.1-0.8,0.1-1.7,0.2-2.5c0.5-2.8,2.1-4.5,4.9-5c2.9-0.6,5.9-0.6,8.9,0
	c2.6,0.5,4.3,2.1,4.9,4.6c0.4,1.6,0.7,3.2,0.9,4.8c0.6,5.5,1.7,10.9,3.5,16.1c5,14.9,13.7,27.2,26.1,36.9
	c7.3,5.8,15.5,10.1,24.4,12.9c2.4,0.8,4.9,1.4,7.4,1.9c1,0.2,2,0.2,3,0.2c1.5,0,2.5-0.9,3-2.2c0.3-0.7,0.4-1.4,0.4-2.2
	c0-1.6-0.1-3.2-0.3-4.7c-0.2-1.5-1.1-2.5-2.4-3.2c-1.1-0.5-2.4-1-3.6-1.3c-6.7-1.9-13-4.5-18.9-8.3c-8.4-5.4-15.2-12.4-20.4-20.9
	c-4.3-7-7.1-14.5-8.5-22.5c-0.4-2.1-0.6-4.3-0.5-6.5c0.1-2.9,1.8-4.9,4.5-5.6c0.8-0.2,1.7-0.4,2.5-0.4c2.2,0,4.5-0.2,6.7,0.3
	c2.7,0.6,4.4,2.2,5.2,4.9c0.4,1.5,0.7,3.1,1,4.7c3.4,15.9,12.5,27,27.3,33.5c1.1,0.5,2.2,0.7,3.4,0.9c1.6,0.3,3-0.5,3.5-2
	c0.2-0.6,0.4-1.3,0.4-2c0.1-1.4,0.1-2.8,0.1-4.1C530.2,414.3,530.2,407.3,530.2,400.4z M555.3,349.3c1.7-0.1,3.5-0.7,5.3-1.4
	c8.8-3.3,16.2-8.6,22.2-15.8c4.2-5.1,7.4-10.8,9.4-17.1c0.4-1.2,0.6-2.4,0.7-3.6c0.1-1.9-1-3-3-2.9c-1.3,0.1-2.6,0.3-3.9,0.7
	c-16,5.5-26.9,16.4-32.9,32.1c-0.6,1.5-1,3.1-1.1,4.6C551.7,348.2,552.9,349.3,555.3,349.3z M528.3,346.1c-0.1-0.7-0.2-1.5-0.4-2.2
	c-2.1-7.6-6.1-14.2-11.4-20c-6.3-6.9-13.9-11.8-22.8-14.7c-1.2-0.4-2.5-0.6-3.7-0.6c-1.6,0-2.5,0.9-2.6,2.6
	c-0.1,1.3,0.2,2.5,0.6,3.8c2.6,8,6.9,14.9,12.8,20.8c6,6,13,10.4,21.1,12.9c1.1,0.3,2.2,0.6,3.3,0.6
	C527.3,349.4,528.3,348.3,528.3,346.1z M550,292c-0.2-2.2-0.3-4.3-0.5-6.5c-0.6-5.8-2.3-11.3-4.9-16.5c-0.6-1.3-1.5-2.6-2.5-3.7
	c-1.3-1.5-2.8-1.5-4.1,0c-0.8,0.8-1.4,1.7-1.9,2.7c-1.9,3.5-3.2,7.3-4.3,11.1c-1.1,4.2-1.5,8.6-1.6,12.9c0,2.4,0.3,4.8,0.5,7.1
	c0.6,5.6,2.3,10.9,4.8,15.9c0.6,1.1,1.2,2.3,2,3.2c1.6,1.9,3.1,1.9,4.8,0.1c0.4-0.4,0.7-0.8,1-1.2c0.7-1.2,1.4-2.5,2-3.8
	C548.5,306.5,550,299.4,550,292z"/>
</svg>
