<?xml version="1.0" encoding="utf-8"?>
<!-- Generator: Adobe Illustrator 21.1.0, SVG Export Plug-In . SVG Version: 6.00 Build 0)  -->
<svg version="1.1" id="Layer_1" xmlns="http://www.w3.org/2000/svg" xmlns:xlink="http://www.w3.org/1999/xlink" x="0px" y="0px"
	 viewBox="0 0 1800 900" style="enable-background:new 0 0 1800 900;" xml:space="preserve">
<style type="text/css">
	.st0{display:none;}
	.st1{fill:#F3F3F3;}
	.st2{fill:#1A1A1A;}
</style>
<g id="bg" class="st0">
</g>
<rect x="-19.2" y="-14.5" class="st1" width="1838.4" height="928.9"/>
<g>
	<path class="st2" d="M1432.3,238.5c-29,0-47.1,24.2-57.6,46.2c0-0.6,0-1.3,0-1.9c0-16.8-8.5-25.6-24.6-25.6
		c-10.3,0-19.1,4.2-22.1,5.9c-0.4,0.2-0.4,0.8,0,1.1c1.8,0.9,5.3,3.9,5.3,13.5c0,38.7-32.4,106.1-32.4,139
		c0,20.3,9.2,36.4,29.6,36.4c16.4,0,23.5-10.3,25.3-13.4c0.2-0.4,0-0.8-0.4-0.8c-3-0.3-12.1-2.3-12.1-17.7c0-9.8,3.6-25.6,8.3-43.3
		c12.9-41.1,33.1-108.4,61.7-108.4c9.9,0,15.3,6.6,15.3,16.7c0,13.5-8.1,31.3-23.3,31.3c-5,0-8-1.6-9.5-2.7c-0.4-0.3-1.1,0-0.9,0.5
		c0.9,6.7,6,31.9,30.7,31.9c27.1,0,47.4-33.4,47.4-61.5C1473.1,259.5,1459.2,238.5,1432.3,238.5z"/>
	<path class="st2" d="M907.5,350.8c-0.4,0.1-0.6,0.6-0.2,1.1c1.3,1.3,3.4,4.3,3.4,10.9c0,36.8-37.1,101.2-37.1,138.3
		c0,22.2,11.1,38.9,32.6,38.9c19.3,0,26.8-14.1,28.5-17.9c0.2-0.4-0.1-0.8-0.5-0.8c-3.6,0.1-16.3-0.9-16.3-23.4
		c0-35.2,35.7-91.4,35.7-122.4C953.3,340.3,914.7,348.9,907.5,350.8z"/>
	<path class="st2" d="M822,366.5c-0.3,0-0.6,0.2-0.6,0.6c0,2.3-0.3,5.1-0.7,8c0,0.1-0.1,0.1-0.1,0.2c-0.7,5.2-2,11.4-3.8,18.4
		c-2.5,9.9-5.8,21-9.3,32.5c-16.7,51.6-44.9,114.6-65.5,114.6c-5.7,0-7.7-4.8-7.7-10.6c0-25.4,33.6-91.4,33.6-116.6
		c0-18.1-11.4-27.4-29.9-27.4c-9.4,0-16.1,2.3-18.6,3.4c-0.4,0.2-0.5,0.7-0.1,1.1c1.5,1.2,4.2,4.4,4.2,12.2
		c0,37.3-34.4,97-34.4,132.3c0,22.1,11.4,42.5,35,42.5c24.5,0,44-22.7,58.9-51.9c2,19.5,12.5,33.6,33.2,33.6
		c19.3,0,25.7-14,27.1-17.7c0.1-0.4-0.1-0.8-0.5-0.8c-3.5,0.1-16.6-1.1-16.6-20.8c0-33.2,35-100.6,35-127.3
		C861.4,373.9,841.7,366.6,822,366.5z"/>
	<path class="st2" d="M946.1,310c26.4,0,45.2-25.8,45.2-48.9c0-22.7-18.2-26.4-23.1-26.9c-0.5-0.1-0.8,0.4-0.6,0.8
		c0.7,1.5,2,4.5,2,10c0,11.9-6.2,29-19.7,29c-7.7,0-11.6-5.7-11.6-13.8c0-18.4,13.6-40.2,33.6-40.2c4,0,6.3,0.6,7.6,1.2
		c0.5,0.2,0.9-0.3,0.7-0.7c-1.4-3.2-5.8-10.2-18.6-10.2c-29.7,0-52.6,30.3-52.6,59.8C909.2,292.5,923,310,946.1,310z"/>
	<path class="st2" d="M1049.5,497.3c0-40.2,89.1-124,89.1-176.3c0-26.2-18.2-51.4-48.1-51.4c-24.8,0-41.2,19.5-41.2,43.9
		c0,22.5,14.8,39.6,35.2,45.4c-20,42.6-55.3,94.7-55.3,119.8c0,3.1,0.2,5.7,0.7,8.1c-7.5-5.6-16.7-15.6-16.7-31.4
		c0-32.6,27.3-80,27.3-102.9c0-25.3-36.6-24.7-41.5-24.6c-0.3,0-0.5,0.3-0.5,0.6c-0.2,35.5-24.6,87.8-24.6,124.5
		c0,35.6,28.9,62.2,63.5,62.2c9.9,0,14.7-2.8,16.1-4c0.3-0.2,0.3-0.6,0.1-0.8C1052.5,509.2,1049.5,504.9,1049.5,497.3z
		 M1074.4,315.6c0-8,3.2-17.4,12-17.4c8.1,0,11.7,9.4,11.7,16.6c0,8.2-2.7,18.2-7.2,29.4C1080.9,338.3,1074.4,328.2,1074.4,315.6z"
		/>
	<path class="st2" d="M1232.6,277.3c-34.4,0-65.5,17.3-65.5,47.6c0,14.7,7.6,25.1,19.4,31.7c-30.6,10.8-53.2,35.9-53.2,65.5
		c0,36.3,25.5,60,65.7,60c42.7,0,76.7-27,76.7-65.8c0-20.3-12-37.2-34.2-37.2c-20.2,0-29,15.2-31.5,20.6c-0.2,0.5,0.3,1.1,0.7,0.7
		c1.1-0.5,2.8-1.1,5.4-1.1c12,0,17.9,9.3,17.9,21c0,18-12.7,34.7-31.2,34.7c-18.3,0-26.5-15.4-26.5-32.9c0-28.9,18.1-56.7,50.2-56.7
		c14,0,14.8-11,14.8-13.7c0-0.3-0.3-0.6-0.6-0.6c-19.8-0.2-32.2-9.6-32.2-26.6c0-15.6,11.3-26.5,27.5-26.5c11.7,0,21.3,6,21.3,16.7
		c0,6.5-4.2,11.6-11.3,11.6c-2.2,0-3.8-0.6-4.7-1.1c-0.4-0.2-0.9,0.1-0.8,0.6c0.9,4.4,5.2,17.5,23.7,17.5
		c16.6,0,27.1-11.3,27.1-26.2C1291.7,291.1,1264.1,277.3,1232.6,277.3z"/>
	<path class="st2" d="M755.6,608.4c-5.1,7.3-21.2,25.8-54.9,25.8c-30.3,0-59.2-13.3-88.8-27.4c35-49.3,55.7-114.7,55.7-170.9
		c0-17.4-3.5-34.5-10.1-49.5c12.3-2,28-10,28-37.4c0-48.8-51-81.9-107.1-81.9c-132.8,0-206.2,130.9-206.2,256.2
		c0,75.3,39.3,159.5,114.7,159.5c37.7,0,71.5-17.7,99.3-45.3c30.5,19,60.4,37.8,95.9,37.8c54.7,0,71.1-52.3,74.4-66.2
		C756.9,608.2,756,607.9,755.6,608.4z M581,296.9c41.9,0,75,26.2,75,62.6c0,7.8-1.3,13.3-3.2,17.2c-14.4-25.4-39-43.1-72.3-43.1
		c-67.6,0-112.3,74.6-112.3,136.9c0,38.6,15.8,76.4,57,76.4c44.9,0,73.3-52.3,73.3-94.2c0-49.1-37.6-41.6-45.8-39.3
		c-0.5,0.1-0.6,0.8-0.1,1.1c3.4,1.8,11.1,8.1,11.1,29.6c0,28.6-13.2,80.1-38,80.1c-17.2,0-20.5-27.2-20.5-45.6
		c0-46.3,25.6-121.7,74.4-121.7c37.3,0,47.5,44.6,47.5,79c0,44.8-17.9,108.5-47.8,155.6c-23.5-10.3-47.8-18.6-73.4-18.6
		c-39.7,0-60.7,22.5-70.3,37.3c-10.2-23.2-15.1-51.9-15.1-76.6C420.9,430.7,472.3,296.9,581,296.9z M490.6,655.1
		c-24,0-41.4-17.3-52.8-41c8.4-7.1,23.5-15.8,46.9-15.8c27.2,0,50.8,9.6,73.3,21.9C538.4,641.4,515.7,655.1,490.6,655.1z"/>
</g>
</svg>
