<?xml version="1.0" encoding="utf-8"?>
<!-- Generator: Adobe Illustrator 21.1.0, SVG Export Plug-In . SVG Version: 6.00 Build 0)  -->
<svg version="1.1" xmlns="http://www.w3.org/2000/svg" xmlns:xlink="http://www.w3.org/1999/xlink" x="0px" y="0px"
	 viewBox="0 0 1080 720" style="enable-background:new 0 0 1080 720;" xml:space="preserve">
<style type="text/css">
	.st0{display:none;}
	.st1{display:inline;fill-rule:evenodd;clip-rule:evenodd;}
	.st2{fill:#1A1A1A;}
	.st3{fill:#FFFFFF;}
	.st4{fill-rule:evenodd;clip-rule:evenodd;fill:#1A1A1A;}
	.st5{fill-rule:evenodd;clip-rule:evenodd;}
	.st6{fill:#E6E7E8;}
</style>
<g id="bg" class="st0">
</g>
<g id="Layer_1">
	<g>
		<path class="st2" d="M587.2,303c0.5,0.1,0.9-0.3,0.7-0.7c-0.3-0.9-0.7-2.2-0.7-3.8c0-8.3,13.6-24.3,13.6-31.9
			c0-7.6-12.7-12.1-15.8-13.2c-0.4-0.1-0.7,0.1-0.7,0.5c-0.6,9.4-11.6,28.4-11.6,35.2C572.6,297.8,583.5,301.9,587.2,303z"/>
		<path class="st2" d="M818.2,300.4c-4.2,0-13.3,1.7-23.1,3.5c-0.5,0.1-0.9-0.4-0.6-0.9c7.1-11.8,15.2-20.5,23.1-21.2
			c0.4,0,0.7-0.5,0.4-0.9c-1.9-2.7-8.1-10.6-15.5-10.6c-8.6,0-19.5,17.4-28.2,36.7c-0.1,0.2-0.3,0.3-0.5,0.3
			c-5.6,0.7-10.2,0.8-12.7,0.1c-0.5-0.2-0.9,0.4-0.7,0.8c1.1,1.9,3.4,4.9,7.6,6.5c0.4,0.1,0.5,0.6,0.3,0.9
			c-11.9,15.8-33.6,42.4-44.6,49.7c-0.3,0.2-0.7,0.1-0.9-0.3c-0.2-0.6-0.3-1.2-0.3-1.8c0-10.7,20.3-41.1,20.3-46.7
			c0-6.2-9.5-15-15.6-15c-7.6,0-19.2,15.1-29.1,30.1c-0.4,0.6-1.3,0.1-1-0.5c2.7-6.9,5.3-14.2,5.3-17.2c0-5.3-7.1-11.8-12.4-12.2
			c-0.3,0-0.5,0.2-0.6,0.4c-2,7.4-30.2,54.7-47.4,67.5c-0.4,0.3-0.9,0-0.9-0.4c-0.1-0.7-0.1-1.6-0.1-2.4c0-8.5,11.3-25.3,11.3-29.3
			c0-2.3-2.1-4-4.7-5.2c-0.3-0.1-0.4-0.4-0.3-0.7c1.1-3,1.8-5.8,1.8-7.8c0-10.6-10.2-21.4-21.5-21.4c-6.6,0-13.5,5.8-19.6,14.1l0,0
			c-4.9,5.8-33.6,50.7-48.8,62.2c-0.3,0.3-0.9,0-0.9-0.4c-0.1-0.7-0.1-1.4-0.1-2.1c0-10.2,23.1-51.1,23.1-57.9
			c0-8.8-12.4-11.6-15.3-12.2c-0.3-0.1-0.6,0.1-0.7,0.5c-1.6,9.8-40.1,68.1-59.3,82.1c-0.3,0.2-0.8,0-0.9-0.4
			c-0.2-1.1-0.4-2.2-0.4-3.4c0-12.3,23.7-44.7,23.7-54.7c0-8.3-11.3-19.9-20-19.9c-16.8,0-34.6,10.5-40.5,16.4
			c-2.3,2.3,1.3,14.2,2.3,13.2c2-2,7.6-5.8,15.1-9.2c0.5-0.2,1,0.2,0.8,0.7c-6.5,17.8-29.3,60.8-44.6,72.7c-0.4,0.3-0.9,0-0.9-0.4
			c-0.1-0.7-0.1-1.4-0.1-2.2c0-10,11.8-29.9,11.8-33.5c0-2.6-2.4-4.5-5.2-5.8c-0.3-0.1-0.4-0.5-0.3-0.7c1.9-4.5,3-8.9,3-11.9
			c0-13-11.4-26.3-25.6-26.3c-22.6,0-47.5,54-47.5,74.7c0,12.6,11,25.5,23.2,27.7c0.6,0.1,0.7,0.9,0.1,1.1
			c-13.8,5.8-24,11.7-29.2,17.8c-5.3,6.1-3.4,14-2.5,16.7c0.1,0.4,0.7,0.5,1,0.2c44.2-48.2,312.1-92.9,401.3-77.5
			c0.1,0,0.2,0.1,0.3,0.2c3.4,3.7,6.5,6,7.7,6.8c2.2,1.8,4.7,3,7.6,3c14.5,0,33.1-25.5,33.1-40.4c0-6.6-6.3-20.2-12.9-20.2
			c-3.5,0-6.1,2.1-7.4,3.3c-0.3,0.3-0.1,0.9,0.3,1c2.7,0.3,9,1.4,9,6c0,13.3-18.1,31.4-33.4,34.6c-0.3,0.1-0.6-0.1-0.7-0.4
			c-1.1-3.1-1.9-7-1.9-12c0-9.7,6.4-31.7,15.7-50.8c0.1-0.2,0.3-0.3,0.5-0.3c9.2-0.7,19.8-1.5,27.3-1.5c7.2,0,12.9,1.7,12.9,8.4
			c0,2.4,3.7,0.8,4.8,0.2c0.2-0.1,0.3-0.3,0.3-0.5C833.6,313.2,826.4,300.4,818.2,300.4z M678.7,335c0.3-0.6,1.3-0.2,1,0.5
			c-5.2,13.3-10.4,25.7-10.4,29.5c0,4.6,3.7,8.3,7,10.7c0.4,0.3,0.2,1-0.3,1c-7.7,0.4-15.5,0.9-23.5,1.5c-0.5,0-0.8-0.6-0.5-1
			C660.4,368.5,671.4,349,678.7,335z M629.7,366.7c1.5,4.2,4.6,8.8,8.1,11.8c0.4,0.3,0.2,0.9-0.3,1c-6,0.5-12,1.1-18,1.7
			c-0.5,0.1-0.8-0.6-0.5-0.9c3.2-3.5,6.6-8.4,9.8-13.7C628.9,366.3,629.5,366.3,629.7,366.7z M635,314.7c3,0,4.6,2.3,4.6,5
			c0,9.1-9.3,21.7-14.6,19.3c-0.4-0.2-0.9,0.2-0.8,0.6c0.5,2.3,2,6.9,5.6,8.3c0.3,0.1,0.5,0.5,0.3,0.8c-6.2,10.2-14.6,22.4-20,22.4
			c-3,0-4-2.5-4-6C606.2,352.7,622.4,314.7,635,314.7z M600.5,383.4c-9.7,1.1-19.5,2.4-29.3,3.8c-0.5,0.1-0.9-0.5-0.5-0.9
			c5.4-6.3,11.7-16.5,17.5-27.3c0.3-0.6,1.2-0.3,1.1,0.3c-0.2,1.3-0.3,2.4-0.3,3.5c0,7.7,5,15.5,11.7,19.6
			C601.2,382.6,601.1,383.3,600.5,383.4z M552.9,389.8c-11.1,1.7-22.1,3.5-32.8,5.5c-0.5,0.1-0.9-0.5-0.5-0.9
			c8.8-9.9,19.8-27.7,29.2-44.1c0.4-0.6,1.3-0.2,1,0.5c-3.8,9.6-6.7,17.6-6.7,19.9c0,6.1,4.7,13.7,10.2,18.1
			C553.6,389.2,553.4,389.8,552.9,389.8z M511.8,323.7c0.4,0,0.7,0.4,0.6,0.7c-5.1,16.2-25.7,44.7-25.7,54c0,6.3,6.1,15,12.8,19.9
			c0.4,0.3,0.2,0.9-0.2,1c-14.8,3-29.1,6.1-42.3,9.5c-0.5,0.1-0.9-0.5-0.6-0.9c16.1-19.5,37.2-67.7,37.2-75c0-1.8-0.4-3.2-1-4.4
			c-0.2-0.3,0-0.7,0.3-0.8C498.6,325.7,505.1,324.2,511.8,323.7z M397.1,401.5c0-16.6,21.2-62.9,36.7-62.9c3.3,0,4.8,2.5,4.8,5.7
			c0,10.3-11.8,27.5-18.3,24.1c-0.4-0.2-0.9,0.1-0.8,0.6c0.5,2.7,2.1,8.8,6.9,10.6c0.3,0.1,0.5,0.5,0.3,0.8
			c-7.4,13.2-17.8,29.4-24.8,29.4C398.3,409.9,397.1,405.9,397.1,401.5z M427.7,399.9c1.3,5.2,5,10.2,9.3,13.2
			c0.4,0.3,0.3,0.9-0.2,1c-8.6,2.5-16.7,5-24,7.7c-0.6,0.2-1-0.5-0.6-0.9c4.8-4.9,9.9-12.9,14.4-21.1
			C426.9,399.3,427.5,399.4,427.7,399.9z M682.2,375.6c4.4-13.4,29.6-53.3,42.6-63.3c0.5-0.4,1.1,0.1,0.9,0.7
			c-5.1,13.1-19.4,36.3-19.4,44.2c0,6.3,6.5,13.7,13.4,17.3c0.5,0.3,0.3,1.1-0.3,1.1c-11.4-0.1-23.7,0.2-36.7,0.8
			C682.4,376.4,682.1,376,682.2,375.6z M732.4,374.8c8.4-5.6,20.1-22.8,29.5-38.3c0.3-0.6,1.2-0.2,1,0.5c-2.3,7.8-3.7,14.3-3.7,18
			c0,9.3,3,16.9,6.6,22.6c0.3,0.4-0.1,0.9-0.6,0.9c-9.2-1.4-20.2-2.3-32.6-2.7C732.2,375.8,732,375.1,732.4,374.8z"/>
		<path class="st2" d="M431,292.8c5,0,9,4.3,8.6,9.3c-0.4,5.1-3.1,7.7-5.1,9c-0.5,0.3-0.2,1.1,0.3,1c4.9-0.2,15.3-1.8,15.3-11.5
			c0-11-13.9-22.4-25.4-22.4c-48.7,0-96.3,107.9-96.3,154.5c0,2.8,0.3,5.4,0.9,7.9c0.1,0.5-0.4,0.9-0.8,0.7
			c-18-8.9-24.5-35.6-25.4-58.3c0-0.2,0.1-0.4,0.2-0.5c28.4-21.9,58.3-65.6,58.3-86.4c0-10.9-13.4-24.4-24.4-24.4
			c-31.7,0-54.3,63.1-54.3,96.9c0,1.7,0,3.4,0.1,5.1c0,0.2-0.1,0.4-0.3,0.5c-6.4,3-12.5,4.8-18.1,4.8c-9.2,0-7.2-8.6-7.2-17.3
			c0-6.2-5.4-9.1-7.1-9.9c-0.3-0.1-0.6,0-0.7,0.3c-0.8,1.7-3.4,7.6-3.4,13.4c0,13.4,14.3,30,28.3,30c3.2,0,6.7-0.7,10.3-2.1
			c0.3-0.1,0.7,0.1,0.8,0.4c5.7,26.7,20.9,50.2,46.6,54.9c0.2,0,0.3,0.1,0.4,0.3c5,9.4,13.1,15.3,16.6,17.5c0.5,0.3,1-0.2,0.8-0.7
			c-0.8-2.1-1.8-6.7-1.8-15.6C348.1,405,384.8,293.1,431,292.8z M349.7,286.3c0.3-0.1,0.6,0.1,0.7,0.4c0.2,0.6,0.3,1.3,0.3,2.2
			c0,18.8-20.7,49.2-44.2,69.5c-0.4,0.4-1.1,0-0.9-0.6C311.5,329.4,327.8,291.9,349.7,286.3z"/>
	</g>
</g>
<g id="yield_guides">
</g>
</svg>
