<?xml version="1.0" encoding="utf-8"?>
<!-- Generator: Adobe Illustrator 21.1.0, SVG Export Plug-In . SVG Version: 6.00 Build 0)  -->
<svg version="1.1" id="Layer_1" xmlns="http://www.w3.org/2000/svg" xmlns:xlink="http://www.w3.org/1999/xlink" x="0px" y="0px"
	 viewBox="0 0 1080 720" style="enable-background:new 0 0 1080 720;" xml:space="preserve">
<style type="text/css">
	.st0{fill:#1A1A1A;}
	.st1{fill:#FFFFFF;}
	.st2{fill-rule:evenodd;clip-rule:evenodd;}
	.st3{fill:#231D2B;}
	.st4{fill:#060000;}
	.st5{clip-path:url(#SVGID_2_);}
	.st6{clip-path:url(#SVGID_4_);}
	.st7{clip-path:url(#SVGID_6_);}
	.st8{clip-path:url(#SVGID_8_);}
	.st9{clip-path:url(#SVGID_10_);}
	.st10{clip-path:url(#SVGID_12_);}
	.st11{clip-path:url(#SVGID_14_);}
	.st12{clip-path:url(#SVGID_16_);}
	.st13{clip-path:url(#SVGID_18_);}
	.st14{clip-path:url(#SVGID_20_);}
	.st15{clip-path:url(#SVGID_22_);}
	.st16{clip-path:url(#SVGID_24_);}
	.st17{clip-path:url(#SVGID_26_);}
	.st18{clip-path:url(#SVGID_28_);}
	.st19{clip-path:url(#SVGID_30_);}
	.st20{clip-path:url(#SVGID_32_);}
	.st21{clip-path:url(#SVGID_34_);}
	.st22{clip-path:url(#SVGID_36_);}
	.st23{clip-path:url(#SVGID_38_);}
	.st24{clip-path:url(#SVGID_40_);}
	.st25{clip-path:url(#SVGID_42_);}
	.st26{clip-path:url(#SVGID_44_);}
	.st27{clip-path:url(#SVGID_46_);}
	.st28{clip-path:url(#SVGID_48_);}
	.st29{clip-path:url(#SVGID_50_);}
	.st30{clip-path:url(#SVGID_52_);}
	.st31{clip-path:url(#SVGID_54_);}
	.st32{clip-path:url(#SVGID_56_);}
	.st33{clip-path:url(#SVGID_58_);}
	.st34{clip-path:url(#SVGID_60_);}
	.st35{clip-path:url(#SVGID_62_);}
	.st36{clip-path:url(#SVGID_64_);}
	.st37{clip-path:url(#SVGID_66_);}
	.st38{clip-path:url(#SVGID_68_);}
	.st39{clip-path:url(#SVGID_70_);}
	.st40{clip-path:url(#SVGID_72_);}
	.st41{clip-path:url(#SVGID_74_);}
	.st42{fill-rule:evenodd;clip-rule:evenodd;fill:#2B2D33;}
</style>
<g>
	<path class="st0" d="M595.1,295.2c4.2,0,5.3-2.5,5.6-3.4c0.1-0.2-0.1-0.4-0.3-0.4c-1,0-4-0.3-4-4.5c0-9.4,16.7-27.7,16.7-36.3
		c0-6.1-12.7-14.7-20.1-15.1c-0.2,0-0.4,0.2-0.3,0.4c0.3,0.6,0.8,1.9,0.8,3.9c0,9.8-13.2,29.2-13.2,38.4
		C580.3,285.5,588.1,295.2,595.1,295.2z"/>
	<path class="st0" d="M840.9,290.2c-3.8,0-10.7,1.3-18.6,2.9c-0.3,0.1-0.4-0.2-0.3-0.5c8.2-11.9,17.1-20.4,25.3-20.7
		c0.2,0,0.4-0.2,0.2-0.4c-1.5-2.2-9-12.6-17.9-12.6c-9.2,0-21.6,18.1-32.1,39c0,0.1-0.1,0.1-0.2,0.2c-8.4,1.4-15.3,2-18.3,0.6
		c-0.3-0.1-0.5,0.2-0.4,0.4c1.4,2.5,5.6,8.6,12.8,9.3c0.2,0.5,0.3,0.6,0.5,1c-7.4,11.5-37.5,50.3-51.7,58.9c-0.2,0.1-0.4,0-0.4-0.2
		c-0.2-0.6-0.3-1.2-0.3-1.9c0-12.1,23-46.5,23-52.9c0-7.1-10.7-17-17.7-17c-9.5,0-22.5,18-33.3,36.5c-0.2,0.3-0.6,0.1-0.5-0.2
		c2.7-8.3,5.7-18.3,5.7-22.2c0-6.1-6.7-13.7-12.7-13.8c-0.1,0-0.2,0.1-0.3,0.2c-1.7,3.4-30.8,59.7-48.7,75.2c-0.2,0.2-0.4,0-0.5-0.2
		c-0.1-0.8-0.2-1.7-0.2-2.7c0-9.6,12.7-28.7,12.7-33.2c0-2.5-2.2-4.4-4.9-5.7c-0.1-0.1-0.2-0.2-0.1-0.4c1.4-3.6,2.3-7,2.3-9.4
		c0-12-13.6-24.2-24.8-24.2c-7.4,0-14.9,6.1-21.7,14.9c-6.1,7.4-36.5,58.3-51.6,69.1c-0.2,0.1-0.4,0-0.5-0.2
		c-0.1-0.9-0.2-1.8-0.2-2.8c0-11.6,24-54.9,24-62.6c0-9.4-15.2-13.2-17.7-13.8c-0.2,0-0.3,0.1-0.3,0.3c0,0.4-0.1,1-0.2,1.5
		c0,0,0,0,0,0c-2.8,12.5-41,73.9-61.2,88.2c-0.2,0.1-0.4,0-0.5-0.2c-0.2-1.2-0.4-2.4-0.4-3.7c0-14,27.7-51,27.7-62.3
		c0-9.5-12.8-22.5-22.6-22.5c-19,0-39.1,12.7-45.9,19.5c-2.6,2.6,1.5,16.1,2.6,15c2.6-2.6,10.3-7.9,20.6-12.3
		c0.2-0.1,0.5,0.1,0.4,0.4c-6.6,17.9-32.8,67.4-50.3,80.1c-0.2,0.1-0.4,0-0.5-0.2c-0.1-0.7-0.1-1.5-0.1-2.4
		c0-11.3,13.4-33.9,13.4-37.9c0-2.9-2.5-4.9-5.5-6.3c-0.1-0.1-0.2-0.2-0.1-0.4c2.3-5.3,3.7-10.5,3.7-14.1c0-14.8-15.2-29.4-29-29.4
		c-25.6,0-53.8,59.4-53.8,82.9c0,15.7,15,31.7,30.3,31.7c7.7,0,17.6-13.8,26-28.6c0.1-0.2,0.5-0.2,0.5,0.1c2.3,9.5,11.4,19,19.9,19
		c16.8,0,51.7-83,51.7-91.2c0-2.4-0.4-4.1-1-5.4c-0.1-0.2,0-0.3,0.2-0.4c6.5-2.3,13.7-4.1,21.2-4.6c0.2,0,0.4,0.2,0.3,0.4
		c-5.7,18.3-30.1,51.4-30.1,62c0,8.8,10.7,21.8,20.1,25.7c0.3,0.1,0.2,0.5,0,0.5c-64.1,14.2-117.7,34.2-137.4,56.8
		c-6.5,7.5-3.4,19.1-2.7,21.6c0.1,0.2,0.3,0.3,0.5,0.1C436,409,746.1,360,827.1,412.7c0,0,1.9,0.4-1-2.1c-4.1-3.6-9.2-6.7-15.3-9.5
		c-0.2-0.1-0.2-0.5,0-0.5c15.9-4.2,35.6-32.6,35.6-48.2c0-7.5-7.1-22-14.6-22c-4.5,0-7.7,3.1-8.9,4.3c-0.2,0.2,0,0.5,0.2,0.5
		c2.4,0,10.8,0.5,10.8,7c0,15.2-22.5,37.6-40.1,41.4c-0.1,0-0.3,0-0.3-0.2c-1.3-3.6-2.2-8.1-2.2-13.8c0-11.7,9.5-39.9,22.1-63
		c0-0.1,0.1-0.1,0.2-0.1c8.8-1.1,18.1-2.2,25.2-2.2c8.1,0,14.6,2.8,14.6,10.4c0,2.9,4.8,0.6,5.7,0.1c0.1-0.1,0.2-0.1,0.2-0.3
		C859.3,305,850.2,290.2,840.9,290.2z M398.6,410.2c-4.2,0-5.5-4.5-5.5-9.5c0-18.8,24-69.9,41.5-69.9c3.7,0,5.4,2.8,5.4,6.5
		c0,11.8-13.9,31.8-21.1,27.1c-0.2-0.2-0.5,0.1-0.4,0.3c1,2.6,4,9.9,8.2,12.3c0.1,0.1,0.2,0.2,0.1,0.4
		C418.5,392,406.6,410.2,398.6,410.2z M641.3,368.6c2.2,6.7,8.1,14.2,13.7,16.8c0.3,0.1,0.2,0.5-0.1,0.5c-9.6,0.5-19.3,1.3-29,2.1
		c-0.3,0-0.4-0.3-0.2-0.5c4.8-3.3,10.2-10.8,15-19C640.9,368.3,641.2,368.3,641.3,368.6z M649.2,310.1c3,0,4.4,2.3,4.4,5.3
		c0,10.6-11.1,25.6-16.9,22.1c-0.2-0.1-0.5,0.1-0.4,0.3c0.8,2.2,3.1,7.6,6.4,9.7c0.1,0.1,0.2,0.2,0.1,0.4
		c-6.8,11.4-16.3,25.4-22.4,25.4c-3.4,0-4.5-2.8-4.5-6.8C615.8,352.3,635,310.1,649.2,310.1z M596.6,360c-0.1,1.3-0.2,2.5-0.2,3.6
		c0,10.8,8.8,21.8,19,24.8c0.3,0.1,0.3,0.5-0.1,0.6c-13.4,1.4-26.9,3-40.3,4.9c-0.3,0-0.5-0.3-0.2-0.5
		C581.5,388.3,589.5,374.6,596.6,360z M554,351.7c0.2-0.3,0.7-0.1,0.5,0.2c-3.4,9.2-6,16.6-6,19.1c0,8.9,8.8,20.7,17.1,23.9
		c0.3,0.1,0.2,0.5-0.1,0.5c-15,2.3-29.9,5-44.3,7.9c-0.3,0.1-0.5-0.3-0.2-0.5C530.5,394.3,543.2,372.5,554,351.7z M662,385
		c8.8-6.2,22.6-33.9,32.2-55c0.2-0.3,0.7-0.1,0.5,0.2c-5.9,16.2-12.6,32.1-12.6,36.8c0,8.5,11.2,14.3,13.5,15.4
		c0.2,0.1,0.4,0,0.4-0.2c0.9-10,31.9-63.3,47-74.2c0.2-0.2,0.6,0.1,0.5,0.3C738,323,721,350.3,721,359.5c0,9.8,14.1,22.1,23.9,22.1
		c8,0,21.6-18.2,33.4-37c0.2-0.3,0.6-0.1,0.5,0.2c-1.4,5.1-2.1,9.3-2.1,12.2c0,19.3,11.2,31.9,17.7,37.5c0.2,0.2,0,0.6-0.3,0.5
		c-32.4-9.4-80-12-131.9-9.5C661.9,385.5,661.8,385.2,662,385z"/>
	<path class="st0" d="M446.3,279c18.7,0,7.2,16.1,4.6,19.4c-0.2,0.2,0,0.5,0.3,0.5c2.9-0.6,13-3.1,13-10.2c0-12.2-15.5-26-28.5-26
		c-61.7,0-119.4,119.2-119.4,179.5c0,3,0.5,5.9,1.4,8.5c0.1,0.2-0.2,0.5-0.4,0.4c-22.1-9.4-28.9-36.8-28.9-64.8
		c0-4.4,0.5-9.7,1.3-15.6c0-0.1,0.1-0.2,0.1-0.2c33.8-19.9,69.1-61.9,69.1-87.7c0-12.2-15.2-25.9-27.5-25.9
		c-34.3,0-60.1,61.7-64.3,103.8c0,0.1-0.1,0.2-0.2,0.2c-7.8,2.8-15.4,4.4-22.3,4.4c-11.2,0-12.4-12.9-12.4-23.5
		c0-7.9-6.9-11.5-8.5-12.2c-0.2-0.1-0.4,0-0.4,0.2c-0.4,1.9-2.7,11.9-2.7,19.4c0,13.9,21.3,32.3,36,32.3c3.1,0,6.4-0.4,9.7-1.2
		c0.2,0,0.3,0.1,0.4,0.3c2.1,37.7,18.6,72.8,55.6,79.3c0.1,0,0.1,0.1,0.2,0.1c7.5,10.3,19.6,16.4,22.7,17.8c0.2,0.1,0.5-0.1,0.4-0.4
		c-1.1-2.3-4.4-10-4.4-21.7C341.1,394.7,385.2,279,446.3,279z M344.8,270.7c0.1,0,0.2,0,0.3,0.1c0.8,0.9,1.3,2.4,1.3,4.6
		c0,22.6-23.4,51.5-50.8,70.3c-0.2,0.2-0.5-0.1-0.5-0.3C304.3,312.9,321.9,276.9,344.8,270.7z"/>
</g>
</svg>
