<?xml version="1.0" encoding="utf-8"?>
<!-- Generator: Adobe Illustrator 21.1.0, SVG Export Plug-In . SVG Version: 6.00 Build 0)  -->
<svg version="1.1" xmlns="http://www.w3.org/2000/svg" xmlns:xlink="http://www.w3.org/1999/xlink" x="0px" y="0px"
	 viewBox="0 0 1800 900" style="enable-background:new 0 0 1800 900;" xml:space="preserve">
<style type="text/css">
	.st0{display:none;}
	.st1{display:inline;fill-rule:evenodd;clip-rule:evenodd;}
	.st2{fill:#F3F3F3;}
	.st3{fill:#FFFCF8;}
	.st4{fill:#1A1A1A;}
	.st5{fill:#B9B9B9;}
	.st6{fill-rule:evenodd;clip-rule:evenodd;fill:#1A1A1A;}
	.st7{fill:#E6E7E8;}
	.st8{clip-path:url(#SVGID_2_);}
	.st9{clip-path:url(#SVGID_4_);}
	.st10{clip-path:url(#SVGID_6_);}
	.st11{clip-path:url(#SVGID_8_);}
	.st12{clip-path:url(#SVGID_10_);}
	.st13{clip-path:url(#SVGID_12_);}
	.st14{clip-path:url(#SVGID_14_);}
	.st15{clip-path:url(#SVGID_14_);fill:#1A1A1A;}
	.st16{clip-path:url(#SVGID_16_);}
	.st17{clip-path:url(#SVGID_18_);}
	.st18{clip-path:url(#SVGID_20_);}
	.st19{clip-path:url(#SVGID_22_);}
	.st20{clip-path:url(#SVGID_24_);}
	.st21{clip-path:url(#SVGID_26_);}
	.st22{clip-path:url(#SVGID_28_);}
	.st23{clip-path:url(#SVGID_30_);}
	.st24{clip-path:url(#SVGID_32_);}
	.st25{clip-path:url(#SVGID_34_);}
	.st26{clip-path:url(#SVGID_36_);}
	.st27{clip-path:url(#SVGID_38_);}
	.st28{clip-path:url(#SVGID_40_);}
	.st29{clip-path:url(#SVGID_42_);}
	.st30{clip-path:url(#SVGID_44_);}
	.st31{clip-path:url(#SVGID_46_);}
	.st32{clip-path:url(#SVGID_48_);}
	.st33{clip-path:url(#SVGID_48_);fill:#1A1A1A;}
	.st34{clip-path:url(#SVGID_50_);}
	.st35{clip-path:url(#SVGID_52_);}
	.st36{clip-path:url(#SVGID_54_);}
	.st37{clip-path:url(#SVGID_56_);}
	.st38{clip-path:url(#SVGID_58_);}
	.st39{clip-path:url(#SVGID_60_);}
	.st40{clip-path:url(#SVGID_62_);}
	.st41{clip-path:url(#SVGID_64_);}
	.st42{clip-path:url(#SVGID_66_);}
	.st43{clip-path:url(#SVGID_68_);}
	.st44{clip-path:url(#SVGID_70_);}
	.st45{clip-path:url(#SVGID_72_);}
	.st46{fill:#00A651;}
</style>
<g id="bg" class="st0">
</g>
<g id="Layer_1">
	<rect x="-19.2" y="-14.5" class="st2" width="1838.4" height="928.9"/>
	<g>
		<path class="st4" d="M1330.3,279c-0.2-0.8-0.8-1.4-1.6-1.3c-45.6,0.8-69.5,19.2-80.1,61.6c-0.7,2.7-1.3,5.3-2,7.8
			c-16.9-2-32.6-2-49.5,0c-0.7-2.5-1.3-5.2-2-7.8c-10.6-42.4-34.6-60.8-80.1-61.6c0,0,0,0,0,0c-0.8,0-1.5,0.6-1.6,1.3
			c-0.2,0.8,0.2,1.5,1,1.8c6.9,2.8,24,13.1,32.8,48.3c4.8,19.2,10.6,24.1,21,24.1c4.3,0,9.3-0.8,15.3-1.8c3.5-0.6,7.5-1.2,11.9-1.8
			c5.2,19.5,11.3,36.8,26.5,36.8c15.2,0,21.3-17.3,26.5-36.8c4.4,0.6,8.4,1.2,11.9,1.8c6.1,1,11.1,1.8,15.3,1.8
			c10.4,0,16.2-4.9,21-24.1c8.8-35.2,25.9-45.5,32.8-48.3C1330.1,280.5,1330.5,279.8,1330.3,279z"/>
		<path class="st4" d="M982,412c19.8,0,68.4-52.4,68.4-71.2c0-19.4-29.7-28.7-36.5-30.5c-0.4-0.1-0.7,0.3-0.5,0.7
			c10.6,15.7-31.7,80.4-47.9,81.8c-0.3,0-0.5,0.3-0.4,0.5C965.8,396.4,970.1,412,982,412z"/>
		<path class="st4" d="M1425.7,412.6c-0.4,0-0.6-0.4-0.3-0.7c12.1-16.5,20.2-30.2,20.2-38c0-17.5-20.7-26.6-24.5-28.1
			c-0.3-0.1-0.6,0.1-0.6,0.4c-0.5,14.8-17.2,40-37.8,67.5c-0.1,0.1-0.2,0.2-0.3,0.2c-20.2,2.5-37.3,7.5-44.2,14.3
			c-5.8,5.8-3.5,11.2-2.6,12.9c0.1,0.3,0.5,0.3,0.7,0.1c5.5-5,17.1-8,31.2-8.8c0.4,0,0.6,0.4,0.4,0.8c-2.4,3.1-4.7,6.1-7.1,9.2
			c-13.3,17.1-103.6,96.4-146.1,110.3c-0.4,0.1-0.7-0.2-0.6-0.6c6.9-22.6,71.7-101,92.5-102.5c0.3,0,0.5-0.3,0.4-0.6
			c-1.4-4.1-10.8-28.9-29.1-28.9c-15,0-45.6,22.7-75.4,50.6c-0.4,0.4-1-0.2-0.7-0.6c8.6-11.5,14.4-21.2,14.4-27.4
			c0-15.2-23.7-20.1-23.7-20.1c0,0.5-0.1,1.1-0.1,1.6c-3.4,27.7-92.4,111.4-137.9,127.6c-0.4,0.1-0.7-0.2-0.6-0.6
			c8.6-27.9,68-100.3,89.7-101.6c0.3,0,0.5-0.3,0.4-0.6c-1.3-3.8-9.2-25.3-19.9-25.3c-7.2,0-18.5,8.8-30.7,21.6
			c-0.2,0.2-0.6,0.2-0.7-0.1c-7.1-11.5-19.3-27.1-33.9-27.1c-15.6,0-36.3,14.4-54.9,33.4l0,0c-5.6,5.5-82.3,88.1-129,101.8
			c-0.3,0.1-0.7-0.2-0.6-0.6c5.5-22.6,70.5-101.8,91.1-103.4c0.3,0,0.5-0.3,0.4-0.6c-1.4-3.8-9.9-25-20.4-25
			c-8.1,0-21.2,10.9-34.8,26c-26.7,26.8-94.2,91.9-133.5,104.3c-0.3,0.1-0.7-0.2-0.6-0.5c5.8-23.6,73.6-102.6,92.9-104.2
			c0.3,0,0.5-0.3,0.4-0.5c-1.1-3.9-8.3-28.1-23.9-28.1c-15.9,0-71,5.8-86.4-8.5c-0.2-0.2-0.6-0.2-0.7,0.1c-0.9,1.8-3.8,8.3-3.8,16.5
			c0,10.9,5.1,18.3,13.9,21.3c0.3,0.1,0.4,0.5,0.2,0.7c-29,30.7-92.7,94.7-129,102.8c-0.3,0.1-0.6-0.2-0.6-0.6
			c6.3-26.4,68.7-102.1,90.2-103.5c0.3,0,0.5-0.3,0.4-0.6c-1.2-3.8-8.6-25.3-19.9-25.3c-7.5,0-19.7,9.8-32.6,23.7
			c-0.2,0.2-0.6,0.2-0.7-0.1c-6.8-11.8-19.1-29.1-32.8-29.1c-36.9,0-101.6,79.9-101.6,112.2c0,7.5,3.5,15.2,7.3,21.2
			c0.2,0.3,0,0.6-0.3,0.7c-4.2,1.2-8.1,1.9-11.9,2c-0.4,0-0.6,0.4-0.4,0.7c2,3.5,12,19.4,26.4,19.4c12.7,0,37.4-24.3,60.9-51.3
			c0.3-0.4,1,0,0.8,0.5c-2.2,5.2-3.4,9.5-3.4,12.6c0,17.2,19.1,32.4,21.5,34.2c-0.1-0.1-0.2-0.2-0.3-0.3c2.9,2.3,6.4,3.9,10.7,3.9
			c30.7,0,105.7-88,133.9-122.6c0.1-0.1,0.2-0.1,0.3-0.2c13.2-1.5,27-6,38.2-10.5c0.5-0.2,0.9,0.4,0.5,0.8
			c-29.4,25.8-69.8,80.7-69.8,97.2c0,11.5,11.3,23.6,17.8,29.7c1.3,1.3,2.7,2.6,4.2,3.7c0.2,0.2,0.4,0.3,0.4,0.3s0,0,0,0
			c2.7,2,5.7,3.3,8.5,3.3c15.2,0,45.3-27.5,74.4-58.4c0.4-0.4,1,0,0.7,0.5c-3.9,7.8-6.2,14.3-6.2,18.2c0,14.1,8.7,25.3,14.4,31.1
			c1.4,1.6,3.1,3,4.8,4.3c0.2,0.1,0.2,0.2,0.2,0.2l0,0c3.1,2.3,6.7,3.9,10.4,3.9c16.4,0,46.4-29.9,72.5-59.9c0.3-0.4,0.9,0,0.8,0.5
			c-1.9,5.4-3,10.3-3,14.4c0,8,3.3,15.5,7,21.3c0.2,0.3,0,0.6-0.3,0.7c-4,1.1-7.8,1.8-11.5,1.9c-0.4,0-0.6,0.4-0.4,0.7
			c2.3,3.5,13.6,19.4,26.4,19.4c12.6,0,36.6-23.7,59.6-50.3c0.3-0.4,1,0,0.8,0.5c-1.9,4.7-2.9,8.6-2.9,11.5c0,6.9,2.3,13.2,5.4,18.5
			c0,0.1,9.2,19.6,23.2,19.6c13,0,39.5-25.5,65.7-54.7c0.4-0.4,1.1,0.1,0.7,0.6c-8.8,12.3-15,22.7-15,29.3
			c0,13.8,14.3,23.3,17.6,25.4c0.3,0.2,0.7,0,0.7-0.4c1.4-27.7,76.5-98,121.3-126.3c0.5-0.3,1,0.3,0.6,0.7
			c-28.5,30.5-62.3,76.9-62.3,90.8c0,12.7,17.8,36.1,29.8,36.1c17.9,0,57.9-37.3,91.4-72c0.4-0.4,1,0.1,0.7,0.6
			c-6.9,11.2-11.1,20.6-11.1,27.2c0,14.9,8.8,30.8,14.1,39c1.2,1.9,2.5,3.7,3.8,5.5c0,0,0.1,0.1,0.1,0.1l0,0
			c7.4,9.7,17.3,17.8,30,17.8c28.7,0,72.2-47.5,72.2-75.8c0-15.9-10.5-26.5-13.4-29.1c-0.3-0.3-0.7-0.1-0.7,0.3
			c-1,31.1-49,70.5-78,70.5c-4.2,0-7.8-0.7-10.8-1.7c-0.6-0.2-0.6-0.5-0.6-1.4c0-19.9,49.5-75,86.1-120.7c0.1-0.1,0.3-0.2,0.5-0.2
			c26.6,5.6,50.3,18.2,50.8,38.6c0,0.3,0.3,0.6,0.6,0.4c4.1-1.9,27.2-13.4,27.2-32.9C1486.1,423.5,1457.8,414.6,1425.7,412.6z
			 M558.8,548.8c-0.3,0.2-0.7-0.2-0.6-0.5c6.6-28.8,73.7-102.7,102.4-102.7c5.2,0,8.7,4.1,11,8.1c0.1,0.2,0.1,0.4-0.1,0.5
			c-1.2,1.4-2.4,2.8-3.6,4.2C648.2,479.7,598,532,558.8,548.8z M973.3,548.8c-0.3,0.2-0.7-0.2-0.7-0.5
			c6.5-29.2,73.7-102.7,102.4-102.7c4.7,0,8.6,3.2,11.3,6.7c0.1,0.2,0.1,0.4,0,0.6c-1.8,2-3.6,4.1-5.4,6.3
			C1061.1,480.8,1012,532.1,973.3,548.8z"/>
		<path class="st4" d="M643.4,570.2c0.1,0.1,0.2,0.2,0.2,0.2S643.6,570.3,643.4,570.2z"/>
		<path class="st4" d="M585.9,303.6c-0.5-0.3-0.9,0.3-0.6,0.7c2.4,2.8,6.2,8.5,6.2,16.6c0,42-135.5,213.7-212.2,241.7
			c-0.3,0.1-0.7-0.2-0.6-0.5c7.5-61.3,83.3-154.5,122.2-155.5c0.3,0,0.5-0.3,0.4-0.6c-1.6-4.5-12.6-34-32.9-34
			c-52.9,0-154.4,40.4-154.4,83.4c0,12.5,13.7,46.3,24.4,46.3c3,0,5.4-2.3,6.4-3.5c0.2-0.3,0.1-0.7-0.3-0.7c-2-0.4-7.2-2.3-7.2-11.8
			c0-44.1,57.5-81.2,110.9-93.8c0.5-0.1,0.8,0.6,0.3,0.9c-40.2,23.2-88.2,95.8-88.2,146.1c0,9.7,6.1,19.3,11.2,25.5
			c0.2,0.3,0.1,0.7-0.3,0.7c-11.7,2.8-21.6,1.6-29-4.8c-0.4-0.3-0.9,0.1-0.7,0.5c3.4,8.2,18,40,39.1,40
			c68.7,0,228.2-200,228.2-257.3C608.7,318.8,592.3,307.2,585.9,303.6z"/>
	</g>
</g>
</svg>
