<?xml version="1.0" encoding="utf-8"?>
<!-- Generator: Adobe Illustrator 21.1.0, SVG Export Plug-In . SVG Version: 6.00 Build 0)  -->
<svg version="1.1" xmlns="http://www.w3.org/2000/svg" xmlns:xlink="http://www.w3.org/1999/xlink" x="0px" y="0px"
	 viewBox="0 0 1800 900" style="enable-background:new 0 0 1800 900;" xml:space="preserve">
<style type="text/css">
	.st0{display:none;}
	.st1{display:inline;fill-rule:evenodd;clip-rule:evenodd;}
	.st2{fill:#F3F3F3;}
	.st3{fill:#FFFCF8;}
	.st4{fill:#1A1A1A;}
	.st5{fill:#B9B9B9;}
	.st6{fill-rule:evenodd;clip-rule:evenodd;fill:#1A1A1A;}
	.st7{fill:#E6E7E8;}
	.st8{clip-path:url(#SVGID_2_);}
	.st9{clip-path:url(#SVGID_4_);}
	.st10{clip-path:url(#SVGID_6_);}
	.st11{clip-path:url(#SVGID_8_);}
	.st12{clip-path:url(#SVGID_10_);}
	.st13{clip-path:url(#SVGID_12_);}
	.st14{clip-path:url(#SVGID_14_);}
	.st15{clip-path:url(#SVGID_14_);fill:#1A1A1A;}
	.st16{clip-path:url(#SVGID_16_);}
	.st17{clip-path:url(#SVGID_18_);}
	.st18{clip-path:url(#SVGID_20_);}
	.st19{clip-path:url(#SVGID_22_);}
	.st20{clip-path:url(#SVGID_24_);}
	.st21{clip-path:url(#SVGID_26_);}
	.st22{clip-path:url(#SVGID_28_);}
	.st23{clip-path:url(#SVGID_30_);}
	.st24{clip-path:url(#SVGID_32_);}
	.st25{clip-path:url(#SVGID_34_);}
	.st26{clip-path:url(#SVGID_36_);}
	.st27{clip-path:url(#SVGID_38_);}
	.st28{clip-path:url(#SVGID_40_);}
	.st29{clip-path:url(#SVGID_42_);}
	.st30{clip-path:url(#SVGID_44_);}
	.st31{clip-path:url(#SVGID_46_);}
	.st32{clip-path:url(#SVGID_48_);}
	.st33{clip-path:url(#SVGID_48_);fill:#1A1A1A;}
	.st34{clip-path:url(#SVGID_50_);}
	.st35{clip-path:url(#SVGID_52_);}
	.st36{clip-path:url(#SVGID_54_);}
	.st37{clip-path:url(#SVGID_56_);}
	.st38{clip-path:url(#SVGID_58_);}
	.st39{clip-path:url(#SVGID_60_);}
	.st40{clip-path:url(#SVGID_62_);}
	.st41{clip-path:url(#SVGID_64_);}
	.st42{clip-path:url(#SVGID_66_);}
	.st43{clip-path:url(#SVGID_68_);}
	.st44{clip-path:url(#SVGID_70_);}
	.st45{clip-path:url(#SVGID_72_);}
	.st46{fill:#00A651;}
</style>
<g id="bg" class="st0">
</g>
<g id="Layer_1">
	<rect x="-19.2" y="-14.5" class="st2" width="1838.4" height="928.9"/>
	<g>
		<path class="st4" d="M992.5,338.3c0.9,0.3,1.7-0.6,1.4-1.5c-0.7-1.7-1.4-4.3-1.4-7.5c0-16.3,26.7-47.6,26.7-62.4
			c0-14.9-24.8-23.8-31.1-25.8c-0.7-0.2-1.4,0.3-1.5,1c-1.2,18.3-22.8,55.7-22.8,69.1C963.9,328.2,985.2,336.1,992.5,338.3z"/>
		<path class="st4" d="M1445.1,333.2c-8.3,0-26,3.3-45.2,6.8c-1,0.2-1.7-0.9-1.2-1.7c14-23.1,29.8-40.2,45.2-41.6
			c0.8-0.1,1.3-1.1,0.8-1.7c-3.7-5.2-15.9-20.9-30.3-20.9c-16.8,0-38.2,34-55.3,71.9c-0.2,0.4-0.5,0.6-0.9,0.7
			c-11,1.3-20.1,1.6-24.9,0.1c-1-0.3-1.8,0.7-1.3,1.6c2.1,3.7,6.6,9.6,15,12.7c0.7,0.3,1,1.1,0.6,1.7c-23.2,31-65.8,83-87.3,97.4
			c-0.6,0.4-1.4,0.1-1.7-0.6c-0.4-1.1-0.6-2.3-0.6-3.5c0-21,39.8-80.5,39.8-91.5c0-12.2-18.6-29.5-30.7-29.5
			c-14.8,0-37.7,29.5-57,59c-0.7,1.1-2.5,0.2-2-1c5.3-13.5,10.3-27.7,10.3-33.6c0-10.3-13.9-23.1-24.3-23.9c-0.5,0-1,0.3-1.1,0.8
			c-4,14.6-59.2,107.2-92.8,132.2c-0.7,0.5-1.7,0.1-1.8-0.8c-0.2-1.5-0.3-3-0.3-4.8c0-16.6,22.1-49.6,22.1-57.5
			c0-4.6-4.1-7.9-9.2-10.2c-0.5-0.2-0.8-0.9-0.6-1.4c2.2-5.8,3.5-11.3,3.5-15.2c0-20.7-20-42-42.2-42c-13,0-26.4,11.5-38.4,27.6l0,0
			c-9.6,11.3-65.9,99.4-95.7,121.9c-0.7,0.5-1.7,0.1-1.8-0.8c-0.1-1.3-0.2-2.7-0.2-4.1c0-20,45.2-100.2,45.2-113.4
			c0-17.3-24.3-22.8-30-23.8c-0.6-0.1-1.2,0.3-1.3,0.9c-3.2,19.1-78.5,133.4-116.1,160.8c-0.7,0.5-1.6,0.1-1.8-0.7
			c-0.4-2.1-0.7-4.4-0.7-6.8c0-24.2,46.5-87.6,46.5-107.1c0-16.4-22.2-39-39.2-39c-32.8,0-67.7,20.5-79.4,32.2
			c-4.5,4.5,2.5,27.9,4.5,25.9c3.9-3.9,14.8-11.3,29.6-17.9c0.9-0.4,1.9,0.5,1.5,1.4c-12.8,35-57.4,119.2-87.4,142.4
			c-0.7,0.5-1.7,0.1-1.8-0.8c-0.1-1.3-0.2-2.8-0.2-4.4c0-19.6,23.1-58.6,23.1-65.6c0-5.1-4.7-8.8-10.2-11.3
			c-0.6-0.3-0.8-0.9-0.6-1.5c3.7-8.8,5.9-17.4,5.9-23.2c0-25.5-22.4-51.6-50.2-51.6c-44.2,0-93.1,105.8-93.1,146.4
			c0,24.7,21.5,49.9,45.4,54.2c1.1,0.2,1.3,1.7,0.2,2.1c-27,11.3-46.9,23-57.3,34.9c-10.4,11.9-6.6,27.5-5,32.7
			c0.3,0.8,1.3,1,1.9,0.4c86.7-94.5,611.5-182,786.2-151.9c0.2,0,0.5,0.2,0.6,0.4c6.6,7.3,12.7,11.8,15,13.4
			c4.2,3.5,9.2,5.9,14.9,5.9c28.3,0,64.8-50,64.8-79.2c0-13-12.4-39.5-25.2-39.5c-6.8,0-12,4.1-14.5,6.5c-0.7,0.7-0.3,1.8,0.7,1.9
			c5.2,0.6,17.6,2.8,17.6,11.8c0,26.1-35.5,61.5-65.4,67.9c-0.5,0.1-1.1-0.2-1.3-0.7c-2.2-6.1-3.7-13.8-3.7-23.4
			c0-19,12.6-62.1,30.7-99.5c0.2-0.4,0.5-0.6,0.9-0.6c18-1.3,38.8-3,53.5-3c14,0,25.2,3.3,25.2,16.5c0,4.8,7.3,1.5,9.5,0.4
			c0.4-0.2,0.6-0.6,0.6-1C1475.2,358.4,1461.2,333.2,1445.1,333.2z M1171.8,401c0.7-1.3,2.5-0.4,2,0.9c-10.1,26-20.4,50.3-20.4,57.8
			c0,9,7.2,16.2,13.7,21c0.9,0.6,0.5,2-0.6,2c-15,0.8-30.4,1.8-46.1,3c-1,0.1-1.6-1.1-0.9-1.9C1135.9,466.7,1157.4,428.4,1171.8,401
			z M1075.7,463.2c3,8.3,9.1,17.2,15.8,23.1c0.7,0.6,0.4,1.9-0.6,1.9c-11.7,1-23.5,2.2-35.4,3.4c-1,0.1-1.7-1.1-0.9-1.9
			c6.3-6.8,12.9-16.5,19.1-26.8C1074.2,462.3,1075.4,462.3,1075.7,463.2z M1086.1,361.3c6,0,9.1,4.5,9.1,9.9
			c0,17.9-18.3,42.5-28.5,37.9c-0.9-0.4-1.8,0.3-1.6,1.3c1,4.6,4,13.5,11,16.2c0.6,0.2,0.9,1,0.5,1.6c-12.1,20-28.7,43.9-39.1,43.9
			c-5.8,0-7.7-4.8-7.7-11.8C1029.8,435.8,1061.5,361.3,1086.1,361.3z M1018.6,495.8c-19.1,2.3-38.2,4.7-57.3,7.4c-1,0.1-1.7-1-1-1.8
			c10.7-12.3,22.8-32.4,34.3-53.5c0.6-1.1,2.3-0.5,2.1,0.7c-0.3,2.5-0.5,4.8-0.5,6.8c0,15,9.8,30.3,22.9,38.4
			C1019.9,494.3,1019.6,495.7,1018.6,495.8z M925.3,508.5c-21.7,3.3-43.2,6.9-64.3,10.7c-1,0.2-1.7-1-1-1.8
			c17.3-19.3,38.8-54.2,57.1-86.4c0.7-1.2,2.5-0.3,2,1c-7.4,18.8-13.2,34.4-13.2,39c0,12,9.1,26.9,19.9,35.5
			C926.6,507.1,926.2,508.3,925.3,508.5z M844.7,378.9c0.8-0.1,1.4,0.7,1.2,1.5c-10,31.7-50.4,87.6-50.4,105.7
			c0,12.3,12,29.3,25.1,38.9c0.8,0.6,0.5,1.8-0.5,2c-29.1,5.8-57,12-83,18.6c-1,0.3-1.8-1-1.1-1.8c31.6-38.2,72.9-132.6,72.9-146.9
			c0-3.5-0.8-6.3-1.9-8.5c-0.3-0.6,0-1.3,0.6-1.6C818.9,382.9,831.6,379.8,844.7,378.9z M620,531.3c0-32.5,41.6-123.2,71.9-123.2
			c6.4,0,9.4,4.9,9.4,11.3c0,20.1-23.2,53.9-35.8,47.3c-0.8-0.4-1.8,0.2-1.6,1.2c0.9,5.4,4.1,17.3,13.6,20.7c0.7,0.2,1,1,0.7,1.6
			c-14.5,25.9-35,57.6-48.6,57.6C622.4,547.7,620,540,620,531.3z M679.9,528.2c2.6,10.1,9.7,20,18.3,25.9c0.8,0.5,0.5,1.7-0.4,2
			c-16.9,4.9-32.7,9.9-47,15c-1.1,0.4-2-1-1.2-1.8c9.5-9.7,19.4-25.3,28.3-41.4C678.3,527.1,679.7,527.2,679.9,528.2z M1178.7,480.6
			c8.6-26.4,58.1-104.5,83.5-124.1c0.9-0.7,2.2,0.2,1.7,1.3c-10,25.7-38,71.1-38,86.6c0,12.3,12.8,26.8,26.3,33.9
			c1,0.5,0.7,2.1-0.5,2.1c-22.3-0.1-46.5,0.5-71.9,1.6C1179,482.2,1178.5,481.4,1178.7,480.6z M1277.1,478.9
			c16.5-11.1,39.3-44.6,57.9-75c0.7-1.1,2.4-0.3,2,0.9c-4.6,15.2-7.3,27.9-7.3,35.3c0,18.3,5.8,33.1,12.9,44.3
			c0.5,0.8-0.1,1.9-1.1,1.7c-18-2.8-39.5-4.5-63.8-5.2C1276.6,480.9,1276.2,479.5,1277.1,478.9z"/>
		<path class="st4" d="M686.4,318.3c9.9-0.1,17.7,8.5,16.9,18.3c-0.9,9.9-6.1,15.1-9.9,17.6c-1,0.6-0.5,2.1,0.7,2
			c9.6-0.4,30-3.6,30-22.6c0-21.5-27.2-43.8-49.8-43.8c-95.4,0-188.7,211.3-188.7,302.8c0,5.5,0.7,10.6,1.8,15.4
			c0.2,0.9-0.7,1.7-1.6,1.3c-35.2-17.5-48-69.8-49.7-114.2c0-0.4,0.1-0.7,0.4-0.9c55.6-42.9,114.2-128.4,114.2-169.3
			c0-21.3-26.3-47.7-47.9-47.7c-62.1,0-106.5,123.7-106.5,189.9c0,3.3,0.1,6.7,0.2,10.1c0,0.4-0.2,0.9-0.6,1.1
			c-12.5,5.9-24.6,9.3-35.5,9.3c-18.1,0-14.1-16.9-14.1-34c0-12.1-10.6-17.8-13.9-19.4c-0.6-0.3-1.2,0-1.5,0.5
			c-1.6,3.3-6.6,14.9-6.6,26.3c0,26.2,28,58.7,55.5,58.7c6.3,0,13.1-1.5,20.2-4.1c0.6-0.2,1.3,0.1,1.5,0.8
			c11.2,52.3,40.9,98.3,91.3,107.5c0.3,0.1,0.6,0.3,0.8,0.6c9.7,18.5,25.7,30,32.5,34.3c0.9,0.6,2-0.3,1.6-1.3
			c-1.5-4.2-3.6-13-3.6-30.5C524.1,538.2,595.8,318.9,686.4,318.3z M527.1,305.5c0.6-0.1,1.2,0.2,1.4,0.7c0.4,1.1,0.6,2.5,0.6,4.2
			c0,36.8-40.5,96.4-86.6,136.2c-0.8,0.7-2.1,0-1.8-1.1C452.3,390.1,484.3,316.5,527.1,305.5z"/>
	</g>
</g>
</svg>
