<?xml version="1.0" encoding="utf-8"?>
<!-- Generator: Adobe Illustrator 21.1.0, SVG Export Plug-In . SVG Version: 6.00 Build 0)  -->
<svg version="1.1" id="Layer_1" xmlns="http://www.w3.org/2000/svg" xmlns:xlink="http://www.w3.org/1999/xlink" x="0px" y="0px"
	 viewBox="0 0 1080 720" style="enable-background:new 0 0 1080 720;" xml:space="preserve">
<style type="text/css">
	.st0{fill:#1A1A1A;}
	.st1{fill:#FFFFFF;}
	.st2{fill-rule:evenodd;clip-rule:evenodd;}
	.st3{fill:#231D2B;}
	.st4{fill:#060000;}
	.st5{clip-path:url(#SVGID_2_);}
	.st6{clip-path:url(#SVGID_4_);}
	.st7{clip-path:url(#SVGID_6_);}
	.st8{clip-path:url(#SVGID_8_);}
	.st9{clip-path:url(#SVGID_10_);}
	.st10{clip-path:url(#SVGID_12_);}
	.st11{clip-path:url(#SVGID_14_);}
	.st12{clip-path:url(#SVGID_16_);}
	.st13{clip-path:url(#SVGID_18_);}
	.st14{clip-path:url(#SVGID_20_);}
	.st15{clip-path:url(#SVGID_22_);}
	.st16{clip-path:url(#SVGID_24_);}
	.st17{clip-path:url(#SVGID_26_);}
	.st18{clip-path:url(#SVGID_28_);}
	.st19{clip-path:url(#SVGID_30_);}
	.st20{clip-path:url(#SVGID_32_);}
	.st21{clip-path:url(#SVGID_34_);}
	.st22{clip-path:url(#SVGID_36_);}
	.st23{clip-path:url(#SVGID_38_);}
	.st24{clip-path:url(#SVGID_40_);}
	.st25{clip-path:url(#SVGID_42_);}
	.st26{clip-path:url(#SVGID_44_);}
	.st27{clip-path:url(#SVGID_46_);}
	.st28{clip-path:url(#SVGID_48_);}
	.st29{clip-path:url(#SVGID_50_);}
	.st30{clip-path:url(#SVGID_52_);}
	.st31{clip-path:url(#SVGID_54_);}
	.st32{clip-path:url(#SVGID_56_);}
	.st33{clip-path:url(#SVGID_58_);}
	.st34{clip-path:url(#SVGID_60_);}
	.st35{clip-path:url(#SVGID_62_);}
	.st36{clip-path:url(#SVGID_64_);}
	.st37{clip-path:url(#SVGID_66_);}
	.st38{clip-path:url(#SVGID_68_);}
	.st39{clip-path:url(#SVGID_70_);}
	.st40{clip-path:url(#SVGID_72_);}
	.st41{clip-path:url(#SVGID_74_);}
	.st42{fill-rule:evenodd;clip-rule:evenodd;fill:#2B2D33;}
</style>
<g>
	<path class="st0" d="M771.1,263.2c-0.1-0.4-0.4-0.7-0.9-0.7c-24.5,0.4-37.3,10.3-43,33.1c-0.4,1.4-0.7,2.8-1.1,4.2
		c-9.1-1.1-17.5-1.1-26.6,0c-0.4-1.4-0.7-2.8-1.1-4.2c-5.7-22.7-18.6-32.6-43-33.1c0,0,0,0,0,0c-0.4,0-0.8,0.3-0.9,0.7
		c-0.1,0.4,0.1,0.8,0.5,1c3.7,1.5,12.9,7,17.6,26c2.6,10.3,5.7,12.9,11.3,12.9c2.3,0,5-0.4,8.2-1c1.9-0.3,4-0.6,6.4-1
		c2.8,10.5,6,19.7,14.2,19.7c8.2,0,11.4-9.3,14.2-19.7c2.4,0.3,4.5,0.6,6.4,0.9c3.3,0.5,6,1,8.2,1c5.6,0,8.7-2.6,11.3-12.9
		c4.7-18.9,13.9-24.5,17.6-26C770.9,264,771.1,263.6,771.1,263.2z"/>
	<path class="st0" d="M584,334.6c10.6,0,36.7-28.1,36.7-38.2c0-10.4-16-15.4-19.6-16.4c-0.2-0.1-0.4,0.2-0.3,0.4
		c5.7,8.4-17,43.2-25.7,43.9c-0.2,0-0.3,0.1-0.2,0.3C575.3,326.2,577.7,334.6,584,334.6z"/>
	<path class="st0" d="M822.3,334.9c-0.2,0-0.3-0.2-0.2-0.4c6.5-8.9,10.9-16.2,10.9-20.4c0-9.4-11.1-14.3-13.2-15.1
		c-0.2-0.1-0.3,0-0.3,0.2c-0.3,8-9.2,21.5-20.3,36.2c0,0.1-0.1,0.1-0.2,0.1c-10.9,1.3-20,4-23.7,7.7c-3.1,3.1-1.9,6-1.4,6.9
		c0.1,0.1,0.3,0.2,0.4,0.1c2.9-2.7,9.2-4.3,16.7-4.7c0.2,0,0.3,0.2,0.2,0.4c-1.3,1.6-2.5,3.3-3.8,4.9c-7.1,9.2-55.6,51.8-78.4,59.2
		c-0.2,0.1-0.4-0.1-0.3-0.3c3.7-12.1,38.5-54.2,49.7-55c0.2,0,0.3-0.2,0.2-0.3c-0.8-2.2-5.8-15.5-15.6-15.5
		c-8,0-24.5,12.2-40.5,27.2c-0.2,0.2-0.5-0.1-0.4-0.3c4.6-6.2,7.7-11.4,7.7-14.7c0-8.1-12.7-10.8-12.7-10.8c0,0.3,0,0.6-0.1,0.8
		c-1.8,14.9-49.6,59.8-74,68.5c-0.2,0.1-0.4-0.1-0.3-0.3c4.6-15,36.5-53.8,48.2-54.6c0.2,0,0.3-0.2,0.2-0.3c-0.7-2-5-13.6-10.7-13.6
		c-3.8,0-9.9,4.7-16.5,11.6c-0.1,0.1-0.3,0.1-0.4,0c-3.8-6.1-10.4-14.6-18.2-14.6c-8.4,0-19.5,7.7-29.5,17.9l0,0
		c-3,3-44.2,47.3-69.3,54.6c-0.2,0.1-0.4-0.1-0.3-0.3c3-12.1,37.9-54.7,48.9-55.5c0.2,0,0.3-0.2,0.2-0.3c-0.8-2-5.3-13.4-10.9-13.4
		c-4.4,0-11.4,5.8-18.7,13.9c-14.3,14.4-50.6,49.3-71.7,56c-0.2,0.1-0.4-0.1-0.3-0.3c3.1-12.7,39.5-55.1,49.9-55.9
		c0.2,0,0.3-0.1,0.2-0.3c-0.6-2.1-4.4-15.1-12.8-15.1c-8.6,0-38.1,3.1-46.4-4.6c-0.1-0.1-0.3-0.1-0.4,0.1c-0.5,1-2,4.4-2,8.9
		c0,5.9,2.8,9.8,7.5,11.4c0.2,0.1,0.2,0.3,0.1,0.4c-15.6,16.5-49.8,50.8-69.2,55.2c-0.2,0-0.3-0.1-0.3-0.3
		c3.4-14.2,36.9-54.8,48.4-55.6c0.2,0,0.3-0.2,0.2-0.3c-0.6-2-4.6-13.6-10.7-13.6c-4,0-10.6,5.3-17.5,12.7c-0.1,0.1-0.3,0.1-0.4,0
		c-3.7-6.3-10.3-15.6-17.6-15.6c-19.8,0-54.6,42.9-54.6,60.2c0,4,1.9,8.1,3.9,11.4c0.1,0.1,0,0.3-0.1,0.4c-2.2,0.6-4.4,1-6.4,1.1
		c-0.2,0-0.3,0.2-0.2,0.4c1.1,1.9,6.5,10.4,14.2,10.4c6.8,0,20.1-13.1,32.7-27.6c0.2-0.2,0.5,0,0.4,0.3c-1.2,2.8-1.8,5.1-1.8,6.7
		c0,9.2,10.3,17.4,11.5,18.4c0,0-0.1-0.1-0.2-0.1c1.5,1.2,3.4,2.1,5.7,2.1c16.5,0,56.7-47.3,71.9-65.8c0,0,0.1-0.1,0.2-0.1
		c7.1-0.8,14.5-3.2,20.5-5.7c0.3-0.1,0.5,0.2,0.3,0.4c-15.8,13.8-37.5,43.3-37.5,52.2c0,6.2,6,12.7,9.6,15.9c0.7,0.7,1.5,1.4,2.3,2
		c0.1,0.1,0.2,0.2,0.2,0.2s0,0,0,0c1.5,1.1,3,1.8,4.6,1.8c8.2,0,24.3-14.8,39.9-31.3c0.2-0.2,0.5,0,0.4,0.3
		c-2.1,4.2-3.3,7.7-3.3,9.8c0,7.6,4.7,13.6,7.8,16.7c0.8,0.8,1.6,1.6,2.6,2.3c0.1,0.1,0.1,0.1,0.1,0.1l0,0c1.7,1.2,3.6,2.1,5.6,2.1
		c8.8,0,24.9-16,38.9-32.1c0.2-0.2,0.5,0,0.4,0.2c-1,2.9-1.6,5.5-1.6,7.7c0,4.3,1.8,8.3,3.7,11.4c0.1,0.1,0,0.3-0.1,0.4
		c-2.1,0.6-4.2,1-6.1,1c-0.2,0-0.3,0.2-0.2,0.4c1.3,1.9,7.3,10.4,14.2,10.4c6.8,0,19.7-12.7,32-27c0.2-0.2,0.5,0,0.4,0.3
		c-1,2.5-1.6,4.6-1.6,6.2c0,3.7,1.3,7.1,2.9,10c0,0.1,4.9,10.5,12.5,10.5c7,0,21.2-13.7,35.3-29.4c0.2-0.2,0.6,0.1,0.4,0.3
		c-4.8,6.6-8.1,12.2-8.1,15.7c0,7.4,7.7,12.5,9.4,13.6c0.2,0.1,0.4,0,0.4-0.2c0.7-14.9,41.1-52.6,65.1-67.8c0.2-0.2,0.5,0.2,0.3,0.4
		c-15.3,16.4-33.5,41.3-33.5,48.8c0,6.8,9.6,19.4,16,19.4c9.6,0,31.1-20,49.1-38.6c0.2-0.2,0.5,0.1,0.4,0.3c-3.7,6-6,11.1-6,14.6
		c0,8,4.7,16.5,7.6,20.9c0.6,1,1.3,2,2,3c0,0,0,0,0,0l0,0c4,5.2,9.3,9.5,16.1,9.5c15.4,0,38.8-25.5,38.8-40.7
		c0-8.5-5.7-14.2-7.2-15.6c-0.2-0.1-0.4,0-0.4,0.2c-0.5,16.7-26.3,37.8-41.9,37.8c-2.3,0-4.2-0.4-5.8-0.9c-0.3-0.1-0.3-0.3-0.3-0.7
		c0-10.7,26.6-40.3,46.2-64.8c0.1-0.1,0.2-0.1,0.2-0.1c14.3,3,27,9.8,27.3,20.8c0,0.2,0.2,0.3,0.3,0.2c2.2-1,14.6-7.2,14.6-17.7
		C854.7,340.8,839.5,336,822.3,334.9z M356.8,408.1c-0.2,0.1-0.4-0.1-0.3-0.3c3.5-15.4,39.6-55.2,55-55.2c2.8,0,4.7,2.2,5.9,4.3
		c0.1,0.1,0,0.2,0,0.3c-0.6,0.7-1.3,1.5-1.9,2.3C404.8,370.9,377.8,399,356.8,408.1z M579.4,408.1c-0.2,0.1-0.4-0.1-0.3-0.3
		c3.5-15.7,39.6-55.2,55-55.2c2.5,0,4.6,1.7,6.1,3.6c0.1,0.1,0.1,0.2,0,0.3c-1,1.1-1.9,2.2-2.9,3.4
		C626.5,371.6,600.1,399.1,579.4,408.1z"/>
	<path class="st0" d="M402.2,419.5c0.1,0.1,0.1,0.1,0.1,0.1S402.3,419.6,402.2,419.5z"/>
	<path class="st0" d="M371.3,276.4c-0.2-0.1-0.5,0.2-0.3,0.4c1.3,1.5,3.3,4.5,3.3,8.9c0,22.5-72.7,114.8-114,129.8
		c-0.2,0.1-0.4-0.1-0.3-0.3c4-32.9,44.7-83,65.6-83.5c0.2,0,0.3-0.2,0.2-0.3c-0.8-2.4-6.8-18.2-17.7-18.2
		c-28.4,0-82.9,21.7-82.9,44.8c0,6.7,7.4,24.9,13.1,24.9c1.6,0,2.9-1.2,3.4-1.9c0.1-0.1,0-0.4-0.1-0.4c-1.1-0.2-3.9-1.2-3.9-6.3
		c0-23.7,30.9-43.6,59.5-50.4c0.3-0.1,0.4,0.3,0.2,0.5c-21.6,12.5-47.4,51.4-47.4,78.4c0,5.2,3.3,10.3,6,13.7c0.1,0.1,0,0.4-0.1,0.4
		c-6.3,1.5-11.6,0.8-15.6-2.6c-0.2-0.2-0.5,0-0.4,0.3c1.8,4.4,9.7,21.5,21,21.5c36.9,0,122.5-107.4,122.5-138.1
		C383.6,284.5,374.8,278.3,371.3,276.4z"/>
</g>
</svg>
