<?xml version="1.0" encoding="utf-8"?>
<!-- Generator: Adobe Illustrator 21.1.0, SVG Export Plug-In . SVG Version: 6.00 Build 0)  -->
<svg version="1.1" xmlns="http://www.w3.org/2000/svg" xmlns:xlink="http://www.w3.org/1999/xlink" x="0px" y="0px"
	 viewBox="0 0 1800 900" style="enable-background:new 0 0 1800 900;" xml:space="preserve">
<style type="text/css">
	.st0{display:none;}
	.st1{display:inline;fill-rule:evenodd;clip-rule:evenodd;}
	.st2{fill:#F3F3F3;}
	.st3{fill:#FFFCF8;}
	.st4{fill:#1A1A1A;}
	.st5{fill:#B9B9B9;}
	.st6{fill-rule:evenodd;clip-rule:evenodd;fill:#1A1A1A;}
	.st7{fill:#E6E7E8;}
	.st8{clip-path:url(#SVGID_2_);}
	.st9{clip-path:url(#SVGID_4_);}
	.st10{clip-path:url(#SVGID_6_);}
	.st11{clip-path:url(#SVGID_8_);}
	.st12{clip-path:url(#SVGID_10_);}
	.st13{clip-path:url(#SVGID_12_);}
	.st14{clip-path:url(#SVGID_14_);}
	.st15{clip-path:url(#SVGID_14_);fill:#1A1A1A;}
	.st16{clip-path:url(#SVGID_16_);}
	.st17{clip-path:url(#SVGID_18_);}
	.st18{clip-path:url(#SVGID_20_);}
	.st19{clip-path:url(#SVGID_22_);}
	.st20{clip-path:url(#SVGID_24_);}
	.st21{clip-path:url(#SVGID_26_);}
	.st22{clip-path:url(#SVGID_28_);}
	.st23{clip-path:url(#SVGID_30_);}
	.st24{clip-path:url(#SVGID_32_);}
	.st25{clip-path:url(#SVGID_34_);}
	.st26{clip-path:url(#SVGID_36_);}
	.st27{clip-path:url(#SVGID_38_);}
	.st28{clip-path:url(#SVGID_40_);}
	.st29{clip-path:url(#SVGID_42_);}
	.st30{clip-path:url(#SVGID_44_);}
	.st31{clip-path:url(#SVGID_46_);}
	.st32{clip-path:url(#SVGID_48_);}
	.st33{clip-path:url(#SVGID_48_);fill:#1A1A1A;}
	.st34{clip-path:url(#SVGID_50_);}
	.st35{clip-path:url(#SVGID_52_);}
	.st36{clip-path:url(#SVGID_54_);}
	.st37{clip-path:url(#SVGID_56_);}
	.st38{clip-path:url(#SVGID_58_);}
	.st39{clip-path:url(#SVGID_60_);}
	.st40{clip-path:url(#SVGID_62_);}
	.st41{clip-path:url(#SVGID_64_);}
	.st42{clip-path:url(#SVGID_66_);}
	.st43{clip-path:url(#SVGID_68_);}
	.st44{clip-path:url(#SVGID_70_);}
	.st45{clip-path:url(#SVGID_72_);}
	.st46{fill:#00A651;}
</style>
<g id="bg" class="st0">
	<rect x="968.4" y="-11" class="st1" width="1138.4" height="814.7"/>
	<rect x="-305.2" y="-0.6" class="st1" width="1130.4" height="781.3"/>
</g>
<g id="Layer_1">
	<rect x="-19.2" y="-14.5" class="st2" width="1838.4" height="928.9"/>
	<g>
		<path class="st4" d="M1326,256.6c0,8.8-1.7,12.7-5.9,20.1c-2.8,5.1-6.2,9.6-9.3,14.4c-1.2,1.9-1.2,4.1-2.4,5.9
			c-1.2,1.9-3.3,3-4.7,4.8c-3.7,4.9-8.3,11.9-10.6,17.4c-2.2,5.5-5.8,9.5-8.9,14.7c-1.7,2.8-2.4,5.7-4.6,8.3c-2.5,3.1-5.1,6-6.6,9.8
			c-1,2.5-0.9,4.9-1.8,7.4c-1.2,3.2-4.4,5.5-6.5,8c-5.2,6.4-6.7,13.9-10.7,21c-1.6,2.8-3.8,4.6-5.5,7.2c-1.8,2.8-1.3,5.6-2.6,8.5
			c-1,2.2-3,3.2-4.3,5.1c-2.1,3.3-3.1,8.1-4.3,11.8c-1.9,6-3.9,11.7-6.5,17.2c-0.9,2-2.7,2.9-3.4,5c-1.1,3.3-0.5,7-1.8,10.3
			c-1.3,3.4-4,6.2-4.6,9.9c-0.6,3.4,1.1,5.9,1.2,9.2c0,2.3-1.6,4.1-1.6,6.3c0,3.4,2.8,9.4,4.2,12.3c5.4,10.9,17.5,12.7,28,8
			c3.1-1.4,5-2.4,7-5c2-2.7,2.9-5.3,6-7.1c3.5-2.1,4.6-1.8,6.8-5.4c1.8-2.8,3.9-5.1,5.7-7.9c2.7-4.2,4.8-8.6,6.9-13.1
			c1.2-2.6,3.4-4.4,4.3-7.1c0.9-2.9,0.5-5.9,1.5-8.8c1.5-4.2,4.3-8.1,5.7-12.3c2.1-6,0.2-13.6,6.2-18.3
			c12.7-9.9,20.1,14.5,21.9,22.1c1.8,7.9-0.6,13.1-2.9,20.3c-2.4,7.2-6.4,12.6-9.5,19.3c-2.5,5.3-4.7,11.3-7.7,16.2
			c-1.8,2.9-5.1,3.9-7,6.6c-2.1,3-2.8,4.1-5.8,6.6c-4.7,3.9-8.7,9.4-12.7,14c-2.7,3-4.9,5.4-8.5,7.6c-4,2.5-7.5,1.5-11.6,3
			c-2.7,1-4.7,3.2-7.6,3.9c-3.1,0.7-5.1-1-8-1.1c-3.3-0.1-5.5,1.2-9,0.7c-3.5-0.5-6.9-1.6-10.1-2.9c-6.5-2.7-11.6-4.5-16.3-9.9
			c-4.9-5.6-9.4-10.4-12.6-17.2c-1.9-4-4-12.5-10-12.1c-2.7,0.2-6,3.3-7.8,5.2c-3.2,3.4-3.8,4-8,5.7c-10.8,4.3-21.1,12-33.8,10.5
			c-3.2-0.4-4.3-1.6-7-2.8c-2.8-1.2-5.4-0.9-8.3-1.2c-4.8-0.6-10.9-3.9-14.4-7.6c-2.9-3-6-6.7-7.2-10.6c-2.1-6.9-6.5-13.2-14-6.8
			c-3.6,3.1-6.1,8.4-10.4,10.7c-2.6,1.4-5.3,0.9-7.8,2.5c-3.6,2.2-4.1,4.5-8.3,5.5c-4.8,1.2-12.5,3.1-17.4,2.4
			c-3.6-0.5-8.7-3.3-12.3-4.4c-3.2-1-5.6-1.6-7.8-4.4c-1.9-2.5-2.3-5.7-4-8.3c-1.4-2.2-3.6-3.5-4.9-5.8c-3.6-6.2-0.8-17.9-10.3-14.7
			c-5.6,1.9-13.1,5.1-17.5,9.2c-2.4,2.2-3.5,5-6.3,7c-3.4,2.3-7.6,2.5-11,4.6c-2.6,1.7-4.1,4.2-6.9,5.7c-3.3,1.8-6.3,2.9-9.4,5.2
			c-5.6,4.1-14.2,7.2-21.2,8.4c-6.4,1.1-13.3,0.4-19.7,2c-6.4,1.6-12.8-0.1-19.5-0.5c-3.7-0.3-5.3-1.6-8.3-3.6
			c-3-2.1-6.7-2.7-9.6-4.5c-6-3.5-8.5-12-13.4-16.9c-5.8-5.9-10.4-0.6-13.9,4c-4,5.3-8.4,10.5-12.5,15.6c-3.2,4-8.8,7.1-13.2,9.6
			c-2.7,1.5-4.8,3.8-7.8,4.7c-1.7,0.5-3.7-0.2-5.5,0.3c-1.8,0.6-3.1,2.6-5,3c-5.4,1.1-13.7-1.1-19.2-1.9
			c-8.1-1.2-12.3-4.6-17.9-10.4c-8.7-9-12.6-27.9-9.6-40.1c1.5-6.3,1.6-11.4,4.2-17.4c1.4-3.4,0.8-5.4,1.2-8.7
			c0.4-3.5,2.2-7,3.5-10.3c1.1-2.9,3-4.6,4.5-7.1c1.7-2.9,0.7-4.7,1.8-7.4c2.4-6.4,5.9-11.7,9.5-17.6c3.3-5.4,4.1-11.2,7.8-16.5
			c3.7-5.4,5.5-12.2,8.9-17.8c3-5,7.4-9.9,11.8-14.1c4.2-4,10.3-11,16.7-11.2c6.3-0.2,12.4,5,14.7,10.1c3,6.5-0.1,13.5-3.8,19.6
			c-2,3.2-5.2,5.2-7.4,8.2c-2.1,2.8-2.6,5.9-4.5,8.8c-3.1,4.9-6.6,9.5-10,14.2c-3.4,4.7-4.6,9.4-6.4,14.7c-2,6-7.5,9.5-8.7,16.1
			c-0.6,3.5-0.6,7.2-2.6,10.3c-1.8,2.9-3.8,4.1-5.1,7.5c-2,5.1-2.1,10.5-3,15.7c-1.1,6.3-3.2,14.4,0.5,20.4
			c3.9,6.2,10.1,3.5,15.1-0.3c2.4-1.8,4.3-3.8,6.9-5.5c2.9-1.9,2.7-3.2,5.2-5.6c1.5-1.4,3.8-1.8,5.4-3.3c2.7-2.4,2.7-5.6,4.7-8.4
			c3.8-5.1,9.2-8.5,12.3-14.1c1.7-3.1,2.5-3.7,5.1-5.9c3.7-3,3-5.1,4.6-9.4c2.3-6.1,6.3-8.8,9.8-13.7c3.2-4.4,5.9-12.6,7.6-17.8
			c2.1-6.4,3.9-10.1,7.8-15.4c2-2.7,1-5.1,2.4-7.8c1.6-3.3,5.1-3.7,7.2-6.5c3.7-4.7,5.4-11.1,9.4-15.6c3.3-3.7,8.4-9.5,12.3-12.2
			c4.8-3.2,10.2-5.2,14.8-9.3c1.6-1.5,3-3.9,4.8-5c2.3-1.4,4.9-0.9,7.2-2.1c4.5-2.4,3.4-2.3,8.7-2.9c3.4-0.4,6.4-1.7,9.9-1.9
			c6.7-0.3,10.5-1.8,17.3,0c3.4,0.9,7,1.8,10.1,3.3c1.9,0.9,6,2.7,7.8,4.1c2.2,1.8,2.7,3.7,3.6,6.3c1.1,3.4,2.9,4.6,4.2,7.6
			c2.2,5.2,0.8,13.7,0.4,19.1c-0.2,3.1-1.2,6.5-2.3,9.3c-1.1,2.8-1.8,6.7-3.3,9.2c-1.4,2.4-4.4,4.1-6.1,6.5
			c-1.9,2.7-3.3,5.9-5.4,8.6c-3.6,4.9-8.7,9.3-13.1,13.5c-1.7,1.6-3.8,4.1-5.8,5.5c-2.6,1.8-5.9,1.9-8.7,3.5c-3.1,1.8-5,3.5-8.5,4.8
			c-3.8,1.5-6.3,4.1-9.9,5.7c-3,1.3-6.5,1.1-9.6,2c-3.2,0.9-5.9,2.8-9.2,3.5c-6.3,1.2-12.1-2.3-17.9,1.7c-1.8,1.2-6.4,4.4-7.5,6.1
			c-1.7,2.7-0.3,5-0.8,7.8c-0.9,6-1.6,13,3.3,18.2c1.4,1.5,8.8,6.4,10.7,6.9c2,0.6,6.4,0.7,8.5,0.7c2.9,0.1,5.5-1.1,8.4-1.2
			c6.1-0.2,7.6-0.7,13.5-3.1c5.5-2.2,11.8-3.1,17.3-5.7c2.9-1.4,4.9-4,7.7-5.5c3.5-1.9,5.6-1.5,8.1-4.7c2.2-2.8,2.2-4.3,5.6-6.4
			c2.9-1.7,4.7-3.6,7.3-5.6c3-2.3,6.4-3.1,9.3-5.7c2.8-2.5,5.2-5.5,7.9-8.1c2.5-2.3,5.4-4.6,7.5-7.2c2-2.5,3.1-5.3,5-7.8
			c3.6-4.7,8.5-8.2,12.1-12.5c2.8-3.4,4-8.2,6.2-11.9c3-5.1,7.3-9.5,10.3-14.3c5.7-9,8.7-18.8,15.2-27c3.9-4.9,6.4-10.9,9-16.6
			c3.2-6.8,7.8-11.8,11.8-17.9c3.2-4.9,4.9-9.3,7.6-14.5c3.1-6.1,9-10.4,12.1-16.6c5.4-11,12.2-20.2,19.7-29.6
			c2.9-3.7,8.1-10.7,12.7-12.2c4.3-1.4,12.4,0.4,16,3c11.9,8.5,0.5,27.7-6.5,35.3c-1.7,1.9-3.2,3.5-5.1,5.2
			c-2.9,2.5-3.5,4.5-5.4,7.8c-1.5,2.5-3.7,3.9-5.3,6.2c-1.7,2.5-2.9,5.7-4.3,8.3c-2.7,5.1-6.1,9.1-8.8,14.1
			c-1.3,2.4-3.1,6.1-4.8,8.2c-2.7,3.3-5.2,4.2-7.2,8.3c-3.2,6.6-4.8,14.2-8.5,20.4c-3.8,6.3-7.1,12.3-10.3,18.9
			c-1.4,2.8-3.9,4.5-5.3,7.2c-1.6,2.8-1.7,6.1-2.7,9.1c-2.3,7-6.3,12.4-10,18.5c-2.8,4.7-2.7,10.1-5,14.9c-2.8,6-5.9,13.3-7.3,19.7
			c-1,4.6-1.3,11.4-0.4,16c0.6,3,1.8,5,4.4,7c3.4,2.5,5,1.2,8.9-0.6c5.5-2.5,9.5-6.7,13.6-11c2.3-2.4,5.1-4.5,7.2-7
			c2.2-2.6,3.1-5.9,5.6-8.3c2.1-2.1,3.9-2.7,5.4-5.5c2.2-3.8,2.9-6.9,6-10.3c5.1-5.6,8-11.8,12.7-17.7c4.1-5.1,7.5-10.6,11.5-15.7
			c3.6-4.5,6.6-10.3,9.2-15.6c5.8-11.6,18-21,27.8-29.2c2.2-1.8,3.9-2.7,6.3-3.9c3.1-1.6,5.1-3.9,8-5.6c5.5-3.1,12.7-4.1,18.7-5.8
			c11.2-3.1,23.6-1,34.2,2.8c3.3,1.2,4.8,2.3,7.6,4.5c2.1,1.8,5.3,3.5,8.2,3.5c6,0,9-6.1,11-10.7c5.2-11.7,15.3-21.1,19.9-32.7
			c2.1-5.2,5.6-9.6,8.1-14.4c1.4-2.7,3.3-4.7,4.9-7.3c1.9-3.3,3-7.8,5.4-10.8c1.7-2.2,4.1-3.2,5.7-5.5c1.4-2,2.2-4.4,3.7-6.5
			c3-4.4,5-10.6,8.8-14c1.7-1.5,6.7-4.3,9.3-4.4c3.2,0,4.5,2.3,7.2,3.7c2.6,1.4,4.8,1.2,6.1,4.3
			C1325.9,248.9,1326.1,256.6,1326,256.6z M1145.9,476.4c3.7,0.3,9.2-4,12.4-5.8c4.9-2.8,7.9-6.1,12.1-9.5c3.8-3.1,6.7-6.5,9.8-10.2
			c3.5-4.3,8.5-6.8,11.2-12c2.6-4.9,3.5-8.6,7.6-12.8c4-4.1,6.2-7.9,7.7-13.3c1.6-5.5,4-10.5,6.3-15.6c2.2-4.7,1.1-9.6,2-14.7
			c1.6-9.1-5.3-17.3-14.9-17.2c-4.4,0-8.3,1.2-11.9,3.5c-4.4,2.8-8.5,4.1-13.2,6.2c-5.4,2.4-6.5,7.4-11.1,10.6
			c-4.5,3.1-7.3,7-10.9,11.4c-2.9,3.5-6.1,7.1-8.6,10.7c-3,4.3-4.4,9.7-7.2,14.4c-2.7,4.6-4.8,9.4-4.6,15c0.1,3.4,0.8,6.1-0.5,9.4
			c-1.2,2.9-2.6,4-2.6,7.1c0,4.6-0.6,12.1,1.4,16.4C1134.5,478,1139.3,475.3,1145.9,476.4z M952.9,353.3c-2-0.2-7.4,3.7-9.6,4.3
			c-4.3,1.2-8.4,2.2-12,5.1c-6,4.6-11.3,11.3-17.2,16.3c-3.1,2.6-3.1,5.8-5.4,8.8c-2.7,3.5-4.9,3.8-6.6,8.1c-4,10.2,3.5,9.8,11.3,7
			c6.2-2.3,11.9-5.2,17.9-7.9c4.5-2,12.1-7.5,15.3-11.3c1.6-1.9,2.3-4.5,4-6.5c2-2.3,4.4-4.4,6.1-7
			C960.7,364,963.5,353.7,952.9,353.3z"/>
		<path class="st4" d="M654.4,313.7c0,9.1,1.3,17.6-0.1,26.5c-0.8,5-0.4,8.9-2.3,13.8c-1.6,4-1.9,9.1-4,12.8
			c-4.2,7.6-8.6,16-14.3,22.7c-2.4,2.9-3,4.4-4.3,7.9c-1.9,5-6.1,8.3-8.3,13.1c-1.7,3.7-3.9,5.7-5.9,9.1c-2,3.2-2.5,5.9-5.1,8.8
			c-6.3,7.1-9.8,14.9-14.3,23.2c-1.8,3.4-4,6-6,9.2c-2.7,4.3-2.3,9.4-4.3,13.8c-1.6,3.6-4.5,6.7-6.9,9.7c-3.4,4.1-2.1,6.7-3.6,11.4
			c-1.2,3.7-2.6,4.3-2.4,8.6c0.2,4.4,1.1,8.8,5.1,11.3c4.2,2.7,8,1.2,12-0.4c3.8-1.5,5.4-3.3,8.9-5.3c7.6-4.3,15.1-10.2,19.7-17.7
			c1.8-2.9,4.8-5.6,7.1-8.2c3.2-3.5,5.9-7.4,9.3-10.6c2.7-2.5,5.6-4.8,7.4-8.1c1.7-3,2-6.2,4.2-9c3.1-3.8,7.4-6.1,10.4-10.1
			c3.2-4.2,4.8-9.3,8-13.7c2.2-3.1,5.7-5,7.8-8c2.9-4,2.8-7.2,6.5-10.8c6.6-6.5,9.5-17.5,15.2-24.9c2.1-2.7,4.3-5.3,6-8.4
			c2.3-4.2,3.1-7.8,6.5-11.4c2.7-2.9,5.2-5.2,6.2-9.1c0.3-1.3,0.1-3.6,0.7-5c1.1-2.4,3.4-3.2,4.6-5.4c1.8-3.1,2.4-6.8,4.3-10
			c2.1-3.5,4-7.1,6.4-10.4c2.5-3.5,3.6-5.5,5.1-9.4c1.7-4.6,5.6-7.7,8.2-11.7c3.2-4.9,5.2-15.1,11.3-17.2c2.6-0.9,4.3,0.4,6.8,0.4
			c2.3,0,5-1.5,7.2-0.8c4.3,1.4,7.4,9.2,7.6,13.2c0.2,3.3-0.2,7.2-1.2,10.3c-1.3,3.9-1.9,7.8-3.1,11.8c-1.1,3.6-4,7.2-5.8,10.5
			c-2.1,3.9-2.9,8.1-5.1,12.1c-7.2,12.9-15.3,26.6-19.3,40.8c-2.4,8.3-7.7,15.8-11.2,23.6c-3.5,7.7-8.7,14.7-11.5,22.7
			c-0.7,2.1-0.3,4.1-1.4,6c-0.9,1.6-2.7,2.4-3.7,3.9c-1.7,2.6-1.8,5.2-3.2,7.9c-2,3.6-4.7,6.4-6.2,10.5c-2,5.5-3.2,11.3-5.1,16.8
			c-1.5,4.4-3.5,6.5-6.1,10c-2.7,3.5-2.4,6.9-4.2,10.9c-1.5,3.1-4.5,4.3-5.9,7.4c-0.8,1.8-0.4,3.9-1.3,5.8c-0.9,2-2.6,4.2-3.6,6.2
			c-3.4,6.4-5.5,13.4-9.2,19.7c-4.8,8.2-7.3,17.3-11.5,25.8c-3.5,7-7.4,14.7-9.8,22.2c-1.3,4-3,5.2-5.2,8.4c-2.7,4-3.9,9.7-5.7,14.2
			c-2,4.9-4.2,9.5-5.9,14.5c-1.3,3.6-3.3,4.8-5.1,7.8c-1.9,3.2-1.8,7-3.3,10.2c-2.3,4.9-5.7,8.6-9.7,12.2c-3,2.7-4.1,3.9-8.3,3.9
			c-2.6,0-9.5-0.2-11.8-1.9c-7.6-5.4-5.1-18.9-1-24.9c2-2.9,1.4-5.6,2.4-8.8c1.1-3.7,4.4-6.7,6.2-10.2c2.1-4,2.8-8,5.1-11.8
			c2.6-4.5,3.4-7.1,4.8-12c1.4-5.1,4.3-7.2,7.5-11c3-3.5,3.2-7.6,4.7-11.9c1.3-3.7,3.2-6.8,4.6-10.4c2.1-5.2,2.1-10.4,5.4-15.3
			c2.5-3.6,5.5-7.2,7-11.4c1.6-4.5,0.6-8.7,2.9-13.3c1.1-2.2,5.7-7.6,1-8.5c-5.2-1-9.6,9-12.4,11.7c-5.7,5.5-12.1,9.8-18.1,14.4
			c-1.5,1.2-2.1,2.2-3.9,3.3c-2.3,1.4-4.7,1.9-7,3.7c-4.9,4-8.6,3.6-14.7,5.4c-3.7,1.1-5.6,2.9-9.8,1.9c-2.3-0.5-4.3-1.6-6.6-2
			c-1.9-0.3-4.9,0.2-6.7-0.4c-6.5-2.3-12.9-8.6-16.4-14.5c-8.2-14-9-33.6-2.6-48.6c1.2-2.9,1.9-6.4,3.3-9.1c1-1.9,3.2-2.7,4.2-4.6
			c1.1-2.1,0.7-4.5,1.6-6.6c1.4-3.3,5.1-6.2,7-9.5c2.7-4.6,3.8-9.7,5.9-14.5c3.9-9.1,9.1-16.8,14.2-25c5.4-8.7,12-18.7,16-28.1
			c1.5-3.6,2.4-5.1,5.2-8.5c3-3.7,2.5-6.6,4.3-10.7c1.4-3.3,4.3-7.9,6.3-10.8c3-4.2,4-4.8,5.1-9.7c1.6-7.4,6.1-15.4,5.6-23.3
			c-0.2-4-2.1-8.6-3.1-12.4c-1.2-4.7-3.2-6.4-8.3-7.2c-7.7-1.2-17,3-24,6.2c-7.5,3.4-13.4,9.1-20.4,13c-6.2,3.5-9,9.9-13.7,14.5
			c-6.5,6.4-16.8,11.8-20.6,20.4c-3.4,7.6-8.5,14.4-13.2,21.1c-4.4,6.3-5.3,13.2-9.5,19.2c-4.5,6.2-5.4,19-0.2,25.5
			c2.6,3.2,7.7,2.4,9.8,6.3c2.8,5.1-0.4,9.3-3.2,13.2c-5.2,7.1-13.4,11.3-22,7.6c-7.6-3.2-15.3-10.2-16.8-18.5
			c-0.8-4.4-3.5-10.3-3.4-14.6c0.1-3.5,2.3-5.9,2.2-9.5c-0.1-8.7,2.2-17.4,3.4-26.1c0.6-3.9-0.2-6.5,2.2-10.3
			c2.3-3.7,4.8-6.9,6.8-10.8c3.7-7,6.4-13.3,11.3-19.7c4.7-6.3,10.4-11.6,16.4-16.7c5.5-4.7,10.8-10,16.5-14.1
			c3.1-2.2,5.4-5.2,8.3-7.7c1.7-1.5,2.9-3.6,4.9-4.8c1.9-1.1,4-0.9,5.9-1.8c7.3-3.4,13-11.1,20.7-13.9c4.5-1.6,9.3-2.1,13.7-3.6
			c3.4-1.1,5.7-3.8,9.2-4.9c4.8-1.5,8.8-0.3,13.6,0.2c2.2,0.2,4.5,0.5,6.7,0.7c3.3,0.3,7-0.9,10.2-0.2c4.1,0.9,5.6,4.5,8.6,6.9
			c3.5,2.7,6.4,4.1,9.6,7.4C650.2,295,655.7,304.7,654.4,313.7z"/>
		<path class="st4" d="M761.9,564.9c3.8,0.7,9.6-2.3,13.4-3.1c5.1-1,10.8,0,15.7-1.4c4.4-1.3,6.3-2.9,11.3-2.9
			c5-0.1,8.4-2.8,13.2-3.1c3.7-0.2,6.7-0.9,10.3-1.5c5-0.8,10,0.6,15.1-0.3c9-1.5,16.9-3,26.1-2.8c5.1,0.1,9.2-2.6,14.2-3.5
			c5.1-0.9,9.6,0.6,14.5,1c2.7,0.2,4.1-0.8,6.5-1.5c3.8-1.2,3.3-0.5,6.9-0.4c5,0.1,10.2-1.5,15.3-1.7c5-0.2,10-0.3,15-0.6
			c2.5-0.1,5.7,0.3,8.2-0.1c2.5-0.3,3.7-1.5,6.4-1.5c4.6,0.1,9.3,0.5,14.1,0.5c2.3,0,4.7,0,6.9-0.1c3.2-0.1,5.6-1.7,8.7-1.9
			c9.3-0.7,19.1,0.7,28.4,1.1c3.9,0.2,7.2-1.1,10.8-1.9c5.9-1.2,10.9,0.9,16.8,1.5c8.2,0.7,16.1-2,24.4-0.4c2.6,0.5,4.3,1.8,7.1,1.7
			c1.8,0,3.5-1.3,5.3-1.4c2.5-0.1,3.5,0.8,5.8,1.4c2.9,0.8,4.2,0.2,7.2,0.2c8.6-0.1,17.1-0.2,25.5,1.1c1.8,0.3,2.9,1.8,4.8,2
			c2.3,0.3,4.7-0.6,7-0.7c5.8-0.2,10.2,3.3,15.7,4c5,0.7,8.5-1.2,13.4,0.4c3.5,1.2,6,1,9.8,1.7c4.7,0.8,9.4,3,13.6,5.1
			c4.3,2.1,8.8,3.6,13,5.7c7,3.5,12.3,13.4,17.2,19.1c5.6,6.5,3.2,18.1-2.3,24.4c-5.2,6-17,5.6-22.6,0c-3.8-3.8-2.2-8.3-6.4-11.9
			c-3.4-2.9-7.6-5.9-11.4-7.8c-2.9-1.4-5.6-3.5-8.8-4.7c-4.2-1.5-8.9-0.8-13.2-1.3c-4.2-0.4-7.8-3.3-11.9-3.4
			c-2.3-0.1-4.3,1.7-6.6,1.7c-2.7,0-4.4-1.7-7-2.2c-5.1-0.9-11.4-0.4-16.6-0.9c-5.1-0.5-9.6-0.7-14.8-1.6c-9-1.6-17.3-1.9-26.2-1.7
			c-4.9,0.1-9.2,0.6-14.3,0.2c-2.7-0.2-3.4,0-6.1,0.2c-2.9,0.2-4.3-0.5-7.1-0.9c-4.3-0.5-7,1.7-10.8,2.1c-3.2,0.3-4.3-1.7-7.1-2.2
			c-3.4-0.6-5.8,1.5-9.1,1.7c-2.8,0.2-4.9-1.1-7.5-1.3c-2.2-0.1-4.2,0.6-6.4,0.6c-2.6,0.1-5.1-1-7.7-0.7c-1.8,0.2-2.9,1.6-4.7,1.8
			c-4.8,0.5-9.2-1.8-14.2-0.4c-2.4,0.7-3.9,1.9-6.5,1.9c-3.2,0.1-5.8-1.1-9.2-0.7c-2.7,0.4-5.2,1.7-8,1.3c-2.4-0.3-4.2-2.1-6.6-2.3
			c-1.8-0.2-3.3,1.2-5,1.4c-2.2,0.2-4.3-0.2-6.5-0.2c-9.8,0-18.5,4.6-28.1,4c-6.1-0.4-11.9-0.1-17.9,1.4c-8.1,2.1-16.4,1.3-24.5,2.9
			c-5.1,1-9.5,1.7-14.7,2.1c-5,0.4-9.2,0.6-14,1.8c-4.9,1.2-9.5,1.1-14.5,2.5c-2.1,0.6-5.2,1.5-7.4,1.8c-2.9,0.4-5.3-1.1-8.1-1
			c-1.9,0.1-3.5,1.5-5.3,1.8c-3.4,0.6-6.3,0.4-9.7,1.5c-5.2,1.7-9.4,2.6-15,3.1c-6.1,0.6-9,2.1-14.6,4.4c-5,2.1-9.5,1.2-14.6,1.9
			c-2.4,0.3-5.9,1.2-8.1,2.3c-2.6,1.3-4,4.1-6.6,5.3c-4.3,2-8.9,0-13.2-1c-4.5-1.1-10.1-4.7-12.3-9.1c-2.9-6,2.2-10.5,6.4-14
			c6.6-5.6,18-10,26.4-12.3c4.9-1.4,10.2-3,15.3-4C750.4,568.8,756.1,564.9,761.9,564.9z"/>
		<path class="st4" d="M852.1,309.1c-6.8,0-9.2-2.6-12.3-8.6c-2.2-4.3-4.3-11.3-1.6-15.9c0.8-1.3,2.4-1.9,3.3-3.1
			c2.1-2.8,2.4-6.7,5.4-8.9c4.2-3,11.5-4.1,16-3c5.8,1.5,10.4,2.6,13.2,8.2c2.6,5.3,0,8.1-1.6,13.2c-1.9,6.1-4.1,10.2-9.5,14.3
			C864.3,305.9,852.2,311.5,852.1,309.1z"/>
	</g>
</g>
</svg>
