<svg height='300px' width='300px'  fill="#000000" xmlns="http://www.w3.org/2000/svg" xmlns:xlink="http://www.w3.org/1999/xlink" version="1.1" x="0px" y="0px" viewBox="0 0 100 100" style="enable-background:new 0 0 100 100;" xml:space="preserve"><path d="M90.25977,44.88525H12.16553l11.09863-11.09863c0.58594-0.58545,0.58594-1.53564,0-2.12109  c-0.58594-0.58594-1.53516-0.58594-2.12109,0L7.64709,45.1615c-0.38428,0.27161-0.63684,0.71729-0.63684,1.22375  c0,0.00769,0.00214,0.01483,0.00226,0.02252c-0.00018,0.01642,0.00446,0.03192,0.00488,0.04834  c0.00696,0.14667,0.03552,0.28662,0.0816,0.41931c0.02704,0.08423,0.06592,0.16022,0.10822,0.23956  c0.0379,0.06738,0.0799,0.13116,0.12732,0.19165c0.04224,0.05621,0.06396,0.12219,0.11517,0.17334l13.79248,13.79248  c0.29297,0.29297,0.67676,0.43945,1.06055,0.43945s0.76758-0.14648,1.06055-0.43945c0.58594-0.58594,0.58594-1.53516,0-2.12109  L12.09717,47.88525h78.1626c0.82812,0,1.5-0.67139,1.5-1.5S91.08789,44.88525,90.25977,44.88525z"></path></svg>