<?xml version="1.0" encoding="utf-8"?>
<!-- Generator: Adobe Illustrator 21.1.0, SVG Export Plug-In . SVG Version: 6.00 Build 0)  -->
<svg version="1.1" id="Layer_1" xmlns="http://www.w3.org/2000/svg" xmlns:xlink="http://www.w3.org/1999/xlink" x="0px" y="0px"
	 viewBox="0 0 300 300" style="enable-background:new 0 0 300 300;" xml:space="preserve">
<style type="text/css">
	.st0{fill:#F9B110;}
</style>
<title>01_computer_speaker</title>
<g>
	<path class="st0" d="M241.1,187L113.7,74.7c-2.2-2-5.4-2.4-8-1.2c-2.7,1.2-4.4,3.9-4.4,6.8v169.8c0,3.1,1.9,5.9,4.8,7
		c2.9,1.1,6.2,0.4,8.2-1.9l32.6-35.7l17.1,38c0.8,1.8,2.3,3.2,4.2,3.9c0.9,0.3,1.8,0.5,2.7,0.5c1.1,0,2.1-0.2,3.1-0.7l27.3-12.3
		c3.8-1.7,5.5-6.1,3.8-9.9l-17.1-38l48.3-0.9c3.1-0.1,5.8-2,6.9-4.9C244.2,192.4,243.4,189.1,241.1,187z"/>
	<path class="st0" d="M103.5,50.4l-9.3-20.5c-1.7-3.8-6.1-5.5-9.9-3.7c-3.8,1.7-5.5,6.1-3.7,9.9l9.3,20.5c1.3,2.8,4,4.4,6.8,4.4
		c1,0,2.1-0.2,3.1-0.7C103.5,58.6,105.2,54.2,103.5,50.4z"/>
	<path class="st0" d="M57.5,69l21,8c0.9,0.3,1.8,0.5,2.6,0.5c3,0,5.9-1.8,7-4.9c1.5-3.9-0.5-8.2-4.4-9.7l-21-8
		c-3.9-1.5-8.2,0.5-9.7,4.4C51.7,63.2,53.6,67.5,57.5,69z"/>
	<path class="st0" d="M78.8,85.6l-20.5,9.3c-3.8,1.7-5.5,6.1-3.7,9.9c1.3,2.8,4,4.4,6.8,4.4c1,0,2.1-0.2,3.1-0.7L85,99.3
		c3.8-1.7,5.5-6.1,3.7-9.9C87,85.6,82.6,83.9,78.8,85.6z"/>
	<path class="st0" d="M128.8,71.3c1.3,2.8,4,4.4,6.8,4.4c1,0,2.1-0.2,3.1-0.7l20.5-9.2c3.8-1.7,5.5-6.1,3.8-9.9s-6.1-5.5-9.9-3.8
		l-20.5,9.2C128.8,63.1,127.1,67.5,128.8,71.3z"/>
	<path class="st0" d="M116.6,59.8c0.9,0.3,1.8,0.5,2.6,0.5c3,0,5.9-1.8,7-4.9l8-21c1.5-3.9-0.5-8.2-4.4-9.7
		c-3.9-1.5-8.2,0.5-9.7,4.4l-8,21C110.7,54,112.7,58.3,116.6,59.8z"/>
</g>
</svg>
