<?xml version="1.0" encoding="utf-8"?>
<!-- Generator: Adobe Illustrator 21.1.0, SVG Export Plug-In . SVG Version: 6.00 Build 0)  -->
<svg version="1.1" id="Layer_1" xmlns="http://www.w3.org/2000/svg" xmlns:xlink="http://www.w3.org/1999/xlink" x="0px" y="0px"
	 viewBox="0 0 1920 784.1" style="enable-background:new 0 0 1920 784.1;" xml:space="preserve">
<style type="text/css">
	.st0{fill:#FFFCF8;}
	.st1{fill:#1A1A1A;}
</style>
<rect x="-8.2" y="-115" class="st0" width="1936.3" height="1014"/>
<g>
	<path class="st1" d="M362.3,140.2c-119.1,0-270.7,173.2-270.7,272.1c0,47.2,49.8,66.9,61.2,70.8c0.6,0.2,1.2-0.5,0.7-1.1
		c-2.8-3.7-8.3-13.1-8.3-30c0-91.4,136-265.8,241.9-265.8c29.3,0,45,20.4,45,50.4c0,77.1-87.6,278.9-154.4,278.9
		c-6.2,0-11.4-1.5-15.7-3.5c-0.3-0.2-0.5-0.6-0.3-0.9C301.4,421.1,366,298,366,270.6c0-17.4-32.3-29.4-47-38.3c-0.4-0.3-1,0-1,0.6
		c-2.2,47.2-131.9,307.8-131.9,343.7c0,14.4,24.1,49.4,38.6,49.4c7.1,0,13.8-5.7,18.6-11.1c0.4-0.4,0.1-1.1-0.5-1.1
		c-5.4-0.4-11.5-6.2-11.5-13.8c0-13.5,9.4-40.1,23.3-72.6c0.2-0.4,0.7-0.6,1.1-0.2c13.7,12.6,33.1,27.5,47.8,27.5
		c77.9,0,180.3-207.3,180.3-296.2C483.8,205.3,415.1,140.2,362.3,140.2z"/>
	<path class="st1" d="M1797.2,397.8c-0.4-0.4-1.1-0.1-1.1,0.5c-1.7,63.5-103.7,186.8-164.2,186.8c-9.8,0-17.8-2.6-23.9-5.7
		c-0.2-0.1-0.3-0.2-0.3-0.4c-2.9-8-5-18.2-5-31.3c0-15.3,2.9-34.8,8.2-56c0.2-0.6,1-0.7,1.3-0.2c7.8,14.8,19.3,28,35.4,28
		c43.2,0,113.6-121.7,113.6-167.5c0-20.5-13.6-29.6-24.9-33.6c-0.2-0.1-0.3-0.2-0.4-0.3c-1.4-3.2-14.9-33-39.8-33
		c-30.1,0-58.9,29.9-82,69.4l0,0c-0.1,0.1-0.1,0.2-0.2,0.3c-3.4,5.8-6.7,11.8-9.8,17.9c-27.7,51.2-74.9,139.2-119.8,165.1
		c0-0.9,0-1.9,0-2.9c0-40.9,87.3-185.9,87.3-219.2c0-23.1-34.4-32.3-40.1-33.7c-0.4-0.1-0.8,0.2-0.8,0.6
		c-0.9,13.3-24.2,31.7-48.4,39.5c-0.5,0.2-1-0.4-0.9-0.9c12.6-36.5,20.6-67.2,20.6-82.6c0-20.4-27-45.9-45-45.9
		c-30.7,0-58.1,55.5-58.1,89.2c0,32.7,15.3,55.3,44.6,62.3c0.4,0.1,0.6,0.5,0.5,0.9c-33.1,84-83.4,176.3-112.8,189.7
		c-0.2,0.1-0.5,0.1-0.7,0c-13-9,43.8-180.1,57.8-187.8c0.4-0.2,0.4-0.7,0.1-1c-5-5-32.7-32.1-41-23.8c-1.3,1.3-2.8,3.8-4.5,7.3
		l0-0.4c-12.4,25-69.2,162.3-117.8,195.5c-0.5,0.3-1.2-0.1-1-0.7c7.4-37.3,63.9-156.8,63.9-170.4c0-15.1-32.2-28.1-37.9-30.3
		c-0.4-0.2-0.9,0.1-0.9,0.6c-0.3,3.4-1.9,9.7-4.5,18.1c-0.1,0.2-0.2,0.4-0.4,0.4c-35.5,13.8-96.1,51.6-147.5,94.8
		c-0.3,0.2-0.7,0.2-0.9-0.1c-11.9-13.1-20.7-25.2-20.7-34.6c0-35.1,70.3-99.7,114.4-113c0.5-0.1,0.9,0.3,0.9,0.7
		c-1.7,12.9-4.4,28-5.3,32.9c-0.1,0.6,0.6,1,1.1,0.7c6.1-4.6,29.6-22.5,29.6-36.1c0-14.8-24.6-39.8-39.3-39.8
		c-43,0-116.4,65.8-136.2,118.5c-0.1,0.2-0.2,0.3-0.4,0.4c-27,9.3-67.9,36-102.8,66.2c-0.2,0.2-0.6,0.2-0.9,0
		c-10.5-8.5-18.1-17-18.1-25.1c0-24.7,47-66.9,78.3-75.4c0.4-0.1,0.9,0.2,0.9,0.7c0,7.1,0.1,16.4,0.1,20c0,0.6,0.7,0.9,1.1,0.5
		c4-3.6,17.3-16.2,17.3-23.2c0-13.6-20.3-35.8-33.8-35.8c-37.2,0-96.9,63.6-99.3,99.6c0,0.1,0,0.2-0.1,0.3
		c-15.7,23.3-107.9,156.9-163.8,156.9c-7.9,0-13.9-1.6-18.4-3.7c-0.2-0.1-0.3-0.2-0.4-0.4c-2.9-9.4-5.1-21.2-5.1-35.8
		c0-14.2,2.5-31.6,7.2-50.4c0.2-0.6,1-0.7,1.3-0.2c7.1,13.8,19.3,29.5,37.8,29.5c44.8,0,115.3-127.5,115.3-172.1
		c0-20-13.2-31.2-25.1-37.3c-0.1-0.1-0.2-0.2-0.3-0.3c-4.3-8.9-17.5-30.9-41-30.9c-42.2,0-83.3,59.1-109.5,122.1c0,0,0,0,0,0
		c-0.8,2.1-67.4,122.1-114.7,154.5c-0.4,0.3-1,0-1.1-0.4c-0.3-1.5-0.5-3.3-0.5-5.2c0-37.7,73.8-164.2,78.5-172.2
		c0.1-0.2,0.1-0.5,0-0.8c-2.2-2.8-17.3-21.2-34.7-21.2c-5.5,0-27.8,9.1-46.1,15.5c-0.6,0.2-1.1-0.4-0.8-0.9
		c12.8-31.3,21.1-55.6,21.1-63.7c0-6.6-24.5-23.4-33.6-23.4c-14.8,0-49.2,81.6-49.2,95.6c0,10.3,9.9,23.1,21.1,23.1
		c0.4,0,0.8,0,1.3-0.1c-33.9,74.4-83.9,160.8-106.2,160.8c-9.8,0-7.5-9.1-6.4-12.4c0.2-0.5-0.3-1-0.8-0.9c-3.4,0.8-12.8,3.8-12.8,11
		c0,8.8,23.7,36.7,35.1,36.7c22.9,0,82.7-115.6,120-201.7c0.1-0.2,0.2-0.3,0.4-0.4c11.7-3.4,24.7-7.6,35.5-11.2
		c0.6-0.2,1.1,0.4,0.8,0.9c-18,36.8-62.2,129.5-62.2,154.5c0,0.5,0,1.1,0.1,1.6c1.7,19.5,33.4,47.9,51.7,47.9
		c21.1,0,55.2-63.7,78.8-113.6c0.3-0.7,1.4-0.3,1.3,0.4c-3.2,15.4-5,29.5-5,41.2c0,2,0.1,4.1,0.2,6.1c0.2,3.8,0.6,7.5,1.2,11
		c0,0.2,0.1,0.4,0.1,0.6c0.2,0.9,0.3,1.7,0.5,2.6c10.4,53.1,60.2,85.8,93.2,85.8c45.3,0,127.8-155.4,140.6-180.1
		c0.2-0.5,0.9-0.5,1.1-0.1c7.2,10.6,19.6,21.7,32.5,32.7c0.3,0.3,0.3,0.7,0,1c-29.6,28-51.7,57.1-51.7,77c0,0.6,0,1.2,0.1,1.8
		c1.3,18.5,22.8,44.1,41.3,49.6c0,0,0.1,0,0.1,0c0.5,0.2,1,0.3,1.5,0.4c0.4,0.1,0.8,0.2,1.2,0.3c0.3,0,0.5,0.1,0.7,0.1
		c0.4,0.1,0.8,0.1,1.3,0.2c0.7,0.1,1.4,0.1,2.1,0.1c28.7,0,81.7-58.1,81.7-86.8c0-12.9-21.6-27.1-42.5-41.6c-0.3-0.2-0.4-0.7-0.1-1
		c26.5-26.9,55.9-50,77.3-61c0.5-0.2,1,0.1,1,0.7c-0.1,1.3-0.2,2.7-0.2,4c0,19.3,20.4,41.2,41.5,62.8c0.3,0.3,0.3,0.7,0,1
		c-40.8,37.5-71.7,77-71.7,107.4c0,17.7,21.5,33.3,26.5,36.6c0.4,0.3,1,0,1-0.6c0.1-7.8,1.5-15.8,3.8-24.1c0.2-0.6,1-0.7,1.3-0.1
		c5.4,11.3,17.5,32.8,31.6,32.8c35,0,89.3-58,89.3-93.1c0-13.7-20.8-34.2-41.6-54.9c-0.3-0.3-0.3-0.7,0-1
		c39.9-39.5,85.9-74,118.8-93.3c0.5-0.3,1.2,0.2,1,0.8c-18.4,52.3-50.6,134.3-50.6,151.7c0,0.4,0,0.8,0.1,1.2
		c1.5,15.1,32.4,40.3,47.8,40.3c19,0,47-52.2,69.1-101c0.3-0.7,1.5-0.4,1.3,0.4c-6,26.1-10.1,48.5-10.1,58.9c0,23,32,47.3,55.3,47.3
		c27.4,0,86.6-120.5,122.7-217.2c0.1-0.2,0.3-0.4,0.6-0.4c13.5-0.9,27.1-4.1,39.3-8c0.6-0.2,1,0.4,0.8,0.9
		c-25.1,61.4-67.9,148.1-67.9,176.9c0,0.9,0,1.8,0.1,2.7c0.1,0.8,0.1,1.6,0.3,2.4c0,0.1,0,0.1,0,0.2c0.1,0.8,0.3,1.7,0.4,2.5
		c0,0.1,0,0.2,0.1,0.3c0.1,0.6,0.3,1.2,0.4,1.8c6.2,24.9,33.6,50.6,49.2,50.6c19.2,0,45.8-44.4,67.9-89.6c0.3-0.7,1.4-0.4,1.3,0.4
		c-2,11.4-3.1,21.8-3.1,30.5c0,2,0.1,4,0.2,6c0.6,12.2,3.1,22.6,6.7,31.5c15,39.2,52.1,63.7,84.6,66.2c0.4,0,0.7,0.1,1.1,0.1
		c1.5,0.1,2.9,0.1,4.4,0.1c62.6,0,170.1-103.9,170.1-158.7C1828.4,431.4,1802.9,403.6,1797.2,397.8z M815.5,287.1
		c0.4-0.1,0.9,0.2,0.9,0.7c-0.8,44.4-62.2,168.8-89.1,168.8c-8.9,0-14.3-14.5-16.9-23.9c0-0.1,0-0.3,0-0.4
		C731.4,369.5,771.2,301.7,815.5,287.1z M964,487.7c-12.5,19.8-37.7,52.4-70,55.9c-0.5,0.1-0.9-0.4-0.8-0.8
		c5.2-23.4,24.3-52.1,48-78.8c0.3-0.3,0.7-0.3,1-0.1c9.2,8.1,17.2,15.9,21.7,23.1C964.1,487.2,964.1,487.5,964,487.7z M1038.9,566
		c10.4-28.9,32.4-59.7,59.2-88.9c0.3-0.3,0.8-0.3,1,0c11.2,12.4,20.1,24.3,22.7,35.2c0,0.2,0,0.4-0.1,0.5
		c-12,18.9-39,51.9-82.1,54.1C1039.1,566.9,1038.7,566.4,1038.9,566z M1434.1,300.2c0-25,17.3-68.8,41.9-79c0.4-0.2,0.9,0.1,1,0.6
		c0.5,22.1-9.6,60.3-25.1,102.7c-0.1,0.3-0.5,0.5-0.8,0.4C1439.2,322.3,1434.1,314,1434.1,300.2z M1719.6,321c0.5-0.2,1,0.2,0.9,0.7
		c-5.3,45.4-58.2,162.1-91.2,162.1c-5.5,0-9.4-6-12.3-13.7c-0.1-0.1-0.1-0.3,0-0.5C1636.8,405.9,1675.3,335.4,1719.6,321z"/>
</g>
</svg>
