<?xml version="1.0" encoding="utf-8"?>
<!-- Generator: Adobe Illustrator 21.1.0, SVG Export Plug-In . SVG Version: 6.00 Build 0)  -->
<svg version="1.1" id="Layer_1" xmlns="http://www.w3.org/2000/svg" xmlns:xlink="http://www.w3.org/1999/xlink" x="0px" y="0px"
	 viewBox="0 0 12340.3 16382.9" style="enable-background:new 0 0 12340.3 16382.9;" xml:space="preserve">
<style type="text/css">
	.st0{fill:#FFFFFF;}
</style>
<g>
	<g>
		<polygon class="st0" points="5918,7654.8 6423.7,7347.9 6426.4,6768 5915.4,7078.4 		"/>
		<polygon class="st0" points="6421,8089.7 6420.7,8013.5 6423.2,7465.9 5918.5,7772.1 5919.6,8013.5 5917.8,8395.3 		"/>
		<polygon class="st0" points="6421.6,8207 5917.2,8513.3 5914.4,9093.1 6424.3,8783.6 		"/>
		<path class="st0" d="M6446.3,13360.8L6424.9,8901l-511,310l-20,4164.1c-4.5,638.7-302.2,695.2-302.2,695.2h-0.1l577.9,729
			l576.4-727.1l2.6-1.9C6748.7,14070.4,6446.3,14013.2,6446.3,13360.8z"/>
		<path class="st0" d="M11425.9,4493c-500.2,0-857.5,339-857.5,794.4c0,81,13,160.3,36.4,235.2c93,237.2,323.6,414.7,578.9,414.7
			c285.1,0,500.1-205.1,500.1-477.1c0-152.1-103.9-262.4-247-262.4c-0.4,0-0.8,0.1-1.3,0.1c42,34.5,68,86.3,68,141.7
			c0,76-53.2,140.4-134.1,140.4c-99.8,0-163.1-91.8-163.1-186.7c0-110,101.2-196,230.4-196c201.4,0,347.6,152.6,347.6,362.9
			c0,329.3-258.2,577.6-600.6,577.6c-206.8,0-396-94.9-529.3-243c-259.2-232.8-341.2-658.7-341.2-1114.2v-895.1l0,0
			c0-421.3,187.5-556,187.5-556s-250.1-19.8-487.3-173.9c-513.3-348.7-1152.4-961.2-1523.6-1473
			C8251.1,1249.7,8385.2,831,8385.2,831s-181.7,249.7-632.8,211.5l-1090.5-98c0,0-108.9,230-282.2,351.5
			c16.7-458.9,215.8-764.7,215.8-764.7L6170.1,0l-425.2,531.2c0,0,199,305.9,215.8,764.7c-173.4-121.6-282.2-351.5-282.2-351.5
			l-1090.5,98c-451,38.3-632.8-211.5-632.8-211.5s134.1,418.6-104.6,751.6c-371.2,511.8-1010.3,1124.3-1523.6,1473
			c-237.2,154.2-487.3,173.9-487.3,173.9s187.5,134.7,187.5,556v895.1c0,455.4-82,881.5-341.2,1114.3
			c-133.3,148.1-322.5,243-529.2,243c-342.4,0-600.6-248.3-600.6-577.6c0-210.3,146.1-362.9,347.6-362.9
			c129.2,0,230.4,86.1,230.4,196c0,94.9-63.1,186.7-163,186.7c-80.9,0-134.1-64.4-134.1-140.4c0-55.4,26-107.2,68-141.7
			c-0.4,0-0.8-0.1-1.3-0.1c-143.1,0-247,110.4-247,262.4c0,272,215,477.1,500.1,477.1c255.4,0,486-177.6,579-414.9
			c23.3-74.7,36.3-154.1,36.3-234.9c0-455.4-357.2-794.4-857.5-794.4c-523.1,0-914.7,396-914.7,928.1
			c0,674.7,499.2,1113.9,1148,1113.9c930.6,0,1438.4-779.6,1438.4-1723.9V3554.3c707.3-465.5,1600.6-1360.9,1949-2008.2l452.9-43.9
			c559.3-41.7,898.4,219.8,905.3,755.3l21.6,4703.5l512.1-311.1l20.2-4392.4c6.8-535.5,346-797.1,905.3-755.4l452.9,43.9
			c348.2,647.4,1241.4,1542.8,1948.8,2008.2V4811c0,944.2,507.9,1723.9,1438.4,1723.9c648.7,0,1148-439,1148-1113.9
			C12340.6,4888.9,11948.9,4493,11425.9,4493z"/>
	</g>
	<path class="st0" d="M8548.9,10173.1c-307.7,0-533.2,229.9-533.2,518.4c0,188.4,102,359.5,306.6,359.5
		c115.6,0,204.4-79.4,204.4-175.4c0-72.8-54-134.5-131.5-134.5c-95.8,0-164.3,86.8-164.3,168.1c0,15.9,3.3,30.8,7.9,44.4
		c-40.3-28.1-84.3-90.8-84.3-232.1c0-231.6,150.7-390.1,380.1-390.1c334.3,0,479.8,355.3,479.8,738.6
		c0,618.7-317,1260.9-879.7,1260.9c-314.5,0-354.3-250.9-354.3-577.8l0,0V7971.2c0.1-232.2,58.9-468.1,306.5-468.1
		c88.2,0,155.1,46.8,175.9,124.1c-90.4,5.6-150.3,71.7-150.3,139.8c0,54.8,35.3,95.1,94.1,95.1c103.6,0,175.2-85.8,175.2-185.2
		c0-192.8-139.2-308.7-350.9-308.7c-284.6,0-549.4,195.3-807.7,352.2L5119,8998.1v-858.4l2305.4-1399.1
		c275.6-167.2,532.5-132.2,532.5-132.2S7780,6480.5,7780,6104.1V4341.5c0.4-287.5,64.7-575.2,339.8-575.2
		c601.3,0,894.3,603.7,894.3,1260.9c0,383.4-145.5,738.6-479.8,738.6c-229.3,0-380.1-158.5-380.1-390.1
		c0-141.2,43.9-203.9,84.3-232.1c-4.6,13.6-7.9,28.5-7.9,44.4c0,81.3,68.6,168.1,164.3,168.1c77.5,0,131.5-61.7,131.5-134.5
		c0-96-88.7-175.4-204.4-175.4c-204.6,0-306.6,171.1-306.6,359.5c0,288.5,225.5,518.4,533.2,518.4c510.6,0,769.8-511.9,769.8-1011.3
		c0-1219.7-902.3-1524.5-1591.6-1748.1c-4.1,89.9-77.7,161.6-168.5,161.6c-93.4,0-169.2-75.8-169.2-169.2c0-35.7,11.2-68.7,30-96.1
		c-272.6-100.5-463.1-211.7-463.1-414.4c0-117.1,45.9-177.8,137.7-198.6c-21,11-37.7,31.7-37.7,70.2c0,53.6,46.5,95.5,112.9,95.5
		c64.8,0,111.5-40.5,111.5-107.8c0-84.6-71.5-135.4-168.7-135.4c-172.1,0-295.6,123.2-295.6,315.2c0,500.8,404.7,600.7,404.7,1226.1
		l0,0v2373.3L5119,7561.9V3912.1c0-625.5,404.8-725.3,404.8-1226.1c0-192-123.6-315.2-295.6-315.2c-97.2,0-168.7,50.8-168.7,135.4
		c0,67.3,46.7,107.8,111.5,107.8c66.4,0,112.9-41.9,112.9-95.5c0-38.6-16.7-59.4-37.7-70.2c91.8,20.7,137.7,81.5,137.7,198.6
		c0,202.7-190.3,313.9-462.9,414.4c18.9,27.3,30.1,60.3,30.1,96.1c0,93.4-75.8,169.2-169.2,169.2c-90.8,0-164.4-71.8-168.5-161.7
		C3924,3388.4,3021.5,3693.1,3021.5,4913c0,499.4,259.1,1011.3,769.8,1011.3c307.7,0,533.2-229.9,533.2-518.4
		c0-188.4-102-359.5-306.6-359.5c-115.6,0-204.4,79.4-204.4,175.4c0,72.8,54,134.5,131.5,134.5c95.8,0,164.3-86.8,164.3-168.1
		c0-15.9-3.3-30.8-7.9-44.4c40.3,28.1,84.3,90.8,84.3,232.1c0,231.6-150.7,390.1-380.1,390.1c-334.3,0-479.8-355.3-479.8-738.6
		c0-657.3,292.9-1260.9,894.3-1260.9c314.5,0,339.7,279.8,339.7,606.8v2974.9c0,592.8-326,700.7-326,700.7s326,107.9,326,700.7
		v3003.9c0,327-39.7,577.8-354.3,577.8c-562.7,0-879.7-642.2-879.7-1260.9c0-383.4,145.5-738.6,479.8-738.6
		c229.3,0,380.1,158.5,380.1,390.1c0,141.2-43.9,203.9-84.3,232.1c4.6-13.6,7.9-28.5,7.9-44.4c0-81.3-68.6-168.1-164.3-168.1
		c-77.5,0-131.5,61.7-131.5,134.5c0,96,88.7,175.4,204.4,175.4c204.5,0,306.6-171.1,306.6-359.5c0-288.5-225.5-518.4-533.2-518.4
		c-510.6,0-769.8,511.9-769.8,1011.3c0,838.4,449.7,1642.6,1290.6,1642.6c69,0,132-6.3,189.8-17.4c4-89.9,77.6-161.8,168.5-161.8
		c93.4,0,169.2,75.8,169.2,169.2c0,79-54.5,144.9-127.7,163.5c79,269.2,261,481.5,555.2,481.5c315.4,0,392.5-297.9,392.5-297.9
		s-70.8,71-212.4,71c-254.7,0-328.3-316.1-328.3-612.1V9575.8l2102-1275.7v4323.4c0,295.9-73.7,611.8-328.3,611.8
		c-141.6,0-212.4-71-212.4-71s77.2,297.9,392.5,297.9c294.1,0,476-212.3,555.2-481.6c-73.2-18.6-127.6-84.5-127.6-163.5
		c0-93.5,75.8-169.2,169.2-169.2c90.9,0,164.5,71.9,168.5,161.8c57.8,11.1,120.7,17.2,189.7,17.2
		c802.4,0,1290.6-765.5,1290.6-1642.6C9318.6,10685,9059.4,10173.1,8548.9,10173.1z"/>
	<path class="st0" d="M10426.6,10969.8c-6.2-473.2-9.5-946.3-20.4-1419.5c-18.1-946.2-44-1892.3-93.5-2838.5v-0.5
		c-219.3-124.9-408.3-298-558.9-511.5l0.5,4865.1c0,981.9-455.5,1931.3-1249.9,2604.9l-2334.8,1979.8l-2334.8-1979.8
		c-794.3-673.6-1249.9-1623-1249.9-2604.9l0.5-4863.6c-150.7,213-339.7,385.9-558.9,510.5v0.4c-49.1,946.1-74.9,1892.3-93,2838.4
		c-10.9,473.1-14.4,946.3-20.5,1419.4c-2.2,116.4-2.2,242.1,6.5,362.7c7.9,121.7,21.2,243,41,363.3c38.8,240.7,99.8,478,182.4,707.5
		c166.5,458.6,418.4,884.3,733,1254.7c158,184.7,332.5,354.7,518.4,510.1c182.2,151.9,364.8,301.7,548.8,450.6
		c733.1,598.6,1472,1190.4,2226.6,1763.6c754.5-573.5,1493.3-1165.4,2226.5-1764.1l275.2-224.1l273.7-226.5
		c185.9-155.5,360.2-325.5,518.3-510.2c315.1-370.1,566.2-796.2,733.4-1254.6c82.6-229.4,143.5-466.7,182.3-707.5
		c19.9-120.3,33.1-241.8,41-363.5c4.6-60.8,6.4-121.8,7.6-182.7C10427.9,11088.1,10427.4,11028.6,10426.6,10969.8z M3852.2,14286
		l-52.6-46.4l-267.5-232.7c-173.3-152.4-334.9-317.8-480.2-496.2c-147.2-176.9-278.7-366.4-393.8-565.2
		c-113.9-199.4-211.2-408.2-289.1-623.8c-79.4-215.1-138.5-437.7-176.9-663.7c-19.5-113-32.9-226.9-41.3-341.3
		c-8.3-115.4-11.6-226.5-12.2-346.5c-4.1-330.3-7.1-660.5-12.1-990.8l0.5-3210c130.9-80.2,250.5-176.7,357.8-288.4l-0.4,4584.1
		c0,1011.4,468.5,1988.9,1285.4,2681.6l2334.8,1979.8l65,55.2l65-55.2l2334.8-1979.8c816.9-692.7,1285.4-1670.1,1285.4-2681.6
		l-0.4-4585.2c107.4,111.8,226.9,208.4,357.8,288.8l0.5,3185c-5.2,338.7-8.2,677.4-12.4,1016.1c-0.8,120.1-3.8,231.2-12,346.6
		c-8.4,114.4-21.7,228.3-41.3,341.3c-38.3,226-97.4,448.5-176.8,663.7c-77.4,215.9-175,424.5-288.8,623.9
		c-115.1,198.8-246.8,388.1-393.7,565.4c-145.3,178.4-307,343.9-480.3,496.3l-267.5,232.8l-40.7,35.9l-2329.6,1975.4L3852.2,14286z"
		/>
</g>
</svg>
