<?xml version="1.0" encoding="utf-8"?>
<!-- Generator: Adobe Illustrator 21.1.0, SVG Export Plug-In . SVG Version: 6.00 Build 0)  -->
<svg version="1.1" id="Layer_1" xmlns="http://www.w3.org/2000/svg" xmlns:xlink="http://www.w3.org/1999/xlink" x="0px" y="0px"
	 width="1920px" height="1920.2px" viewBox="0 0 1920 1920.2" style="enable-background:new 0 0 1920 1920.2;" xml:space="preserve"
	>
<style type="text/css">
	.st0{fill:#333333;}
	.st1{fill:none;stroke:#B8B7B8;stroke-width:10;stroke-miterlimit:10;}
	.st2{fill:url(#SVGID_1_);}
	.st3{fill:#FFFFFF;}
	.st4{fill:url(#SVGID_2_);}
	.st5{fill:none;}
	.st6{fill:#C12033;}
	.st7{fill:url(#SVGID_3_);}
	.st8{fill:url(#SVGID_4_);}
	.st9{fill:url(#SVGID_5_);}
	.st10{fill:url(#SVGID_6_);}
	.st11{fill:url(#SVGID_7_);}
	.st12{fill:url(#SVGID_8_);}
	.st13{fill:url(#SVGID_9_);}
	.st14{fill:url(#SVGID_10_);}
	.st15{fill:url(#SVGID_11_);}
	.st16{fill:url(#SVGID_12_);}
	.st17{fill:url(#SVGID_13_);}
	.st18{fill:url(#SVGID_14_);}
	.st19{fill:none;stroke:#B8B7B8;stroke-width:5;stroke-miterlimit:10;}
	.st20{fill:#EE4376;}
	.st21{fill:none;stroke:#B8B7B8;stroke-width:5.0736;stroke-miterlimit:10;}
	.st22{fill:url(#SVGID_15_);}
	.st23{fill:url(#SVGID_16_);}
	.st24{fill:none;stroke:#B8B7B8;stroke-width:2.5368;stroke-miterlimit:10;}
	.st25{fill:url(#SVGID_17_);}
	.st26{fill:url(#SVGID_18_);}
	.st27{fill:url(#SVGID_19_);}
	.st28{fill:url(#SVGID_20_);}
	.st29{fill:url(#SVGID_21_);}
	.st30{fill:url(#SVGID_22_);}
	.st31{fill:url(#SVGID_23_);}
	.st32{fill:url(#SVGID_24_);}
	.st33{fill:url(#SVGID_25_);}
	.st34{fill:url(#SVGID_26_);}
	.st35{fill:url(#SVGID_27_);}
	.st36{fill:url(#SVGID_28_);}
	.st37{fill:#E1DFE0;}
	.st38{fill:none;stroke:#000000;stroke-width:11;stroke-miterlimit:10;}
	.st39{fill:url(#SVGID_29_);}
	.st40{fill:url(#SVGID_30_);}
	.st41{stroke:#000000;stroke-width:5;stroke-miterlimit:10;}
	.st42{fill:url(#SVGID_31_);}
	.st43{fill:url(#SVGID_32_);}
	.st44{fill:url(#SVGID_33_);}
	.st45{fill:url(#SVGID_34_);}
	.st46{fill:url(#SVGID_35_);}
	.st47{fill:url(#SVGID_36_);}
	.st48{fill:url(#SVGID_37_);}
	.st49{fill:url(#SVGID_38_);}
	.st50{fill:url(#SVGID_39_);}
	.st51{fill:url(#SVGID_40_);}
	.st52{fill:url(#SVGID_41_);}
	.st53{fill:url(#SVGID_42_);}
	.st54{fill:url(#SVGID_43_);}
	.st55{fill:#BD5BA2;}
	.st56{fill:none;stroke:#B8B7B8;stroke-width:2;stroke-miterlimit:10;}
	.st57{fill:#B8B7B8;}
	.st58{fill:url(#SVGID_44_);}
	.st59{fill:url(#SVGID_45_);}
	.st60{fill:url(#SVGID_46_);}
	.st61{fill:url(#SVGID_47_);}
	.st62{fill:url(#SVGID_48_);}
</style>
<rect x="-13" y="-12.9" class="st0" width="1946" height="1946"/>
<g>
	<g>
		<g>
			<rect x="575.9" y="888.9" width="86" height="22"/>
			<rect x="1258.1" y="888.9" width="86" height="22"/>
		</g>
		<g>
			<rect x="466.1" y="642" width="987.8" height="247"/>
			<g>
				<path class="st3" d="M579.5,734.2c-7,0.3-8.3,1.4-8.3,8.8v52.3c0,6.4,1.1,7.3,6.5,7.3h5c9.5,0,16.7-9.2,18.7-23h2.4
					c-0.2,2.4-0.3,5.5-0.3,9c0,3.2,0.1,9.8,0.7,16.3c-7-0.3-16.6-0.3-23.6-0.3c-6.9,0-22.3,0-33.5,0.3v-2.1c6.5-0.3,7.7-1.4,7.7-8.8
					v-51c0-7.5-1.2-8.5-7.7-8.8v-2.1c3.5,0.2,9.6,0.3,16.2,0.3c6,0,12.4-0.1,16.2-0.3V734.2z"/>
				<path class="st3" d="M648.6,755c3,3.1,3.7,7.2,3.7,14.4v28c0,3.3,0.6,4.6,2.2,4.6c1.5,0,2.6-0.9,3.8-1.8l1.1,1.8
					c-3.1,2.5-6.5,3.8-11.8,3.8c-7.5,0-9.8-3.9-9.9-8.3c-3.5,5.8-9.4,8.3-15.2,8.3c-7.7,0-13-4.2-13-11.7c0-7.4,4.9-11.6,14.5-15.1
					c7.6-2.9,13.5-4.8,13.5-9.2v-8c0-5.4-2.3-9.2-8.4-9.2c-2.5,0-5.5,0.7-7.3,2.5c3.7,1.3,6.1,3.9,6.1,8.1c0,4.3-3.3,7.4-8.4,7.4
					c-4.5,0-7.3-3.4-7.3-7.9c0-3.8,2.4-6.6,5.8-8.6c3.7-2.1,8.7-3.5,15.6-3.5C640.1,750.3,645.3,751.5,648.6,755z M637.4,773.8
					c-1,1.6-2.9,2.9-6.4,5.1c-3.6,2.7-7,6-7,12.2c0,5.7,2.8,8,6.4,8c2.5,0,4.8-1.1,6.9-4.2V773.8z"/>
				<path class="st3" d="M714.5,797.5c1.6,2.5,3,4.6,5.4,5.4v2.2c-2.1-0.1-6.7-0.4-10.8-0.4c-5.1,0-10.8,0.3-13.3,0.4v-2.2
					c2,0,3.1-0.8,3.1-1.9c0-0.5-0.2-1-0.5-1.6l-10.2-18.4c-1.5-2.4-2.8-3.1-5.1-3.2v17.7c0,5.7,1.7,7.4,6.2,7.4v2.2
					c-2.5-0.1-8.1-0.4-13.3-0.4c-5.4,0-11.5,0.3-14.2,0.4v-2.2c4.8,0,6.6-1.7,6.6-7.4v-58.6c0-6.2-1.6-9.1-6.6-9.1v-2.2
					c2.2,0.2,4.3,0.3,6.3,0.3c5.8,0,10.8-0.4,15-1.4v51.2c2.6-0.2,4.5-0.9,6.2-2.6l7.8-7.6c2.4-2.4,3.5-4.5,3.5-6.2
					c0-3.2-3.4-5.2-8-5.5v-2.1c3.8,0.2,8.9,0.4,12.1,0.4c3.9,0,9.6-0.2,12.1-0.4v2.1c-4.3,1-8.6,3.7-12.9,8l-6.6,6.9L714.5,797.5z"
					/>
				<path class="st3" d="M763.9,789.7l1.9,0.7c-2.5,7.7-9.2,16-20.6,16c-13.9,0-23.7-8.7-23.7-27.5c0-19.1,10.6-28.6,25.2-28.6
					c12,0,19.3,6.7,19.3,22.9h-28.8c-0.2,1.5-0.2,3.2-0.2,4.9c0,14.3,6.9,19.9,13.4,19.9C754.5,798,759.7,796.6,763.9,789.7z
					 M736.9,771.2H753c0.2-10-2-18.7-7-18.7C741.4,752.5,737.7,757.9,736.9,771.2z"/>
				<path class="st3" d="M859.3,732.1v2.1c-3,1.2-6.6,4.5-9.4,12.2l-21.8,58.8c-1.1-0.1-2.4-0.1-3.6-0.1c-1.3,0-2.5,0.1-3.6,0.1
					l-26.2-64.4c-2-4.9-4.5-6.5-6.5-6.6v-2.1c4.1,0.2,10,0.3,15.7,0.3c6.3,0,12.3-0.1,15.6-0.3v2.1c-4.8,0.2-7.2,0.9-7.2,3.8
					c0,1.2,0.4,2.8,1.2,4.8l18.2,46.1l12.7-34.2c2-5.3,2.9-9.4,2.9-12.5c0-5.7-3.2-7.9-8.6-8.1v-2.1c4.6,0.2,8.5,0.3,12.8,0.3
					C854.4,732.4,857.2,732.3,859.3,732.1z"/>
				<path class="st3" d="M879.2,795.4c0,5.7,1.8,7.4,6.6,7.4v2.2c-2.6-0.1-8.4-0.4-13.8-0.4c-5.3,0-11.5,0.3-14.2,0.4v-2.2
					c4.8,0,6.6-1.7,6.6-7.4V763c0-6.2-1.6-9.1-6.6-9.1v-2.2c2.2,0.2,4.3,0.4,6.4,0.4c5.7,0,10.7-0.5,15-1.5V795.4z M880.5,733.1
					c0,5-3.7,8-9.3,8c-5.8,0-9.4-3-9.4-8c0-4.9,3.6-7.9,9.4-7.9C876.8,725.2,880.5,728.2,880.5,733.1z"/>
				<path class="st3" d="M934,789.7l1.9,0.7c-2.5,7.7-9.2,16-20.6,16c-13.9,0-23.7-8.7-23.7-27.5c0-19.1,10.6-28.6,25.2-28.6
					c12,0,19.3,6.7,19.3,22.9h-28.8c-0.2,1.5-0.2,3.2-0.2,4.9c0,14.3,6.9,19.9,13.4,19.9C924.6,798,929.9,796.6,934,789.7z
					 M907,771.2h16.1c0.2-10-2-18.7-7-18.7C911.5,752.5,907.8,757.9,907,771.2z"/>
				<path class="st3" d="M1019.7,751.7v2.2c-2.6,0.7-5.1,2.6-7.1,8.8l-13.7,42.5c-1.1-0.1-2.3-0.2-3.4-0.2c-1.1,0-2.2,0.1-3.3,0.2
					l-14-38.2l-11.4,38.2c-1.1-0.1-2.2-0.2-3.3-0.2c-1.2,0-2.3,0.1-3.4,0.2l-16.3-45.5c-2-5.4-4.5-5.8-6-5.8v-2.2
					c4.4,0.5,8.9,0.7,14.6,0.7c4.2,0,9.3-0.3,13.4-0.7v2.2c-3.8,0-6.5,0.2-6.5,3.1c0,0.7,0.2,1.7,0.6,2.8l9.3,29.1l11.2-37.2h0.1
					c1.2,0.1,2.3,0.2,3.5,0.2c1.3,0,2.7-0.1,4-0.2l13.4,39.3l6.5-20.7c1-3.1,1.4-5.6,1.4-7.7c0-5.7-3.1-8.2-8-8.6v-2.2
					c3.2,0.3,7.8,0.4,10.6,0.4C1014.6,752.1,1017.9,752,1019.7,751.7z"/>
				<path class="st3" d="M1096.1,766.9v3.1h-23.9v24.2h-3.7V770h-24v-3.1h24v-24.3h3.7v24.3H1096.1z"/>
				<path class="st3" d="M1199.1,767.8c0,22.4-15.1,37.2-40.9,37.2c-3.2,0-10.4-0.3-15-0.3c-6.1,0-12.4,0.1-15.8,0.3v-2.1
					c6.5-0.3,7.7-1.4,7.7-8.8v-51c0-7.5-1.2-8.5-7.7-8.8v-2.1c2.8,0.2,7.6,0.4,12.4,0.4c1.1,0,2.2-0.1,3.2-0.1
					c4.9-0.1,12.1-0.3,16.2-0.3C1186.1,732.1,1199.1,744.8,1199.1,767.8z M1151.3,742.8v51.5c0,7.2,1.4,8.8,7.7,8.8
					c17.3,0,22.9-12.6,22.9-35c0-23.1-6.4-34.2-23-34.2C1152.7,734,1151.3,735.8,1151.3,742.8z"/>
				<path class="st3" d="M1257.9,778.4c0,20.4-10.4,28-25.2,28c-14.8,0-25.2-7.6-25.2-28c0-20.3,10.4-28.1,25.2-28.1
					C1247.5,750.3,1257.9,758.1,1257.9,778.4z M1223,778.4c0,18.4,4.1,26,9.6,26c5.6,0,9.7-7.5,9.7-26c0-18.4-4.1-26-9.7-26
					C1227.1,752.4,1223,760,1223,778.4z"/>
				<path class="st3" d="M1303.9,753.5c3.5,2.1,5.7,5.5,5.7,9.6c0,4.9-3.4,8.3-8.1,8.3c-4.9,0-7.9-3-7.9-7.6c0-4.3,3.1-7.4,6.8-8.4
					c-1.1-1.4-3.5-2.5-6.2-2.5c-8.5,0-13,10.4-13,24.4c0,16,6.8,20.8,13.6,20.8c3.8,0,9.3-1.5,13.5-8.4l1.8,0.7
					c-2.4,7.7-8.7,16.2-20.4,16.2c-13.4,0-24-8.5-24-27.8c0-18.6,10.9-28.3,25.4-28.3C1296.3,750.3,1300.9,751.6,1303.9,753.5z"/>
				<path class="st3" d="M1367.5,797.5c1.6,2.5,3,4.6,5.4,5.4v2.2c-2.1-0.1-6.7-0.4-10.8-0.4c-5.1,0-10.8,0.3-13.3,0.4v-2.2
					c2,0,3.1-0.8,3.1-1.9c0-0.5-0.2-1-0.5-1.6l-10.2-18.4c-1.5-2.4-2.8-3.1-5.1-3.2v17.7c0,5.7,1.7,7.4,6.2,7.4v2.2
					c-2.5-0.1-8.1-0.4-13.3-0.4c-5.4,0-11.5,0.3-14.2,0.4v-2.2c4.8,0,6.6-1.7,6.6-7.4v-58.6c0-6.2-1.6-9.1-6.6-9.1v-2.2
					c2.2,0.2,4.3,0.3,6.3,0.3c5.8,0,10.8-0.4,15-1.4v51.2c2.6-0.2,4.5-0.9,6.2-2.6l7.8-7.6c2.4-2.4,3.5-4.5,3.5-6.2
					c0-3.2-3.4-5.2-8-5.5v-2.1c3.8,0.2,8.9,0.4,12.1,0.4c3.9,0,9.6-0.2,12.1-0.4v2.1c-4.3,1-8.6,3.7-12.9,8l-6.6,6.9L1367.5,797.5z"
					/>
			</g>
		</g>
	</g>
	<g>
		<g>
			<rect x="575.9" y="1256.2" width="86" height="22"/>
			<rect x="1258.1" y="1256.2" width="86" height="22"/>
		</g>
		<g>
			<rect x="466.1" y="1009.3" width="987.8" height="247"/>
			<g>
				<path class="st3" d="M661,1101.5c-6.5,0.9-7.7,3.6-7.7,13.6v27.3c0,8.9-1,16.4-4.2,21.8c-3.5,5.9-10.4,9.6-20.8,9.6
					c-6.4,0-13.5-1.2-18.5-5.2c-6.7-5.3-8.1-12.7-8.1-25.9v-32.3c0-7.5-1.2-8.5-7.7-8.8v-2.1c3.5,0.2,9.7,0.3,16.1,0.3
					c6.2,0,12.5-0.1,16.3-0.3v2.1c-7,0.3-8.3,1.4-8.3,8.8v38.8c0,13.8,3.3,21,14.2,21c14.5,0,18.7-11,18.7-26.6v-27.2
					c0-11.3-1.4-13.9-10-14.8v-2.1c2.7,0.2,7.4,0.3,11.1,0.3c3.3,0,6.8-0.1,8.9-0.3V1101.5z"/>
				<path class="st3" d="M713.2,1121.7c2.3,2.6,3.2,6.4,3.2,13.4v27.7c0,5.7,1.8,7.4,6.6,7.4v2.2c-2.6-0.1-8.5-0.4-13.6-0.4
					c-5.3,0-10.9,0.3-13.4,0.4v-2.2c4.1,0,5.5-1.7,5.5-7.4v-32c0-5.1-1.2-8.6-6.3-8.6c-5.8,0-10.2,5.1-10.2,11.9v28.7
					c0,5.7,1.5,7.4,5.5,7.4v2.2c-2.4-0.1-7.7-0.4-12.8-0.4c-5.3,0-11.5,0.3-14.2,0.4v-2.2c4.8,0,6.6-1.7,6.6-7.4v-32.5
					c0-6.2-1.6-9.1-6.6-9.1v-2.2c2.2,0.2,4.3,0.4,6.4,0.4c5.7,0,10.7-0.5,15-1.5v9.3c3.4-7,9.5-9.6,16.8-9.6
					C707.7,1117.6,711.1,1119.2,713.2,1121.7z"/>
				<path class="st3" d="M777.4,1161c0,6.1,1.6,9,6.6,9v2.2c-2.2-0.2-4.3-0.3-6.4-0.3c-5.7,0-10.7,0.4-15,1.4v-8.7
					c-2.4,5.9-6.7,9.1-13.4,9.1c-12.3,0-21-8.7-21-28.3c0-18.6,9.8-27.8,23-27.8c4.7,0,8.6,1.1,11.4,3.9v-17.4
					c0-6.2-1.6-9.1-6.6-9.1v-2.2c2.2,0.2,4.3,0.3,6.4,0.3c5.8,0,10.8-0.4,15-1.4V1161z M762.5,1160.6v-36.6
					c-1.9-2.4-4.6-3.5-7.5-3.5c-7.1,0-11.4,8.1-11.3,25.1c-0.1,17.6,3.8,23.6,9.7,23.6C757.7,1169.3,761.6,1166.1,762.5,1160.6z"/>
				<path class="st3" d="M832.1,1157l1.9,0.7c-2.5,7.7-9.2,16-20.6,16c-13.9,0-23.7-8.7-23.7-27.5c0-19.1,10.6-28.6,25.2-28.6
					c12,0,19.3,6.7,19.3,22.9h-28.8c-0.2,1.5-0.2,3.2-0.2,4.9c0,14.3,6.9,19.9,13.4,19.9C822.7,1165.3,827.9,1163.9,832.1,1157z
					 M805,1138.5h16.1c0.2-10-2-18.7-7-18.7C809.6,1119.8,805.9,1125.2,805,1138.5z"/>
				<path class="st3" d="M884.3,1127.1c0,5.1-3.2,8.6-8,8.6c-4.8,0-7.7-2.6-7.7-6.6c0-3.8,2-6.2,4.5-7.9c-0.4-0.2-0.9-0.3-1.4-0.3
					c-0.5,0-1,0.1-1.5,0.3c-5.5,0.9-9.3,7.7-9.3,13.3v27.2c0,6.6,3.2,8.4,9.6,8.4v2.2c-3.2-0.1-9.8-0.4-16.3-0.4
					c-5.6,0-11.9,0.3-14.7,0.4v-2.2c4.8,0,6.6-1.7,6.6-7.4v-32.5c0-6.2-1.6-9.1-6.6-9.1v-2.2c2.2,0.2,4.3,0.4,6.4,0.4
					c5.7,0,10.7-0.5,15-1.5v9.6c2.5-5.5,7.4-9.9,13.9-9.9C881.6,1117.6,884.3,1122.5,884.3,1127.1z"/>
				<path class="st3" d="M966.7,1104.7c0.8,0.6,1.5,0.9,2,0.9c1.5,0,2.3-1.9,2.7-6.1h2.4c-0.3,5.3-0.4,12.4-0.4,24.9H971
					c-1.1-9.4-2.4-14.4-7.7-18.6c-3.4-3.3-8.1-5.1-13-5.1c-14.8,0-20.5,17.2-20.5,35.4c0,18.4,6.2,35.2,20.9,35.2
					c4.5,0,9.5-1.7,12.8-5c5.3-4.1,6.6-9.8,7.5-19.9h2.4c0,13.1,0.1,20.4,0.4,25.9h-2.4c-0.4-4.2-1.1-6.1-2.5-6.1
					c-0.6,0-1.3,0.3-2.2,0.9c-5,3.6-10.1,6.7-19,6.7c-21.8,0-36.3-13.7-36.3-37.3c0-23,15-38.5,36.4-38.5
					C956.9,1098,962.2,1101.2,966.7,1104.7z"/>
				<path class="st3" d="M1033.9,1145.7c0,20.4-10.4,28-25.2,28c-14.8,0-25.2-7.6-25.2-28c0-20.3,10.4-28.1,25.2-28.1
					C1023.5,1117.6,1033.9,1125.4,1033.9,1145.7z M999,1145.7c0,18.4,4.1,26,9.6,26c5.6,0,9.7-7.5,9.7-26c0-18.4-4.1-26-9.7-26
					C1003.1,1119.7,999,1127.3,999,1145.7z"/>
				<path class="st3" d="M1089.8,1121.7c2.3,2.6,3.2,6.4,3.2,13.4v27.7c0,5.7,1.8,7.4,6.6,7.4v2.2c-2.6-0.1-8.5-0.4-13.6-0.4
					c-5.3,0-10.9,0.3-13.4,0.4v-2.2c4.1,0,5.5-1.7,5.5-7.4v-32c0-5.1-1.2-8.6-6.3-8.6c-5.8,0-10.2,5.1-10.2,11.9v28.7
					c0,5.7,1.5,7.4,5.5,7.4v2.2c-2.4-0.1-7.7-0.4-12.8-0.4c-5.3,0-11.5,0.3-14.2,0.4v-2.2c4.8,0,6.6-1.7,6.6-7.4v-32.5
					c0-6.2-1.6-9.1-6.6-9.1v-2.2c2.2,0.2,4.3,0.4,6.4,0.4c5.7,0,10.7-0.5,15-1.5v9.3c3.4-7,9.5-9.6,16.8-9.6
					C1084.3,1117.6,1087.7,1119.2,1089.8,1121.7z"/>
				<path class="st3" d="M1136.4,1119.1v2.1h-12.2v41.5c0,4.2,1.5,5.7,4.5,5.7c2.5,0,5-1.6,7-6.2l1.7,1c-2.3,6.1-6.5,10.6-14.1,10.6
					c-4.6,0-8-1.2-10.3-3.5c-3-3-3.7-7.2-3.7-14.4v-34.7h-8.6v-2.1h8.6v-13.6c5.8-0.1,10.6-1,14.8-3.3v16.9H1136.4z"/>
				<path class="st3" d="M1184.3,1127.1c0,5.1-3.2,8.6-8,8.6s-7.7-2.6-7.7-6.6c0-3.8,2-6.2,4.5-7.9c-0.4-0.2-0.9-0.3-1.4-0.3
					c-0.5,0-1,0.1-1.5,0.3c-5.5,0.9-9.3,7.7-9.3,13.3v27.2c0,6.6,3.2,8.4,9.6,8.4v2.2c-3.2-0.1-9.8-0.4-16.3-0.4
					c-5.6,0-11.9,0.3-14.7,0.4v-2.2c4.8,0,6.6-1.7,6.6-7.4v-32.5c0-6.2-1.6-9.1-6.6-9.1v-2.2c2.2,0.2,4.3,0.4,6.4,0.4
					c5.7,0,10.7-0.5,15-1.5v9.6c2.5-5.5,7.4-9.9,13.9-9.9C1181.6,1117.6,1184.3,1122.5,1184.3,1127.1z"/>
				<path class="st3" d="M1227.2,1122.3c3,3.1,3.7,7.2,3.7,14.4v28c0,3.3,0.6,4.6,2.2,4.6c1.5,0,2.6-0.9,3.8-1.8l1.1,1.8
					c-3.1,2.5-6.5,3.8-11.8,3.8c-7.5,0-9.8-3.9-9.9-8.3c-3.5,5.8-9.4,8.3-15.2,8.3c-7.7,0-13-4.2-13-11.7c0-7.4,4.9-11.6,14.5-15.1
					c7.6-2.9,13.5-4.8,13.5-9.2v-8c0-5.4-2.3-9.2-8.4-9.2c-2.5,0-5.5,0.7-7.3,2.5c3.7,1.3,6.1,3.9,6.1,8.1c0,4.3-3.3,7.4-8.4,7.4
					c-4.5,0-7.3-3.4-7.3-7.9c0-3.8,2.4-6.6,5.8-8.6c3.7-2.1,8.7-3.5,15.6-3.5C1218.8,1117.6,1223.9,1118.8,1227.2,1122.3z
					 M1216,1141.2c-1,1.6-2.9,2.9-6.4,5.1c-3.6,2.7-7,6-7,12.2c0,5.7,2.8,8,6.4,8c2.5,0,4.8-1.1,6.9-4.2V1141.2z"/>
				<path class="st3" d="M1280.5,1120.8c3.5,2.1,5.7,5.5,5.7,9.6c0,4.9-3.4,8.3-8.1,8.3c-4.9,0-7.9-3-7.9-7.6c0-4.3,3.1-7.4,6.8-8.4
					c-1.1-1.4-3.5-2.5-6.2-2.5c-8.5,0-13,10.4-13,24.4c0,16,6.8,20.8,13.6,20.8c3.8,0,9.3-1.5,13.5-8.4l1.8,0.7
					c-2.4,7.7-8.7,16.2-20.4,16.2c-13.4,0-24-8.5-24-27.8c0-18.6,10.9-28.3,25.4-28.3C1272.9,1117.6,1277.5,1118.9,1280.5,1120.8z"
					/>
				<path class="st3" d="M1324.9,1119.1v2.1h-12.2v41.5c0,4.2,1.5,5.7,4.5,5.7c2.5,0,5-1.6,7-6.2l1.7,1c-2.3,6.1-6.5,10.6-14.1,10.6
					c-4.6,0-8-1.2-10.3-3.5c-3-3-3.7-7.2-3.7-14.4v-34.7h-8.6v-2.1h8.6v-13.6c5.8-0.1,10.6-1,14.8-3.3v16.9H1324.9z"/>
			</g>
		</g>
	</g>
	<g>
		<g>
			<rect x="575.9" y="1623.5" width="86" height="22"/>
			<rect x="1258.1" y="1623.5" width="86" height="22"/>
		</g>
		<g>
			<rect x="466.1" y="1376.6" width="987.8" height="247"/>
			<g>
				<path class="st3" d="M884.7,1469.4c1.7,1,2.6,1.5,3.5,1.5c1.4,0,1.9-1.6,2.3-4.5h2.4c-0.4,4.1-0.6,9-0.6,23.5H890
					c-0.7-10.7-6.5-21.9-17.5-21.9c-6.6,0-11.3,4-11.3,10.5c0,8.3,6.3,11.7,17.8,19.4c9.7,6.5,17.4,12.1,17.4,23.2
					c0,13.6-11.7,20-25.5,20c-8.5,0-13.1-2-16.5-3.8c-1.7-1.1-2.7-1.5-3.5-1.5c-1.4,0-1.9,1.6-2.3,4.5h-2.4
					c0.3-4.8,0.4-11.4,0.4-27.8h2.4c0.9,13.7,5.6,25.8,18.7,25.8c7.2,0,12.8-3.8,12.8-11.5c0-8.4-6.4-13.3-15.4-19.1
					c-9.8-6.2-18.3-12-18.3-23.5c0-13,11-18.8,23.1-18.8C877.8,1465.5,881.5,1467.5,884.7,1469.4z"/>
				<path class="st3" d="M954.9,1513c0,20.4-10.4,28-25.2,28c-14.8,0-25.2-7.6-25.2-28c0-20.3,10.4-28.1,25.2-28.1
					C944.5,1484.9,954.9,1492.7,954.9,1513z M920,1513c0,18.4,4.1,26,9.6,26c5.6,0,9.7-7.5,9.7-26c0-18.4-4.1-26-9.7-26
					C924.1,1487,920,1494.6,920,1513z"/>
				<path class="st3" d="M981.2,1530.1c0,5.7,1.8,7.4,6.6,7.4v2.2c-2.6-0.1-8.4-0.4-13.7-0.4c-5.4,0-11.5,0.3-14.3,0.4v-2.2
					c4.8,0,6.6-1.7,6.6-7.4v-58.6c0-6.2-1.6-9.1-6.6-9.1v-2.2c2.2,0.2,4.3,0.3,6.4,0.3c5.7,0,10.8-0.4,15-1.4V1530.1z"/>
				<path class="st3" d="M1041.8,1528.4c0,6.1,1.6,9,6.6,9v2.2c-2.2-0.2-4.3-0.3-6.4-0.3c-5.7,0-10.7,0.4-15,1.4v-8.7
					c-2.4,5.9-6.7,9.1-13.4,9.1c-12.3,0-21-8.7-21-28.3c0-18.6,9.8-27.8,23-27.8c4.7,0,8.6,1.1,11.4,3.9v-17.4
					c0-6.2-1.6-9.1-6.6-9.1v-2.2c2.2,0.2,4.3,0.3,6.4,0.3c5.8,0,10.8-0.4,15-1.4V1528.4z M1027,1528v-36.6c-1.9-2.4-4.6-3.5-7.5-3.5
					c-7.1,0-11.4,8.1-11.3,25.1c-0.1,17.6,3.8,23.6,9.7,23.6C1022.1,1536.6,1026,1533.4,1027,1528z"/>
				<path class="st3" d="M1073.9,1533.1c0,4.9-3.4,7.9-8.8,7.9s-8.7-3-8.7-7.9c0-5,3.4-8,8.7-8S1073.9,1528.2,1073.9,1533.1z
					 M1073.5,1469.2c0,11.9-6.9,30-7.5,50.2h-1.9c-0.6-20.2-7.5-38.4-7.5-50.2c0-6.4,3.6-10.1,8.4-10.1
					C1069.5,1459.1,1073.5,1462.8,1073.5,1469.2z"/>
			</g>
		</g>
	</g>
	<g>
		<g>
			<rect x="575.9" y="521.6" width="86" height="22"/>
			<rect x="1258.1" y="521.6" width="86" height="22"/>
		</g>
		<g>
			<rect x="466.1" y="274.7" width="987.8" height="247"/>
			<g>
				<rect x="1227.5" y="295.2" class="st3" width="205.8" height="205.8"/>
			</g>
			<g>
				<path class="st3" d="M635.7,400.9c0,23-15.1,38.5-36.4,38.5c-21.8,0-36.3-13.7-36.3-37.3c0-23,15-38.5,36.4-38.5
					C621.1,363.6,635.7,377.4,635.7,400.9z M580,401.7c0,21.9,8.8,35.8,19.6,35.8c11.5,0,18.9-14.9,18.9-36.2
					c0-21.9-8.8-35.8-19.7-35.8C587.4,365.5,580,380.4,580,401.7z"/>
				<path class="st3" d="M692.1,387.3c2.3,2.6,3.2,6.4,3.2,13.4v27.7c0,5.7,1.8,7.4,6.6,7.4v2.2c-2.6-0.1-8.5-0.4-13.6-0.4
					c-5.3,0-10.9,0.3-13.4,0.4v-2.2c4.1,0,5.5-1.7,5.5-7.4v-32c0-5.1-1.2-8.6-6.3-8.6c-5.8,0-10.2,5.1-10.2,11.9v28.7
					c0,5.7,1.5,7.4,5.5,7.4v2.2c-2.4-0.1-7.7-0.4-12.8-0.4c-5.3,0-11.5,0.3-14.2,0.4v-2.2c4.8,0,6.6-1.7,6.6-7.4v-32.5
					c0-6.2-1.6-9.1-6.6-9.1v-2.2c2.2,0.2,4.3,0.4,6.4,0.4c5.7,0,10.7-0.5,15-1.5v9.3c3.4-7,9.5-9.6,16.8-9.6
					C686.6,383.3,690,384.9,692.1,387.3z"/>
				<path class="st3" d="M726.6,428.4c0,5.7,1.8,7.4,6.6,7.4v2.2c-2.6-0.1-8.4-0.4-13.7-0.4c-5.4,0-11.5,0.3-14.3,0.4v-2.2
					c4.8,0,6.6-1.7,6.6-7.4v-58.6c0-6.2-1.6-9.1-6.6-9.1v-2.2c2.2,0.2,4.3,0.3,6.4,0.3c5.7,0,10.8-0.4,15-1.4V428.4z"/>
				<path class="st3" d="M759.1,428.4c0,5.7,1.8,7.4,6.6,7.4v2.2c-2.6-0.1-8.4-0.4-13.8-0.4c-5.3,0-11.5,0.3-14.2,0.4v-2.2
					c4.8,0,6.6-1.7,6.6-7.4v-32.5c0-6.2-1.6-9.1-6.6-9.1v-2.2c2.2,0.2,4.3,0.4,6.4,0.4c5.7,0,10.7-0.5,15-1.5V428.4z M760.4,366.1
					c0,5-3.7,8-9.3,8c-5.8,0-9.4-3-9.4-8c0-4.9,3.6-7.9,9.4-7.9C756.7,358.2,760.4,361.2,760.4,366.1z"/>
				<path class="st3" d="M819.7,387.3c2.3,2.6,3.2,6.4,3.2,13.4v27.7c0,5.7,1.8,7.4,6.6,7.4v2.2c-2.6-0.1-8.5-0.4-13.6-0.4
					c-5.3,0-10.9,0.3-13.4,0.4v-2.2c4.1,0,5.5-1.7,5.5-7.4v-32c0-5.1-1.2-8.6-6.3-8.6c-5.8,0-10.2,5.1-10.2,11.9v28.7
					c0,5.7,1.5,7.4,5.5,7.4v2.2c-2.4-0.1-7.7-0.4-12.8-0.4c-5.3,0-11.5,0.3-14.2,0.4v-2.2c4.8,0,6.6-1.7,6.6-7.4v-32.5
					c0-6.2-1.6-9.1-6.6-9.1v-2.2c2.2,0.2,4.3,0.4,6.4,0.4c5.7,0,10.7-0.5,15-1.5v9.3c3.4-7,9.5-9.6,16.8-9.6
					C814.3,383.3,817.6,384.9,819.7,387.3z"/>
				<path class="st3" d="M877.1,422.7l1.9,0.7c-2.5,7.7-9.2,16-20.6,16c-13.9,0-23.7-8.7-23.7-27.5c0-19.1,10.6-28.6,25.2-28.6
					c12,0,19.3,6.7,19.3,22.9h-28.8c-0.2,1.5-0.2,3.2-0.2,4.9c0,14.3,6.9,19.9,13.4,19.9C867.7,430.9,872.9,429.5,877.1,422.7z
					 M850.1,404.2h16.1c0.2-10-2-18.7-7-18.7C854.6,385.5,850.9,390.9,850.1,404.2z"/>
				<path class="st3" d="M969.7,382.6c0,3.1,0.1,5.9,0.3,7.8h-2.4c-3.5-17.3-8.9-23-18.5-23h-2.3v58.7c0,8.4,1.9,9.6,11,9.7v2.1
					c-4.4-0.2-12-0.3-19.6-0.3c-7.6,0-14.7,0.2-18.8,0.3v-2.1c9.1-0.1,11-1.3,11-9.7v-58.7h-2.3c-9.7,0-15,5.6-18.5,23h-2.4
					c0.2-1.9,0.3-4.8,0.3-7.8c0-3.4-0.2-10.5-0.7-17.5c9.3,0.3,22.6,0.3,31.8,0.3c9.2,0,22.4,0,31.7-0.3
					C969.9,372.1,969.7,379.2,969.7,382.6z"/>
				<path class="st3" d="M1023.1,411.4c0,20.4-10.4,28-25.2,28c-14.8,0-25.2-7.6-25.2-28c0-20.3,10.4-28.1,25.2-28.1
					C1012.7,383.3,1023.1,391,1023.1,411.4z M988.2,411.4c0,18.4,4.1,26,9.6,26c5.6,0,9.7-7.5,9.7-26c0-18.4-4.1-26-9.7-26
					C992.3,385.3,988.2,393,988.2,411.4z"/>
				<path class="st3" d="M1080.6,426.8c0,6.1,1.6,9,6.6,9v2.2c-2.2-0.2-4.3-0.3-6.4-0.3c-5.7,0-10.8,0.4-15,1.4v-9.3
					c-3.4,6.9-9.5,9.6-16.6,9.6c-5.7,0-9.1-1.7-11.3-4.1c-2.3-2.6-3.1-6.5-3.1-13.3v-26.1c0-6.2-1.6-9.1-6.6-9.1v-2.2
					c2.2,0.2,4.3,0.4,6.4,0.4c5.7,0,10.7-0.5,15-1.5v42.7c0,5.1,1,8.6,6.1,8.6c5.5,0,10-5.1,10-11.9v-27c0-6.2-1.6-9.1-6.6-9.1v-2.2
					c2.2,0.2,4.3,0.4,6.4,0.4c5.7,0,10.8-0.5,15-1.5V426.8z"/>
				<path class="st3" d="M1136.5,392.8c0,5.1-3.2,8.6-8,8.6s-7.7-2.6-7.7-6.6c0-3.8,2-6.2,4.5-7.9c-0.4-0.2-0.9-0.3-1.4-0.3
					c-0.5,0-1,0.1-1.5,0.3c-5.5,0.9-9.3,7.7-9.3,13.3v27.2c0,6.6,3.2,8.4,9.6,8.4v2.2c-3.2-0.1-9.8-0.4-16.3-0.4
					c-5.6,0-11.9,0.3-14.7,0.4v-2.2c4.8,0,6.6-1.7,6.6-7.4v-32.5c0-6.2-1.6-9.1-6.6-9.1v-2.2c2.2,0.2,4.3,0.4,6.4,0.4
					c5.7,0,10.7-0.5,15-1.5v9.6c2.5-5.5,7.4-9.9,13.9-9.9C1133.8,383.3,1136.5,388.2,1136.5,392.8z"/>
			</g>
			<g transform="translate(80,80)">
				<g transform="translate(360,0) scale(0.4,0.4)">
					<g transform="">
						<rect x="2154.1" y="538.1" width="20.6" height="20.6"/>
					</g>
				</g>
				<g transform="translate(440,0) scale(0.4,0.4)">
					<g transform="">
						<rect x="1995.2" y="538.1" width="20.6" height="20.6"/>
					</g>
				</g>
				<g transform="translate(560,0) scale(0.4,0.4)">
					<g transform="">
						<rect x="1757" y="538.1" width="20.6" height="20.6"/>
					</g>
				</g>
				<g transform="translate(640,0) scale(0.4,0.4)">
					<g transform="">
						<rect x="1598.1" y="538.1" width="20.6" height="20.6"/>
					</g>
				</g>
				<g transform="translate(320,40) scale(0.4,0.4)">
					<g transform="">
						<rect x="2233.5" y="458.7" width="20.6" height="20.6"/>
					</g>
				</g>
				<g transform="translate(360,40) scale(0.4,0.4)">
					<g transform="">
						<rect x="2154.1" y="458.7" width="20.6" height="20.6"/>
					</g>
				</g>
				<g transform="translate(440,40) scale(0.4,0.4)">
					<g transform="">
						<rect x="1995.2" y="458.7" width="20.6" height="20.6"/>
					</g>
				</g>
				<g transform="translate(520,40) scale(0.4,0.4)">
					<g transform="">
						<rect x="1836.4" y="458.7" width="20.6" height="20.6"/>
					</g>
				</g>
				<g transform="translate(560,40) scale(0.4,0.4)">
					<g transform="">
						<rect x="1757" y="458.7" width="20.6" height="20.6"/>
					</g>
				</g>
				<g transform="translate(640,40) scale(0.4,0.4)">
					<g transform="">
						<rect x="1598.1" y="458.7" width="20.6" height="20.6"/>
					</g>
				</g>
				<g transform="translate(320,80) scale(0.4,0.4)">
					<g transform="">
						<rect x="2233.5" y="379.3" width="20.6" height="20.6"/>
					</g>
				</g>
				<g transform="translate(360,80) scale(0.4,0.4)">
					<g transform="">
						<rect x="2154.1" y="379.3" width="20.6" height="20.6"/>
					</g>
				</g>
				<g transform="translate(400,80) scale(0.4,0.4)">
					<g transform="">
						<rect x="2074.7" y="379.3" width="20.6" height="20.6"/>
					</g>
				</g>
				<g transform="translate(440,80) scale(0.4,0.4)">
					<g transform="">
						<rect x="1995.2" y="379.3" width="20.6" height="20.6"/>
					</g>
				</g>
				<g transform="translate(480,80) scale(0.4,0.4)">
					<g transform="">
						<rect x="1915.8" y="379.3" width="20.6" height="20.6"/>
					</g>
				</g>
				<g transform="translate(600,80) scale(0.4,0.4)">
					<g transform="">
						<rect x="1677.6" y="379.3" width="20.6" height="20.6"/>
					</g>
				</g>
				<g transform="translate(640,80) scale(0.4,0.4)">
					<g transform="">
						<rect x="1598.1" y="379.3" width="20.6" height="20.6"/>
					</g>
				</g>
				<g transform="translate(320,120) scale(0.4,0.4)">
					<g transform="">
						<rect x="2233.5" y="299.8" width="20.6" height="20.6"/>
					</g>
				</g>
				<g transform="translate(360,120) scale(0.4,0.4)">
					<g transform="">
						<rect x="2154.1" y="299.8" width="20.6" height="20.6"/>
					</g>
				</g>
				<g transform="translate(400,120) scale(0.4,0.4)">
					<g transform="">
						<rect x="2074.7" y="299.8" width="20.6" height="20.6"/>
					</g>
				</g>
				<g transform="translate(480,120) scale(0.4,0.4)">
					<g transform="">
						<rect x="1915.8" y="299.8" width="20.6" height="20.6"/>
					</g>
				</g>
				<g transform="translate(520,120) scale(0.4,0.4)">
					<g transform="">
						<rect x="1836.4" y="299.8" width="20.6" height="20.6"/>
					</g>
				</g>
				<g transform="translate(640,120) scale(0.4,0.4)">
					<g transform="">
						<rect x="1598.1" y="299.8" width="20.6" height="20.6"/>
					</g>
				</g>
				<g transform="translate(440,160) scale(0.4,0.4)">
					<g transform="">
						<rect x="1995.2" y="220.4" width="20.6" height="20.6"/>
					</g>
				</g>
				<g transform="translate(520,160) scale(0.4,0.4)">
					<g transform="">
						<rect x="1836.4" y="220.4" width="20.6" height="20.6"/>
					</g>
				</g>
				<g transform="translate(560,160) scale(0.4,0.4)">
					<g transform="">
						<rect x="1757" y="220.4" width="20.6" height="20.6"/>
					</g>
				</g>
				<g transform="translate(640,160) scale(0.4,0.4)">
					<g transform="">
						<rect x="1598.1" y="220.4" width="20.6" height="20.6"/>
					</g>
				</g>
				<g transform="translate(360,200) scale(0.4,0.4)">
					<g transform="">
						<rect x="2154.1" y="141" width="20.6" height="20.6"/>
					</g>
				</g>
				<g transform="translate(440,200) scale(0.4,0.4)">
					<g transform="">
						<rect x="1995.2" y="141" width="20.6" height="20.6"/>
					</g>
				</g>
				<g transform="translate(320,240) scale(0.4,0.4)">
					<g transform="">
						<rect x="2233.5" y="61.6" width="20.6" height="20.6"/>
					</g>
				</g>
				<g transform="translate(400,240) scale(0.4,0.4)">
					<g transform="">
						<rect x="2074.7" y="61.6" width="20.6" height="20.6"/>
					</g>
				</g>
				<g transform="translate(480,240) scale(0.4,0.4)">
					<g transform="">
						<rect x="1915.8" y="61.6" width="20.6" height="20.6"/>
					</g>
				</g>
				<g transform="translate(560,240) scale(0.4,0.4)">
					<g transform="">
						<rect x="1757" y="61.6" width="20.6" height="20.6"/>
					</g>
				</g>
				<g transform="translate(640,240) scale(0.4,0.4)">
					<g transform="">
						<rect x="1598.1" y="61.6" width="20.6" height="20.6"/>
					</g>
				</g>
				<g transform="translate(320,280) scale(0.4,0.4)">
					<g transform="">
						<rect x="2233.5" y="-17.8" width="20.6" height="20.6"/>
					</g>
				</g>
				<g transform="translate(360,280) scale(0.4,0.4)">
					<g transform="">
						<rect x="2154.1" y="-17.8" width="20.6" height="20.6"/>
					</g>
				</g>
				<g transform="translate(440,280) scale(0.4,0.4)">
					<g transform="">
						<rect x="1995.2" y="-17.8" width="20.6" height="20.6"/>
					</g>
				</g>
				<g transform="translate(480,280) scale(0.4,0.4)">
					<g transform="">
						<rect x="1915.8" y="-17.8" width="20.6" height="20.6"/>
					</g>
				</g>
				<g transform="translate(0,320) scale(0.4,0.4)">
					<g transform="">
						<rect x="2868.9" y="-97.3" width="20.6" height="20.6"/>
					</g>
				</g>
				<g transform="translate(240,320) scale(0.4,0.4)">
					<g transform="">
						<rect x="2392.3" y="-97.3" width="20.6" height="20.6"/>
					</g>
				</g>
				<g transform="translate(320,320) scale(0.4,0.4)">
					<g transform="">
						<rect x="2233.5" y="-97.3" width="20.6" height="20.6"/>
					</g>
				</g>
				<g transform="translate(360,320) scale(0.4,0.4)">
					<g transform="">
						<rect x="2154.1" y="-97.3" width="20.6" height="20.6"/>
					</g>
				</g>
				<g transform="translate(400,320) scale(0.4,0.4)">
					<g transform="">
						<rect x="2074.7" y="-97.3" width="20.6" height="20.6"/>
					</g>
				</g>
				<g transform="translate(440,320) scale(0.4,0.4)">
					<g transform="">
						<rect x="1995.2" y="-97.3" width="20.6" height="20.6"/>
					</g>
				</g>
				<g transform="translate(520,320) scale(0.4,0.4)">
					<g transform="">
						<rect x="1836.4" y="-97.3" width="20.6" height="20.6"/>
					</g>
				</g>
				<g transform="translate(560,320) scale(0.4,0.4)">
					<g transform="">
						<rect x="1757" y="-97.3" width="20.6" height="20.6"/>
					</g>
				</g>
				<g transform="translate(600,320) scale(0.4,0.4)">
					<g transform="">
						<rect x="1677.6" y="-97.3" width="20.6" height="20.6"/>
					</g>
				</g>
				<g transform="translate(640,320) scale(0.4,0.4)">
					<g transform="">
						<rect x="1598.1" y="-97.3" width="20.6" height="20.6"/>
					</g>
				</g>
				<g transform="translate(680,320) scale(0.4,0.4)">
					<g transform="">
						<rect x="1518.7" y="-97.3" width="20.6" height="20.6"/>
					</g>
				</g>
				<g transform="translate(720,320) scale(0.4,0.4)">
					<g transform="">
						<rect x="1439.3" y="-97.3" width="20.6" height="20.6"/>
					</g>
				</g>
				<g transform="translate(840,320) scale(0.4,0.4)">
					<g transform="">
						<rect x="1201" y="-97.3" width="20.6" height="20.6"/>
					</g>
				</g>
				<g transform="translate(880,320) scale(0.4,0.4)">
					<g transform="">
						<rect x="1121.6" y="-97.3" width="20.6" height="20.6"/>
					</g>
				</g>
				<g transform="translate(920,320) scale(0.4,0.4)">
					<g transform="">
						<rect x="1042.2" y="-97.3" width="20.6" height="20.6"/>
					</g>
				</g>
				<g transform="translate(80,360) scale(0.4,0.4)">
					<g transform="">
						<rect x="2710" y="-176.7" width="20.6" height="20.6"/>
					</g>
				</g>
				<g transform="translate(160,360) scale(0.4,0.4)">
					<g transform="">
						<rect x="2551.2" y="-176.7" width="20.6" height="20.6"/>
					</g>
				</g>
				<g transform="translate(360,360) scale(0.4,0.4)">
					<g transform="">
						<rect x="2154.1" y="-176.7" width="20.6" height="20.6"/>
					</g>
				</g>
				<g transform="translate(400,360) scale(0.4,0.4)">
					<g transform="">
						<rect x="2074.7" y="-176.7" width="20.6" height="20.6"/>
					</g>
				</g>
				<g transform="translate(440,360) scale(0.4,0.4)">
					<g transform="">
						<rect x="1995.2" y="-176.7" width="20.6" height="20.6"/>
					</g>
				</g>
				<g transform="translate(480,360) scale(0.4,0.4)">
					<g transform="">
						<rect x="1915.8" y="-176.7" width="20.6" height="20.6"/>
					</g>
				</g>
				<g transform="translate(520,360) scale(0.4,0.4)">
					<g transform="">
						<rect x="1836.4" y="-176.7" width="20.6" height="20.6"/>
					</g>
				</g>
				<g transform="translate(600,360) scale(0.4,0.4)">
					<g transform="">
						<rect x="1677.6" y="-176.7" width="20.6" height="20.6"/>
					</g>
				</g>
				<g transform="translate(680,360) scale(0.4,0.4)">
					<g transform="">
						<rect x="1518.7" y="-176.7" width="20.6" height="20.6"/>
					</g>
				</g>
				<g transform="translate(760,360) scale(0.4,0.4)">
					<g transform="">
						<rect x="1359.9" y="-176.7" width="20.6" height="20.6"/>
					</g>
				</g>
				<g transform="translate(800,360) scale(0.4,0.4)">
					<g transform="">
						<rect x="1280.5" y="-176.7" width="20.6" height="20.6"/>
					</g>
				</g>
				<g transform="translate(840,360) scale(0.4,0.4)">
					<g transform="">
						<rect x="1201" y="-176.7" width="20.6" height="20.6"/>
					</g>
				</g>
				<g transform="translate(880,360) scale(0.4,0.4)">
					<g transform="">
						<rect x="1121.6" y="-176.7" width="20.6" height="20.6"/>
					</g>
				</g>
				<g transform="translate(920,360) scale(0.4,0.4)">
					<g transform="">
						<rect x="1042.2" y="-176.7" width="20.6" height="20.6"/>
					</g>
				</g>
				<g transform="translate(120,400) scale(0.4,0.4)">
					<g transform="">
						<rect x="2630.6" y="-256.1" width="20.6" height="20.6"/>
					</g>
				</g>
				<g transform="translate(160,400) scale(0.4,0.4)">
					<g transform="">
						<rect x="2551.2" y="-256.1" width="20.6" height="20.6"/>
					</g>
				</g>
				<g transform="translate(240,400) scale(0.4,0.4)">
					<g transform="">
						<rect x="2392.3" y="-256.1" width="20.6" height="20.6"/>
					</g>
				</g>
				<g transform="translate(280,400) scale(0.4,0.4)">
					<g transform="">
						<rect x="2312.9" y="-256.1" width="20.6" height="20.6"/>
					</g>
				</g>
				<g transform="translate(320,400) scale(0.4,0.4)">
					<g transform="">
						<rect x="2233.5" y="-256.1" width="20.6" height="20.6"/>
					</g>
				</g>
				<g transform="translate(360,400) scale(0.4,0.4)">
					<g transform="">
						<rect x="2154.1" y="-256.1" width="20.6" height="20.6"/>
					</g>
				</g>
				<g transform="translate(400,400) scale(0.4,0.4)">
					<g transform="">
						<rect x="2074.7" y="-256.1" width="20.6" height="20.6"/>
					</g>
				</g>
				<g transform="translate(480,400) scale(0.4,0.4)">
					<g transform="">
						<rect x="1915.8" y="-256.1" width="20.6" height="20.6"/>
					</g>
				</g>
				<g transform="translate(600,400) scale(0.4,0.4)">
					<g transform="">
						<rect x="1677.6" y="-256.1" width="20.6" height="20.6"/>
					</g>
				</g>
				<g transform="translate(640,400) scale(0.4,0.4)">
					<g transform="">
						<rect x="1598.1" y="-256.1" width="20.6" height="20.6"/>
					</g>
				</g>
				<g transform="translate(680,400) scale(0.4,0.4)">
					<g transform="">
						<rect x="1518.7" y="-256.1" width="20.6" height="20.6"/>
					</g>
				</g>
				<g transform="translate(720,400) scale(0.4,0.4)">
					<g transform="">
						<rect x="1439.3" y="-256.1" width="20.6" height="20.6"/>
					</g>
				</g>
				<g transform="translate(760,400) scale(0.4,0.4)">
					<g transform="">
						<rect x="1359.9" y="-256.1" width="20.6" height="20.6"/>
					</g>
				</g>
				<g transform="translate(800,400) scale(0.4,0.4)">
					<g transform="">
						<rect x="1280.5" y="-256.1" width="20.6" height="20.6"/>
					</g>
				</g>
				<g transform="translate(840,400) scale(0.4,0.4)">
					<g transform="">
						<rect x="1201" y="-256.1" width="20.6" height="20.6"/>
					</g>
				</g>
				<g transform="translate(920,400) scale(0.4,0.4)">
					<g transform="">
						<rect x="1042.2" y="-256.1" width="20.6" height="20.6"/>
					</g>
				</g>
				<g transform="translate(960,400) scale(0.4,0.4)">
					<g transform="">
						<rect x="962.8" y="-256.1" width="20.6" height="20.6"/>
					</g>
				</g>
				<g transform="translate(0,440) scale(0.4,0.4)">
					<g transform="">
						<rect x="2868.9" y="-335.5" width="20.6" height="20.6"/>
					</g>
				</g>
				<g transform="translate(160,440) scale(0.4,0.4)">
					<g transform="">
						<rect x="2551.2" y="-335.5" width="20.6" height="20.6"/>
					</g>
				</g>
				<g transform="translate(200,440) scale(0.4,0.4)">
					<g transform="">
						<rect x="2471.8" y="-335.5" width="20.6" height="20.6"/>
					</g>
				</g>
				<g transform="translate(280,440) scale(0.4,0.4)">
					<g transform="">
						<rect x="2312.9" y="-335.5" width="20.6" height="20.6"/>
					</g>
				</g>
				<g transform="translate(360,440) scale(0.4,0.4)">
					<g transform="">
						<rect x="2154.1" y="-335.5" width="20.6" height="20.6"/>
					</g>
				</g>
				<g transform="translate(440,440) scale(0.4,0.4)">
					<g transform="">
						<rect x="1995.2" y="-335.5" width="20.6" height="20.6"/>
					</g>
				</g>
				<g transform="translate(480,440) scale(0.4,0.4)">
					<g transform="">
						<rect x="1915.8" y="-335.5" width="20.6" height="20.6"/>
					</g>
				</g>
				<g transform="translate(560,440) scale(0.4,0.4)">
					<g transform="">
						<rect x="1757" y="-335.5" width="20.6" height="20.6"/>
					</g>
				</g>
				<g transform="translate(680,440) scale(0.4,0.4)">
					<g transform="">
						<rect x="1518.7" y="-335.5" width="20.6" height="20.6"/>
					</g>
				</g>
				<g transform="translate(760,440) scale(0.4,0.4)">
					<g transform="">
						<rect x="1359.9" y="-335.5" width="20.6" height="20.6"/>
					</g>
				</g>
				<g transform="translate(840,440) scale(0.4,0.4)">
					<g transform="">
						<rect x="1201" y="-335.5" width="20.6" height="20.6"/>
					</g>
				</g>
				<g transform="translate(960,440) scale(0.4,0.4)">
					<g transform="">
						<rect x="962.8" y="-335.5" width="20.6" height="20.6"/>
					</g>
				</g>
				<g transform="translate(0,480) scale(0.4,0.4)">
					<g transform="">
						<rect x="2868.9" y="-414.9" width="20.6" height="20.6"/>
					</g>
				</g>
				<g transform="translate(40,480) scale(0.4,0.4)">
					<g transform="">
						<rect x="2789.4" y="-414.9" width="20.6" height="20.6"/>
					</g>
				</g>
				<g transform="translate(80,480) scale(0.4,0.4)">
					<g transform="">
						<rect x="2710" y="-414.9" width="20.6" height="20.6"/>
					</g>
				</g>
				<g transform="translate(120,480) scale(0.4,0.4)">
					<g transform="">
						<rect x="2630.6" y="-414.9" width="20.6" height="20.6"/>
					</g>
				</g>
				<g transform="translate(200,480) scale(0.4,0.4)">
					<g transform="">
						<rect x="2471.8" y="-414.9" width="20.6" height="20.6"/>
					</g>
				</g>
				<g transform="translate(240,480) scale(0.4,0.4)">
					<g transform="">
						<rect x="2392.3" y="-414.9" width="20.6" height="20.6"/>
					</g>
				</g>
				<g transform="translate(320,480) scale(0.4,0.4)">
					<g transform="">
						<rect x="2233.5" y="-414.9" width="20.6" height="20.6"/>
					</g>
				</g>
				<g transform="translate(400,480) scale(0.4,0.4)">
					<g transform="">
						<rect x="2074.7" y="-414.9" width="20.6" height="20.6"/>
					</g>
				</g>
				<g transform="translate(440,480) scale(0.4,0.4)">
					<g transform="">
						<rect x="1995.2" y="-414.9" width="20.6" height="20.6"/>
					</g>
				</g>
				<g transform="translate(480,480) scale(0.4,0.4)">
					<g transform="">
						<rect x="1915.8" y="-414.9" width="20.6" height="20.6"/>
					</g>
				</g>
				<g transform="translate(720,480) scale(0.4,0.4)">
					<g transform="">
						<rect x="1439.3" y="-414.9" width="20.6" height="20.6"/>
					</g>
				</g>
				<g transform="translate(960,480) scale(0.4,0.4)">
					<g transform="">
						<rect x="962.8" y="-414.9" width="20.6" height="20.6"/>
					</g>
				</g>
				<g transform="translate(0,520) scale(0.4,0.4)">
					<g transform="">
						<rect x="2868.9" y="-494.4" width="20.6" height="20.6"/>
					</g>
				</g>
				<g transform="translate(40,520) scale(0.4,0.4)">
					<g transform="">
						<rect x="2789.4" y="-494.4" width="20.6" height="20.6"/>
					</g>
				</g>
				<g transform="translate(120,520) scale(0.4,0.4)">
					<g transform="">
						<rect x="2630.6" y="-494.4" width="20.6" height="20.6"/>
					</g>
				</g>
				<g transform="translate(160,520) scale(0.4,0.4)">
					<g transform="">
						<rect x="2551.2" y="-494.4" width="20.6" height="20.6"/>
					</g>
				</g>
				<g transform="translate(280,520) scale(0.4,0.4)">
					<g transform="">
						<rect x="2312.9" y="-494.4" width="20.6" height="20.6"/>
					</g>
				</g>
				<g transform="translate(520,520) scale(0.4,0.4)">
					<g transform="">
						<rect x="1836.4" y="-494.4" width="20.6" height="20.6"/>
					</g>
				</g>
				<g transform="translate(560,520) scale(0.4,0.4)">
					<g transform="">
						<rect x="1757" y="-494.4" width="20.6" height="20.6"/>
					</g>
				</g>
				<g transform="translate(600,520) scale(0.4,0.4)">
					<g transform="">
						<rect x="1677.6" y="-494.4" width="20.6" height="20.6"/>
					</g>
				</g>
				<g transform="translate(640,520) scale(0.4,0.4)">
					<g transform="">
						<rect x="1598.1" y="-494.4" width="20.6" height="20.6"/>
					</g>
				</g>
				<g transform="translate(680,520) scale(0.4,0.4)">
					<g transform="">
						<rect x="1518.7" y="-494.4" width="20.6" height="20.6"/>
					</g>
				</g>
				<g transform="translate(760,520) scale(0.4,0.4)">
					<g transform="">
						<rect x="1359.9" y="-494.4" width="20.6" height="20.6"/>
					</g>
				</g>
				<g transform="translate(920,520) scale(0.4,0.4)">
					<g transform="">
						<rect x="1042.2" y="-494.4" width="20.6" height="20.6"/>
					</g>
				</g>
				<g transform="translate(0,560) scale(0.4,0.4)">
					<g transform="">
						<rect x="2868.9" y="-573.8" width="20.6" height="20.6"/>
					</g>
				</g>
				<g transform="translate(120,560) scale(0.4,0.4)">
					<g transform="">
						<rect x="2630.6" y="-573.8" width="20.6" height="20.6"/>
					</g>
				</g>
				<g transform="translate(240,560) scale(0.4,0.4)">
					<g transform="">
						<rect x="2392.3" y="-573.8" width="20.6" height="20.6"/>
					</g>
				</g>
				<g transform="translate(280,560) scale(0.4,0.4)">
					<g transform="">
						<rect x="2312.9" y="-573.8" width="20.6" height="20.6"/>
					</g>
				</g>
				<g transform="translate(400,560) scale(0.4,0.4)">
					<g transform="">
						<rect x="2074.7" y="-573.8" width="20.6" height="20.6"/>
					</g>
				</g>
				<g transform="translate(440,560) scale(0.4,0.4)">
					<g transform="">
						<rect x="1995.2" y="-573.8" width="20.6" height="20.6"/>
					</g>
				</g>
				<g transform="translate(480,560) scale(0.4,0.4)">
					<g transform="">
						<rect x="1915.8" y="-573.8" width="20.6" height="20.6"/>
					</g>
				</g>
				<g transform="translate(520,560) scale(0.4,0.4)">
					<g transform="">
						<rect x="1836.4" y="-573.8" width="20.6" height="20.6"/>
					</g>
				</g>
				<g transform="translate(600,560) scale(0.4,0.4)">
					<g transform="">
						<rect x="1677.6" y="-573.8" width="20.6" height="20.6"/>
					</g>
				</g>
				<g transform="translate(680,560) scale(0.4,0.4)">
					<g transform="">
						<rect x="1518.7" y="-573.8" width="20.6" height="20.6"/>
					</g>
				</g>
				<g transform="translate(720,560) scale(0.4,0.4)">
					<g transform="">
						<rect x="1439.3" y="-573.8" width="20.6" height="20.6"/>
					</g>
				</g>
				<g transform="translate(760,560) scale(0.4,0.4)">
					<g transform="">
						<rect x="1359.9" y="-573.8" width="20.6" height="20.6"/>
					</g>
				</g>
				<g transform="translate(800,560) scale(0.4,0.4)">
					<g transform="">
						<rect x="1280.5" y="-573.8" width="20.6" height="20.6"/>
					</g>
				</g>
				<g transform="translate(840,560) scale(0.4,0.4)">
					<g transform="">
						<rect x="1201" y="-573.8" width="20.6" height="20.6"/>
					</g>
				</g>
				<g transform="translate(920,560) scale(0.4,0.4)">
					<g transform="">
						<rect x="1042.2" y="-573.8" width="20.6" height="20.6"/>
					</g>
				</g>
				<g transform="translate(960,560) scale(0.4,0.4)">
					<g transform="">
						<rect x="962.8" y="-573.8" width="20.6" height="20.6"/>
					</g>
				</g>
				<g transform="translate(0,600) scale(0.4,0.4)">
					<g transform="">
						<rect x="2868.9" y="-653.2" width="20.6" height="20.6"/>
					</g>
				</g>
				<g transform="translate(80,600) scale(0.4,0.4)">
					<g transform="">
						<rect x="2710" y="-653.2" width="20.6" height="20.6"/>
					</g>
				</g>
				<g transform="translate(120,600) scale(0.4,0.4)">
					<g transform="">
						<rect x="2630.6" y="-653.2" width="20.6" height="20.6"/>
					</g>
				</g>
				<g transform="translate(200,600) scale(0.4,0.4)">
					<g transform="">
						<rect x="2471.8" y="-653.2" width="20.6" height="20.6"/>
					</g>
				</g>
				<g transform="translate(360,600) scale(0.4,0.4)">
					<g transform="">
						<rect x="2154.1" y="-653.2" width="20.6" height="20.6"/>
					</g>
				</g>
				<g transform="translate(400,600) scale(0.4,0.4)">
					<g transform="">
						<rect x="2074.7" y="-653.2" width="20.6" height="20.6"/>
					</g>
				</g>
				<g transform="translate(440,600) scale(0.4,0.4)">
					<g transform="">
						<rect x="1995.2" y="-653.2" width="20.6" height="20.6"/>
					</g>
				</g>
				<g transform="translate(560,600) scale(0.4,0.4)">
					<g transform="">
						<rect x="1757" y="-653.2" width="20.6" height="20.6"/>
					</g>
				</g>
				<g transform="translate(680,600) scale(0.4,0.4)">
					<g transform="">
						<rect x="1518.7" y="-653.2" width="20.6" height="20.6"/>
					</g>
				</g>
				<g transform="translate(760,600) scale(0.4,0.4)">
					<g transform="">
						<rect x="1359.9" y="-653.2" width="20.6" height="20.6"/>
					</g>
				</g>
				<g transform="translate(840,600) scale(0.4,0.4)">
					<g transform="">
						<rect x="1201" y="-653.2" width="20.6" height="20.6"/>
					</g>
				</g>
				<g transform="translate(880,600) scale(0.4,0.4)">
					<g transform="">
						<rect x="1121.6" y="-653.2" width="20.6" height="20.6"/>
					</g>
				</g>
				<g transform="translate(960,600) scale(0.4,0.4)">
					<g transform="">
						<rect x="962.8" y="-653.2" width="20.6" height="20.6"/>
					</g>
				</g>
				<g transform="translate(0,640) scale(0.4,0.4)">
					<g transform="">
						<rect x="2868.9" y="-732.6" width="20.6" height="20.6"/>
					</g>
				</g>
				<g transform="translate(80,640) scale(0.4,0.4)">
					<g transform="">
						<rect x="2710" y="-732.6" width="20.6" height="20.6"/>
					</g>
				</g>
				<g transform="translate(120,640) scale(0.4,0.4)">
					<g transform="">
						<rect x="2630.6" y="-732.6" width="20.6" height="20.6"/>
					</g>
				</g>
				<g transform="translate(240,640) scale(0.4,0.4)">
					<g transform="">
						<rect x="2392.3" y="-732.6" width="20.6" height="20.6"/>
					</g>
				</g>
				<g transform="translate(320,640) scale(0.4,0.4)">
					<g transform="">
						<rect x="2233.5" y="-732.6" width="20.6" height="20.6"/>
					</g>
				</g>
				<g transform="translate(360,640) scale(0.4,0.4)">
					<g transform="">
						<rect x="2154.1" y="-732.6" width="20.6" height="20.6"/>
					</g>
				</g>
				<g transform="translate(440,640) scale(0.4,0.4)">
					<g transform="">
						<rect x="1995.2" y="-732.6" width="20.6" height="20.6"/>
					</g>
				</g>
				<g transform="translate(600,640) scale(0.4,0.4)">
					<g transform="">
						<rect x="1677.6" y="-732.6" width="20.6" height="20.6"/>
					</g>
				</g>
				<g transform="translate(640,640) scale(0.4,0.4)">
					<g transform="">
						<rect x="1598.1" y="-732.6" width="20.6" height="20.6"/>
					</g>
				</g>
				<g transform="translate(680,640) scale(0.4,0.4)">
					<g transform="">
						<rect x="1518.7" y="-732.6" width="20.6" height="20.6"/>
					</g>
				</g>
				<g transform="translate(720,640) scale(0.4,0.4)">
					<g transform="">
						<rect x="1439.3" y="-732.6" width="20.6" height="20.6"/>
					</g>
				</g>
				<g transform="translate(760,640) scale(0.4,0.4)">
					<g transform="">
						<rect x="1359.9" y="-732.6" width="20.6" height="20.6"/>
					</g>
				</g>
				<g transform="translate(800,640) scale(0.4,0.4)">
					<g transform="">
						<rect x="1280.5" y="-732.6" width="20.6" height="20.6"/>
					</g>
				</g>
				<g transform="translate(880,640) scale(0.4,0.4)">
					<g transform="">
						<rect x="1121.6" y="-732.6" width="20.6" height="20.6"/>
					</g>
				</g>
				<g transform="translate(320,680) scale(0.4,0.4)">
					<g transform="">
						<rect x="2233.5" y="-812" width="20.6" height="20.6"/>
					</g>
				</g>
				<g transform="translate(480,680) scale(0.4,0.4)">
					<g transform="">
						<rect x="1915.8" y="-812" width="20.6" height="20.6"/>
					</g>
				</g>
				<g transform="translate(520,680) scale(0.4,0.4)">
					<g transform="">
						<rect x="1836.4" y="-812" width="20.6" height="20.6"/>
					</g>
				</g>
				<g transform="translate(600,680) scale(0.4,0.4)">
					<g transform="">
						<rect x="1677.6" y="-812" width="20.6" height="20.6"/>
					</g>
				</g>
				<g transform="translate(640,680) scale(0.4,0.4)">
					<g transform="">
						<rect x="1598.1" y="-812" width="20.6" height="20.6"/>
					</g>
				</g>
				<g transform="translate(800,680) scale(0.4,0.4)">
					<g transform="">
						<rect x="1280.5" y="-812" width="20.6" height="20.6"/>
					</g>
				</g>
				<g transform="translate(360,720) scale(0.4,0.4)">
					<g transform="">
						<rect x="2154.1" y="-891.5" width="20.6" height="20.6"/>
					</g>
				</g>
				<g transform="translate(400,720) scale(0.4,0.4)">
					<g transform="">
						<rect x="2074.7" y="-891.5" width="20.6" height="20.6"/>
					</g>
				</g>
				<g transform="translate(440,720) scale(0.4,0.4)">
					<g transform="">
						<rect x="1995.2" y="-891.5" width="20.6" height="20.6"/>
					</g>
				</g>
				<g transform="translate(640,720) scale(0.4,0.4)">
					<g transform="">
						<rect x="1598.1" y="-891.5" width="20.6" height="20.6"/>
					</g>
				</g>
				<g transform="translate(720,720) scale(0.4,0.4)">
					<g transform="">
						<rect x="1439.3" y="-891.5" width="20.6" height="20.6"/>
					</g>
				</g>
				<g transform="translate(800,720) scale(0.4,0.4)">
					<g transform="">
						<rect x="1280.5" y="-891.5" width="20.6" height="20.6"/>
					</g>
				</g>
				<g transform="translate(960,720) scale(0.4,0.4)">
					<g transform="">
						<rect x="962.8" y="-891.5" width="20.6" height="20.6"/>
					</g>
				</g>
				<g transform="translate(360,760) scale(0.4,0.4)">
					<g transform="">
						<rect x="2154.1" y="-970.9" width="20.6" height="20.6"/>
					</g>
				</g>
				<g transform="translate(480,760) scale(0.4,0.4)">
					<g transform="">
						<rect x="1915.8" y="-970.9" width="20.6" height="20.6"/>
					</g>
				</g>
				<g transform="translate(520,760) scale(0.4,0.4)">
					<g transform="">
						<rect x="1836.4" y="-970.9" width="20.6" height="20.6"/>
					</g>
				</g>
				<g transform="translate(600,760) scale(0.4,0.4)">
					<g transform="">
						<rect x="1677.6" y="-970.9" width="20.6" height="20.6"/>
					</g>
				</g>
				<g transform="translate(640,760) scale(0.4,0.4)">
					<g transform="">
						<rect x="1598.1" y="-970.9" width="20.6" height="20.6"/>
					</g>
				</g>
				<g transform="translate(800,760) scale(0.4,0.4)">
					<g transform="">
						<rect x="1280.5" y="-970.9" width="20.6" height="20.6"/>
					</g>
				</g>
				<g transform="translate(920,760) scale(0.4,0.4)">
					<g transform="">
						<rect x="1042.2" y="-970.9" width="20.6" height="20.6"/>
					</g>
				</g>
				<g transform="translate(960,760) scale(0.4,0.4)">
					<g transform="">
						<rect x="962.8" y="-970.9" width="20.6" height="20.6"/>
					</g>
				</g>
				<g transform="translate(480,800) scale(0.4,0.4)">
					<g transform="">
						<rect x="1915.8" y="-1050.3" width="20.6" height="20.6"/>
					</g>
				</g>
				<g transform="translate(560,800) scale(0.4,0.4)">
					<g transform="">
						<rect x="1757" y="-1050.3" width="20.6" height="20.6"/>
					</g>
				</g>
				<g transform="translate(600,800) scale(0.4,0.4)">
					<g transform="">
						<rect x="1677.6" y="-1050.3" width="20.6" height="20.6"/>
					</g>
				</g>
				<g transform="translate(640,800) scale(0.4,0.4)">
					<g transform="">
						<rect x="1598.1" y="-1050.3" width="20.6" height="20.6"/>
					</g>
				</g>
				<g transform="translate(680,800) scale(0.4,0.4)">
					<g transform="">
						<rect x="1518.7" y="-1050.3" width="20.6" height="20.6"/>
					</g>
				</g>
				<g transform="translate(720,800) scale(0.4,0.4)">
					<g transform="">
						<rect x="1439.3" y="-1050.3" width="20.6" height="20.6"/>
					</g>
				</g>
				<g transform="translate(760,800) scale(0.4,0.4)">
					<g transform="">
						<rect x="1359.9" y="-1050.3" width="20.6" height="20.6"/>
					</g>
				</g>
				<g transform="translate(800,800) scale(0.4,0.4)">
					<g transform="">
						<rect x="1280.5" y="-1050.3" width="20.6" height="20.6"/>
					</g>
				</g>
				<g transform="translate(880,800) scale(0.4,0.4)">
					<g transform="">
						<rect x="1121.6" y="-1050.3" width="20.6" height="20.6"/>
					</g>
				</g>
				<g transform="translate(920,800) scale(0.4,0.4)">
					<g transform="">
						<rect x="1042.2" y="-1050.3" width="20.6" height="20.6"/>
					</g>
				</g>
				<g transform="translate(960,800) scale(0.4,0.4)">
					<g transform="">
						<rect x="962.8" y="-1050.3" width="20.6" height="20.6"/>
					</g>
				</g>
				<g transform="translate(360,840) scale(0.4,0.4)">
					<g transform="">
						<rect x="2154.1" y="-1129.7" width="20.6" height="20.6"/>
					</g>
				</g>
				<g transform="translate(560,840) scale(0.4,0.4)">
					<g transform="">
						<rect x="1757" y="-1129.7" width="20.6" height="20.6"/>
					</g>
				</g>
				<g transform="translate(600,840) scale(0.4,0.4)">
					<g transform="">
						<rect x="1677.6" y="-1129.7" width="20.6" height="20.6"/>
					</g>
				</g>
				<g transform="translate(720,840) scale(0.4,0.4)">
					<g transform="">
						<rect x="1439.3" y="-1129.7" width="20.6" height="20.6"/>
					</g>
				</g>
				<g transform="translate(920,840) scale(0.4,0.4)">
					<g transform="">
						<rect x="1042.2" y="-1129.7" width="20.6" height="20.6"/>
					</g>
				</g>
				<g transform="translate(960,840) scale(0.4,0.4)">
					<g transform="">
						<rect x="962.8" y="-1129.7" width="20.6" height="20.6"/>
					</g>
				</g>
				<g transform="translate(440,880) scale(0.4,0.4)">
					<g transform="">
						<rect x="1995.2" y="-1209.1" width="20.6" height="20.6"/>
					</g>
				</g>
				<g transform="translate(480,880) scale(0.4,0.4)">
					<g transform="">
						<rect x="1915.8" y="-1209.1" width="20.6" height="20.6"/>
					</g>
				</g>
				<g transform="translate(600,880) scale(0.4,0.4)">
					<g transform="">
						<rect x="1677.6" y="-1209.1" width="20.6" height="20.6"/>
					</g>
				</g>
				<g transform="translate(640,880) scale(0.4,0.4)">
					<g transform="">
						<rect x="1598.1" y="-1209.1" width="20.6" height="20.6"/>
					</g>
				</g>
				<g transform="translate(840,880) scale(0.4,0.4)">
					<g transform="">
						<rect x="1201" y="-1209.1" width="20.6" height="20.6"/>
					</g>
				</g>
				<g transform="translate(880,880) scale(0.4,0.4)">
					<g transform="">
						<rect x="1121.6" y="-1209.1" width="20.6" height="20.6"/>
					</g>
				</g>
				<g transform="translate(960,880) scale(0.4,0.4)">
					<g transform="">
						<rect x="962.8" y="-1209.1" width="20.6" height="20.6"/>
					</g>
				</g>
				<g transform="translate(360,920) scale(0.4,0.4)">
					<g transform="">
						<rect x="2154.1" y="-1288.6" width="20.6" height="20.6"/>
					</g>
				</g>
				<g transform="translate(400,920) scale(0.4,0.4)">
					<g transform="">
						<rect x="2074.7" y="-1288.6" width="20.6" height="20.6"/>
					</g>
				</g>
				<g transform="translate(440,920) scale(0.4,0.4)">
					<g transform="">
						<rect x="1995.2" y="-1288.6" width="20.6" height="20.6"/>
					</g>
				</g>
				<g transform="translate(560,920) scale(0.4,0.4)">
					<g transform="">
						<rect x="1757" y="-1288.6" width="20.6" height="20.6"/>
					</g>
				</g>
				<g transform="translate(640,920) scale(0.4,0.4)">
					<g transform="">
						<rect x="1598.1" y="-1288.6" width="20.6" height="20.6"/>
					</g>
				</g>
				<g transform="translate(680,920) scale(0.4,0.4)">
					<g transform="">
						<rect x="1518.7" y="-1288.6" width="20.6" height="20.6"/>
					</g>
				</g>
				<g transform="translate(760,920) scale(0.4,0.4)">
					<g transform="">
						<rect x="1359.9" y="-1288.6" width="20.6" height="20.6"/>
					</g>
				</g>
				<g transform="translate(800,920) scale(0.4,0.4)">
					<g transform="">
						<rect x="1280.5" y="-1288.6" width="20.6" height="20.6"/>
					</g>
				</g>
				<g transform="translate(960,920) scale(0.4,0.4)">
					<g transform="">
						<rect x="962.8" y="-1288.6" width="20.6" height="20.6"/>
					</g>
				</g>
				<g transform="translate(320,960) scale(0.4,0.4)">
					<g transform="">
						<rect x="2233.5" y="-1368" width="20.6" height="20.6"/>
					</g>
				</g>
				<g transform="translate(360,960) scale(0.4,0.4)">
					<g transform="">
						<rect x="2154.1" y="-1368" width="20.6" height="20.6"/>
					</g>
				</g>
				<g transform="translate(400,960) scale(0.4,0.4)">
					<g transform="">
						<rect x="2074.7" y="-1368" width="20.6" height="20.6"/>
					</g>
				</g>
				<g transform="translate(520,960) scale(0.4,0.4)">
					<g transform="">
						<rect x="1836.4" y="-1368" width="20.6" height="20.6"/>
					</g>
				</g>
				<g transform="translate(560,960) scale(0.4,0.4)">
					<g transform="">
						<rect x="1757" y="-1368" width="20.6" height="20.6"/>
					</g>
				</g>
				<g transform="translate(640,960) scale(0.4,0.4)">
					<g transform="">
						<rect x="1598.1" y="-1368" width="20.6" height="20.6"/>
					</g>
				</g>
				<g transform="translate(680,960) scale(0.4,0.4)">
					<g transform="">
						<rect x="1518.7" y="-1368" width="20.6" height="20.6"/>
					</g>
				</g>
				<g transform="translate(840,960) scale(0.4,0.4)">
					<g transform="">
						<rect x="1201" y="-1368" width="20.6" height="20.6"/>
					</g>
				</g>
				<g transform="translate(960,960) scale(0.4,0.4)">
					<g transform="">
						<rect x="962.8" y="-1368" width="20.6" height="20.6"/>
					</g>
				</g>
				<g transform="translate(0,0) scale(2.8, 2.8)">
					<g transform="">
						<g>
							<rect x="412.9" y="80" class="st5" width="14.4" height="14.4"/>
							<path d="M427.3,76.9h-14.4h-3.1V80v14.4v3.1h3.1h14.4h3.1v-3.1V80v-3.1H427.3z M427.3,94.4h-14.4V80h14.4V94.4z"/>
						</g>
					</g>
				</g>
				<g transform="translate(720,0) scale(2.8, 2.8)">
					<g transform="">
						<g>
							<rect x="208.7" y="80" class="st5" width="14.4" height="14.4"/>
							<path d="M223.1,76.9h-14.4h-3.1V80v14.4v3.1h3.1h14.4h3.1v-3.1V80v-3.1H223.1z M223.1,94.4h-14.4V80h14.4V94.4z"/>
						</g>
					</g>
				</g>
				<g transform="translate(0,720) scale(2.8, 2.8)">
					<g transform="">
						<g>
							<rect x="412.9" y="-124.3" class="st5" width="14.4" height="14.4"/>
							<path d="M427.3-127.4h-14.4h-3.1v3.1v14.4v3.1h3.1h14.4h3.1v-3.1v-14.4v-3.1H427.3z M427.3-109.9h-14.4v-14.4h14.4V-109.9z"
								/>
						</g>
					</g>
				</g>
				<g transform="translate(80,80) scale(1.2, 1.2)">
					<g transform="">
						<rect x="903.3" y="126.4" width="20.6" height="20.6"/>
					</g>
				</g>
				<g transform="translate(800,80) scale(1.2, 1.2)">
					<g transform="">
						<rect x="426.8" y="126.4" width="20.6" height="20.6"/>
					</g>
				</g>
				<g transform="translate(80,800) scale(1.2, 1.2)">
					<g transform="">
						<rect x="903.3" y="-350.1" width="20.6" height="20.6"/>
					</g>
				</g>
			</g>
		</g>
	</g>
</g>
</svg>
